  0
SECTION
  2
HEADER
  9
$ACADVER
  1
AC1027
  9
$ACADMAINTVER
 70
105
  9
$DWGCODEPAGE
  3
ANSI_1252
  9
$LASTSAVEDBY
  1
ezdxf
  9
$REQUIREDVERSIONS
160
0
  9
$INSBASE
 10
0.0
 20
0.0
 30
0.0
  9
$EXTMIN
 10
1e+20
 20
1e+20
 30
1e+20
  9
$EXTMAX
 10
-1e+20
 20
-1e+20
 30
-1e+20
  9
$LIMMIN
 10
0.0
 20
0.0
  9
$LIMMAX
 10
420.0
 20
297.0
  9
$ORTHOMODE
 70
0
  9
$REGENMODE
 70
1
  9
$FILLMODE
 70
1
  9
$QTEXTMODE
 70
0
  9
$MIRRTEXT
 70
1
  9
$LTSCALE
 40
25.0
  9
$ATTMODE
 70
1
  9
$TEXTSIZE
 40
2.5
  9
$TRACEWID
 40
1.0
  9
$TEXTSTYLE
  7
OpenSans
  9
$CLAYER
  8
0
  9
$CELTYPE
  6
ByLayer
  9
$CECOLOR
 62
256
  9
$CELTSCALE
 40
1.0
  9
$DISPSILH
 70
0
  9
$DIMSCALE
 40
1.0
  9
$DIMASZ
 40
0.175
  9
$DIMEXO
 40
0.125
  9
$DIMDLI
 40
3.75
  9
$DIMRND
 40
0.0
  9
$DIMDLE
 40
0.0
  9
$DIMEXE
 40
0.375
  9
$DIMTP
 40
0.0
  9
$DIMTM
 40
0.0
  9
$DIMTXT
 40
0.25
  9
$DIMCEN
 40
2.5
  9
$DIMTSZ
 40
0.0
  9
$DIMTOL
 70
0
  9
$DIMLIM
 70
0
  9
$DIMTIH
 70
0
  9
$DIMTOH
 70
0
  9
$DIMSE1
 70
0
  9
$DIMSE2
 70
0
  9
$DIMTAD
 70
1
  9
$DIMZIN
 70
12
  9
$DIMBLK
  1
ARCHTICK
  9
$DIMASO
 70
1
  9
$DIMSHO
 70
1
  9
$DIMPOST
  1

  9
$DIMAPOST
  1

  9
$DIMALT
 70
0
  9
$DIMALTD
 70
3
  9
$DIMALTF
 40
0.03937007874
  9
$DIMLFAC
 40
100.0
  9
$DIMTOFL
 70
1
  9
$DIMTVP
 40
0.0
  9
$DIMTIX
 70
0
  9
$DIMSOXD
 70
0
  9
$DIMSAH
 70
0
  9
$DIMBLK1
  1

  9
$DIMBLK2
  1

  9
$DIMSTYLE
  2
EZDXF
  9
$DIMCLRD
 70
0
  9
$DIMCLRE
 70
0
  9
$DIMCLRT
 70
0
  9
$DIMTFAC
 40
0.5
  9
$DIMGAP
 40
0.1
  9
$DIMJUST
 70
0
  9
$DIMSD1
 70
0
  9
$DIMSD2
 70
0
  9
$DIMTOLJ
 70
0
  9
$DIMTZIN
 70
8
  9
$DIMALTZ
 70
0
  9
$DIMALTTZ
 70
0
  9
$DIMUPT
 70
1
  9
$DIMDEC
 70
2
  9
$DIMTDEC
 70
2
  9
$DIMALTU
 70
2
  9
$DIMALTTD
 70
3
  9
$DIMTXSTY
  7
OpenSansCondensed-Light
  9
$DIMAUNIT
 70
0
  9
$DIMADEC
 70
2
  9
$DIMALTRND
 40
0.0
  9
$DIMAZIN
 70
3
  9
$DIMDSEP
 70
46
  9
$DIMATFIT
 70
3
  9
$DIMFRAC
 70
0
  9
$DIMLDRBLK
  1

  9
$DIMLUNIT
 70
2
  9
$DIMLWD
 70
-2
  9
$DIMLWE
 70
-2
  9
$DIMTMOVE
 70
2
  9
$DIMFXL
 40
1.0
  9
$DIMFXLON
 70
0
  9
$DIMJOGANG
 40
0.785398163397
  9
$DIMTFILL
 70
0
  9
$DIMTFILLCLR
 70
0
  9
$DIMARCSYM
 70
0
  9
$DIMLTYPE
  6

  9
$DIMLTEX1
  6

  9
$DIMLTEX2
  6

  9
$DIMTXTDIRECTION
 70
0
  9
$LUNITS
 70
2
  9
$LUPREC
 70
4
  9
$SKETCHINC
 40
1.0
  9
$FILLETRAD
 40
10.0
  9
$AUNITS
 70
0
  9
$AUPREC
 70
2
  9
$MENU
  1
.
  9
$ELEVATION
 40
0.0
  9
$PELEVATION
 40
0.0
  9
$THICKNESS
 40
0.0
  9
$LIMCHECK
 70
0
  9
$CHAMFERA
 40
0.0
  9
$CHAMFERB
 40
0.0
  9
$CHAMFERC
 40
0.0
  9
$CHAMFERD
 40
0.0
  9
$SKPOLY
 70
0
  9
$TDCREATE
 40
2461321.699479167
  9
$TDUCREATE
 40
2458532.153996898
  9
$TDUPDATE
 40
2461321.699479167
  9
$TDUUPDATE
 40
2458532.1544311
  9
$TDINDWG
 40
0.0
  9
$TDUSRTIMER
 40
0.0
  9
$USRTIMER
 70
1
  9
$ANGBASE
 50
0.0
  9
$ANGDIR
 70
0
  9
$PDMODE
 70
0
  9
$PDSIZE
 40
0.0
  9
$PLINEWID
 40
0.0
  9
$SPLFRAME
 70
0
  9
$SPLINETYPE
 70
6
  9
$SPLINESEGS
 70
8
  9
$HANDSEED
  5
20E
  9
$SURFTAB1
 70
6
  9
$SURFTAB2
 70
6
  9
$SURFTYPE
 70
6
  9
$SURFU
 70
6
  9
$SURFV
 70
6
  9
$UCSBASE
  2

  9
$UCSNAME
  2

  9
$UCSORG
 10
0.0
 20
0.0
 30
0.0
  9
$UCSXDIR
 10
1.0
 20
0.0
 30
0.0
  9
$UCSYDIR
 10
0.0
 20
1.0
 30
0.0
  9
$UCSORTHOREF
  2

  9
$UCSORTHOVIEW
 70
0
  9
$UCSORGTOP
 10
0.0
 20
0.0
 30
0.0
  9
$UCSORGBOTTOM
 10
0.0
 20
0.0
 30
0.0
  9
$UCSORGLEFT
 10
0.0
 20
0.0
 30
0.0
  9
$UCSORGRIGHT
 10
0.0
 20
0.0
 30
0.0
  9
$UCSORGFRONT
 10
0.0
 20
0.0
 30
0.0
  9
$UCSORGBACK
 10
0.0
 20
0.0
 30
0.0
  9
$PUCSBASE
  2

  9
$PUCSNAME
  2

  9
$PUCSORG
 10
0.0
 20
0.0
 30
0.0
  9
$PUCSXDIR
 10
1.0
 20
0.0
 30
0.0
  9
$PUCSYDIR
 10
0.0
 20
1.0
 30
0.0
  9
$PUCSORTHOREF
  2

  9
$PUCSORTHOVIEW
 70
0
  9
$PUCSORGTOP
 10
0.0
 20
0.0
 30
0.0
  9
$PUCSORGBOTTOM
 10
0.0
 20
0.0
 30
0.0
  9
$PUCSORGLEFT
 10
0.0
 20
0.0
 30
0.0
  9
$PUCSORGRIGHT
 10
0.0
 20
0.0
 30
0.0
  9
$PUCSORGFRONT
 10
0.0
 20
0.0
 30
0.0
  9
$PUCSORGBACK
 10
0.0
 20
0.0
 30
0.0
  9
$USERI1
 70
0
  9
$USERI2
 70
0
  9
$USERI3
 70
0
  9
$USERI4
 70
0
  9
$USERI5
 70
0
  9
$USERR1
 40
0.0
  9
$USERR2
 40
0.0
  9
$USERR3
 40
0.0
  9
$USERR4
 40
0.0
  9
$USERR5
 40
0.0
  9
$WORLDVIEW
 70
1
  9
$SHADEDGE
 70
3
  9
$SHADEDIF
 70
70
  9
$TILEMODE
 70
1
  9
$MAXACTVP
 70
64
  9
$PINSBASE
 10
0.0
 20
0.0
 30
0.0
  9
$PLIMCHECK
 70
0
  9
$PEXTMIN
 10
1e+20
 20
1e+20
 30
1e+20
  9
$PEXTMAX
 10
-1e+20
 20
-1e+20
 30
-1e+20
  9
$PLIMMIN
 10
0.0
 20
0.0
  9
$PLIMMAX
 10
420.0
 20
297.0
  9
$UNITMODE
 70
0
  9
$VISRETAIN
 70
1
  9
$PLINEGEN
 70
0
  9
$PSLTSCALE
 70
1
  9
$TREEDEPTH
 70
3020
  9
$CMLSTYLE
  2
Standard
  9
$CMLJUST
 70
0
  9
$CMLSCALE
 40
20.0
  9
$PROXYGRAPHICS
 70
1
  9
$MEASUREMENT
 70
1
  9
$CELWEIGHT
370
-1
  9
$ENDCAPS
280
0
  9
$JOINSTYLE
280
0
  9
$LWDISPLAY
290
0
  9
$INSUNITS
 70
4
  9
$HYPERLINKBASE
  1

  9
$STYLESHEET
  1

  9
$XEDIT
290
1
  9
$CEPSNTYPE
380
0
  9
$PSTYLEMODE
290
1
  9
$FINGERPRINTGUID
  2
{AB45D641-1ABF-44E0-9E00-BEEEBDA9AB23}
  9
$VERSIONGUID
  2
{33714078-BFD9-4DC0-9FA5-2352BE4371DB}
  9
$EXTNAMES
290
1
  9
$PSVPSCALE
 40
0.0
  9
$OLESTARTUP
290
0
  9
$SORTENTS
280
127
  9
$INDEXCTL
280
0
  9
$HIDETEXT
280
1
  9
$XCLIPFRAME
280
1
  9
$HALOGAP
280
0
  9
$OBSCOLOR
 70
257
  9
$OBSLTYPE
280
0
  9
$INTERSECTIONDISPLAY
280
0
  9
$INTERSECTIONCOLOR
 70
257
  9
$DIMASSOC
280
2
  9
$PROJECTNAME
  1

  9
$CAMERADISPLAY
290
0
  9
$LENSLENGTH
 40
50.0
  9
$CAMERAHEIGHT
 40
0.0
  9
$STEPSPERSEC
 40
24.0
  9
$STEPSIZE
 40
100.0
  9
$3DDWFPREC
 40
2.0
  9
$PSOLWIDTH
 40
0.005
  9
$PSOLHEIGHT
 40
0.08
  9
$LOFTANG1
 40
1.570796326795
  9
$LOFTANG2
 40
1.570796326795
  9
$LOFTMAG1
 40
0.0
  9
$LOFTMAG2
 40
0.0
  9
$LOFTPARAM
 70
7
  9
$LOFTNORMALS
280
1
  9
$LATITUDE
 40
37.795
  9
$LONGITUDE
 40
-122.394
  9
$NORTHDIRECTION
 40
0.0
  9
$TIMEZONE
 70
-8000
  9
$LIGHTGLYPHDISPLAY
280
1
  9
$TILEMODELIGHTSYNCH
280
1
  9
$CMATERIAL
347
20
  9
$SOLIDHIST
280
0
  9
$SHOWHIST
280
1
  9
$DWFFRAME
280
2
  9
$DGNFRAME
280
2
  9
$REALWORLDSCALE
290
1
  9
$INTERFERECOLOR
 62
256
  9
$CSHADOW
280
0
  9
$SHADOWPLANELOCATION
 40
0.0
  0
ENDSEC
  0
SECTION
  2
CLASSES
  0
CLASS
  1
ACDBDICTIONARYWDFLT
  2
AcDbDictionaryWithDefault
  3
ObjectDBX Classes
 90
0
 91
0
280
0
281
0
  0
CLASS
  1
SUN
  2
AcDbSun
  3
SCENEOE
 90
1153
 91
0
280
0
281
0
  0
CLASS
  1
VISUALSTYLE
  2
AcDbVisualStyle
  3
ObjectDBX Classes
 90
4095
 91
0
280
0
281
0
  0
CLASS
  1
MATERIAL
  2
AcDbMaterial
  3
ObjectDBX Classes
 90
1153
 91
0
280
0
281
0
  0
CLASS
  1
SCALE
  2
AcDbScale
  3
ObjectDBX Classes
 90
1153
 91
0
280
0
281
0
  0
CLASS
  1
TABLESTYLE
  2
AcDbTableStyle
  3
ObjectDBX Classes
 90
4095
 91
0
280
0
281
0
  0
CLASS
  1
MLEADERSTYLE
  2
AcDbMLeaderStyle
  3
ACDB_MLEADERSTYLE_CLASS
 90
4095
 91
0
280
0
281
0
  0
CLASS
  1
DICTIONARYVAR
  2
AcDbDictionaryVar
  3
ObjectDBX Classes
 90
0
 91
0
280
0
281
0
  0
CLASS
  1
CELLSTYLEMAP
  2
AcDbCellStyleMap
  3
ObjectDBX Classes
 90
1152
 91
0
280
0
281
0
  0
CLASS
  1
MENTALRAYRENDERSETTINGS
  2
AcDbMentalRayRenderSettings
  3
SCENEOE
 90
1024
 91
0
280
0
281
0
  0
CLASS
  1
ACDBDETAILVIEWSTYLE
  2
AcDbDetailViewStyle
  3
ObjectDBX Classes
 90
1025
 91
0
280
0
281
0
  0
CLASS
  1
ACDBSECTIONVIEWSTYLE
  2
AcDbSectionViewStyle
  3
ObjectDBX Classes
 90
1025
 91
0
280
0
281
0
  0
CLASS
  1
RASTERVARIABLES
  2
AcDbRasterVariables
  3
ISM
 90
0
 91
0
280
0
281
0
  0
CLASS
  1
ACDBPLACEHOLDER
  2
AcDbPlaceHolder
  3
ObjectDBX Classes
 90
0
 91
0
280
0
281
0
  0
CLASS
  1
LAYOUT
  2
AcDbLayout
  3
ObjectDBX Classes
 90
0
 91
0
280
0
281
0
  0
ENDSEC
  0
SECTION
  2
TABLES
  0
TABLE
  2
VPORT
  5
8
330
0
100
AcDbSymbolTable
 70
1
  0
VPORT
  5
20A
330
8
100
AcDbSymbolTableRecord
100
AcDbViewportTableRecord
  2
*Active
 70
0
 10
0.0
 20
0.0
 11
1.0
 21
1.0
 12
4855.383981731299
 22
455.38328868050894
 13
0.0
 23
0.0
 14
0.5
 24
0.5
 15
0.5
 25
0.5
 16
0.0
 26
0.0
 36
1.0
 17
0.0
 27
0.0
 37
0.0
 40
5891.304906229069
 41
1.34
 42
50.0
 43
0.0
 44
0.0
 50
0.0
 51
0.0
 71
0
 72
1000
 73
1
 74
3
 75
0
 76
0
 77
0
 78
0
281
0
 65
1
110
0.0
120
0.0
130
0.0
111
1.0
121
0.0
131
0.0
112
0.0
122
1.0
132
0.0
 79
0
146
0.0
  0
ENDTAB
  0
TABLE
  2
LTYPE
  5
2
330
0
100
AcDbSymbolTable
 70
21
  0
LTYPE
  5
24
330
2
100
AcDbSymbolTableRecord
100
AcDbLinetypeTableRecord
  2
ByBlock
 70
0
  3

 72
65
 73
0
 40
0.0
  0
LTYPE
  5
25
330
2
100
AcDbSymbolTableRecord
100
AcDbLinetypeTableRecord
  2
ByLayer
 70
0
  3

 72
65
 73
0
 40
0.0
  0
LTYPE
  5
26
330
2
100
AcDbSymbolTableRecord
100
AcDbLinetypeTableRecord
  2
Continuous
 70
0
  3

 72
65
 73
0
 40
0.0
  0
LTYPE
  5
2F
330
2
100
AcDbSymbolTableRecord
100
AcDbLinetypeTableRecord
  2
CENTER
 70
0
  3
Center ____ _ ____ _ ____ _ ____ _ ____ _ ____
 72
65
 73
4
 40
5.08
 49
3.175
 74
0
 49
-0.635
 74
0
 49
0.635
 74
0
 49
-0.635
 74
0
  0
LTYPE
  5
30
330
2
100
AcDbSymbolTableRecord
100
AcDbLinetypeTableRecord
  2
CENTERX2
 70
0
  3
Center (2x) ________  __  ________  __  ________
 72
65
 73
4
 40
8.89
 49
6.35
 74
0
 49
-0.635
 74
0
 49
1.27
 74
0
 49
-0.635
 74
0
  0
LTYPE
  5
31
330
2
100
AcDbSymbolTableRecord
100
AcDbLinetypeTableRecord
  2
CENTER2
 70
0
  3
Center (.5x) ____ _ ____ _ ____ _ ____ _ ____
 72
65
 73
4
 40
2.54
 49
1.587
 74
0
 49
-0.318
 74
0
 49
0.318
 74
0
 49
-0.318
 74
0
  0
LTYPE
  5
32
330
2
100
AcDbSymbolTableRecord
100
AcDbLinetypeTableRecord
  2
DASHED
 70
0
  3
Dashed __ __ __ __ __ __ __ __ __ __ __ __ __ _
 72
65
 73
2
 40
1.524
 49
1.27
 74
0
 49
-0.254
 74
0
  0
LTYPE
  5
33
330
2
100
AcDbSymbolTableRecord
100
AcDbLinetypeTableRecord
  2
DASHEDX2
 70
0
  3
Dashed (2x) ____  ____  ____  ____  ____  ____
 72
65
 73
2
 40
3.048
 49
2.54
 74
0
 49
-0.508
 74
0
  0
LTYPE
  5
34
330
2
100
AcDbSymbolTableRecord
100
AcDbLinetypeTableRecord
  2
DASHED2
 70
0
  3
Dashed (.5x) _ _ _ _ _ _ _ _ _ _ _ _ _ _
 72
65
 73
2
 40
0.762
 49
0.635
 74
0
 49
-0.127
 74
0
  0
LTYPE
  5
35
330
2
100
AcDbSymbolTableRecord
100
AcDbLinetypeTableRecord
  2
PHANTOM
 70
0
  3
Phantom ______  __  __  ______  __  __  ______
 72
65
 73
6
 40
6.35
 49
3.175
 74
0
 49
-0.635
 74
0
 49
0.635
 74
0
 49
-0.635
 74
0
 49
0.635
 74
0
 49
-0.635
 74
0
  0
LTYPE
  5
36
330
2
100
AcDbSymbolTableRecord
100
AcDbLinetypeTableRecord
  2
PHANTOMX2
 70
0
  3
Phantom (2x)____________    ____    ____    ____________
 72
65
 73
6
 40
10.795
 49
6.35
 74
0
 49
-0.635
 74
0
 49
1.27
 74
0
 49
-0.635
 74
0
 49
1.27
 74
0
 49
-0.635
 74
0
  0
LTYPE
  5
37
330
2
100
AcDbSymbolTableRecord
100
AcDbLinetypeTableRecord
  2
PHANTOM2
 70
0
  3
Phantom (.5x) ___ _ _ ___ _ _ ___ _ _ ___ _ _ ___
 72
65
 73
6
 40
3.175
 49
1.587
 74
0
 49
-0.318
 74
0
 49
0.318
 74
0
 49
-0.318
 74
0
 49
0.318
 74
0
 49
-0.318
 74
0
  0
LTYPE
  5
38
330
2
100
AcDbSymbolTableRecord
100
AcDbLinetypeTableRecord
  2
DASHDOT
 70
0
  3
Dash dot __ . __ . __ . __ . __ . __ . __ . __
 72
65
 73
4
 40
3.556
 49
2.54
 74
0
 49
-0.508
 74
0
 49
0.0
 74
0
 49
-0.508
 74
0
  0
LTYPE
  5
39
330
2
100
AcDbSymbolTableRecord
100
AcDbLinetypeTableRecord
  2
DASHDOTX2
 70
0
  3
Dash dot (2x) ____  .  ____  .  ____  .  ____
 72
65
 73
4
 40
6.096
 49
5.08
 74
0
 49
-0.508
 74
0
 49
0.0
 74
0
 49
-0.508
 74
0
  0
LTYPE
  5
3A
330
2
100
AcDbSymbolTableRecord
100
AcDbLinetypeTableRecord
  2
DASHDOT2
 70
0
  3
Dash dot (.5x) _ . _ . _ . _ . _ . _ . _ . _
 72
65
 73
4
 40
1.778
 49
1.27
 74
0
 49
-0.254
 74
0
 49
0.0
 74
0
 49
-0.254
 74
0
  0
LTYPE
  5
3B
330
2
100
AcDbSymbolTableRecord
100
AcDbLinetypeTableRecord
  2
DOT
 70
0
  3
Dot .  .  .  .  .  .  .  .  .  .  .  .  .  .  .  .
 72
65
 73
2
 40
0.508
 49
0.0
 74
0
 49
-0.508
 74
0
  0
LTYPE
  5
3C
330
2
100
AcDbSymbolTableRecord
100
AcDbLinetypeTableRecord
  2
DOTX2
 70
0
  3
Dot (2x) .    .    .    .    .    .    .    . 
 72
65
 73
2
 40
1.016
 49
0.0
 74
0
 49
-1.016
 74
0
  0
LTYPE
  5
3D
330
2
100
AcDbSymbolTableRecord
100
AcDbLinetypeTableRecord
  2
DOT2
 70
0
  3
Dot (.5) . . . . . . . . . . . . . . . . . . . 
 72
65
 73
2
 40
0.254
 49
0.0
 74
0
 49
-0.254
 74
0
  0
LTYPE
  5
3E
330
2
100
AcDbSymbolTableRecord
100
AcDbLinetypeTableRecord
  2
DIVIDE
 70
0
  3
Divide __ . . __ . . __ . . __ . . __ . . __
 72
65
 73
6
 40
4.064
 49
2.54
 74
0
 49
-0.508
 74
0
 49
0.0
 74
0
 49
-0.508
 74
0
 49
0.0
 74
0
 49
-0.508
 74
0
  0
LTYPE
  5
3F
330
2
100
AcDbSymbolTableRecord
100
AcDbLinetypeTableRecord
  2
DIVIDEX2
 70
0
  3
Divide (2x) ____  . .  ____  . .  ____  . .  ____
 72
65
 73
6
 40
6.604
 49
5.08
 74
0
 49
-0.508
 74
0
 49
0.0
 74
0
 49
-0.508
 74
0
 49
0.0
 74
0
 49
-0.508
 74
0
  0
LTYPE
  5
40
330
2
100
AcDbSymbolTableRecord
100
AcDbLinetypeTableRecord
  2
DIVIDE2
 70
0
  3
Divide(.5x) _ . _ . _ . _ . _ . _ . _ . _
 72
65
 73
6
 40
2.032
 49
1.27
 74
0
 49
-0.254
 74
0
 49
0.0
 74
0
 49
-0.254
 74
0
 49
0.0
 74
0
 49
-0.254
 74
0
  0
ENDTAB
  0
TABLE
  2
LAYER
  5
1
330
0
100
AcDbSymbolTable
 70
14
  0
LAYER
  5
27
330
1
100
AcDbSymbolTableRecord
100
AcDbLayerTableRecord
  2
0
 70
0
 62
7
  6
Continuous
370
-3
390
13
347
21
  0
LAYER
  5
28
330
1
100
AcDbSymbolTableRecord
100
AcDbLayerTableRecord
  2
Defpoints
 70
0
 62
7
  6
Continuous
290
0
370
-3
390
13
347
21
  0
LAYER
  5
8A
330
1
100
AcDbSymbolTableRecord
100
AcDbLayerTableRecord
  2
CHM-MURO
 70
0
 62
8
  6
Continuous
370
35
390
13
347
21
  0
LAYER
  5
8B
330
1
100
AcDbSymbolTableRecord
100
AcDbLayerTableRecord
  2
CHM-PERFIL
 70
0
 62
7
  6
Continuous
370
70
390
13
347
21
  0
LAYER
  5
8C
330
1
100
AcDbSymbolTableRecord
100
AcDbLayerTableRecord
  2
CHM-ZOCALO
 70
0
 62
30
420
9067051
  6
Continuous
370
25
390
13
347
21
  0
LAYER
  5
8D
330
1
100
AcDbSymbolTableRecord
100
AcDbLayerTableRecord
  2
CHM-ANCLAJE
 70
0
 62
8
420
9075302
  6
Continuous
370
18
390
13
347
21
  0
LAYER
  5
8E
330
1
100
AcDbSymbolTableRecord
100
AcDbLayerTableRecord
  2
CHM-HOGAR
 70
0
 62
1
  6
Continuous
370
35
390
13
347
21
  0
LAYER
  5
8F
330
1
100
AcDbSymbolTableRecord
100
AcDbLayerTableRecord
  2
CHM-MARCO
 70
0
 62
7
  6
Continuous
370
50
390
13
347
21
  0
LAYER
  5
90
330
1
100
AcDbSymbolTableRecord
100
AcDbLayerTableRecord
  2
CHM-VIDRIO
 70
0
 62
4
420
1807544
  6
Continuous
370
25
390
13
347
21
  0
LAYER
  5
91
330
1
100
AcDbSymbolTableRecord
100
AcDbLayerTableRecord
  2
CHM-EJES
 70
0
 62
1
  6
Continuous
370
18
390
13
347
21
  0
LAYER
  5
92
330
1
100
AcDbSymbolTableRecord
100
AcDbLayerTableRecord
  2
CHM-COTAS
 70
0
 62
3
420
748381
  6
Continuous
370
18
390
13
347
21
  0
LAYER
  5
93
330
1
100
AcDbSymbolTableRecord
100
AcDbLayerTableRecord
  2
CHM-TEXTO
 70
0
 62
7
  6
Continuous
370
18
390
13
347
21
  0
LAYER
  5
94
330
1
100
AcDbSymbolTableRecord
100
AcDbLayerTableRecord
  2
CHM-RAYADOS
 70
0
 62
8
  6
Continuous
370
9
390
13
347
21
  0
LAYER
  5
95
330
1
100
AcDbSymbolTableRecord
100
AcDbLayerTableRecord
  2
CHM-CAJETIN
 70
0
 62
7
  6
Continuous
370
50
390
13
347
21
  0
ENDTAB
  0
TABLE
  2
STYLE
  5
5
330
0
100
AcDbSymbolTable
 70
26
  0
STYLE
  5
29
330
5
100
AcDbSymbolTableRecord
100
AcDbTextStyleTableRecord
  2
Standard
 70
0
 40
0.0
 41
1.0
 50
0.0
 71
0
 42
2.5
  3
arial.ttf
  4

  0
STYLE
  5
41
330
5
100
AcDbSymbolTableRecord
100
AcDbTextStyleTableRecord
  2
OpenSans-Light
 70
0
 40
0.0
 41
1.0
 50
0.0
 71
0
 42
2.5
  3
OpenSans-Light.ttf
  4

  0
STYLE
  5
42
330
5
100
AcDbSymbolTableRecord
100
AcDbTextStyleTableRecord
  2
OpenSans-Light-Italic
 70
0
 40
0.0
 41
1.0
 50
0.0
 71
0
 42
2.5
  3
OpenSans-LightItalic.ttf
  4

  0
STYLE
  5
43
330
5
100
AcDbSymbolTableRecord
100
AcDbTextStyleTableRecord
  2
OpenSans
 70
0
 40
0.0
 41
1.0
 50
0.0
 71
0
 42
2.5
  3
OpenSans-Regular.ttf
  4

  0
STYLE
  5
44
330
5
100
AcDbSymbolTableRecord
100
AcDbTextStyleTableRecord
  2
OpenSans-Italic
 70
0
 40
0.0
 41
1.0
 50
0.0
 71
0
 42
2.5
  3
OpenSans-Italic.ttf
  4

  0
STYLE
  5
45
330
5
100
AcDbSymbolTableRecord
100
AcDbTextStyleTableRecord
  2
OpenSans-SemiBold
 70
0
 40
0.0
 41
1.0
 50
0.0
 71
0
 42
2.5
  3
OpenSans-SemiBold.ttf
  4

  0
STYLE
  5
46
330
5
100
AcDbSymbolTableRecord
100
AcDbTextStyleTableRecord
  2
OpenSans-SemiBoldItalic
 70
0
 40
0.0
 41
1.0
 50
0.0
 71
0
 42
2.5
  3
OpenSans-SemiBoldItalic.ttf
  4

  0
STYLE
  5
47
330
5
100
AcDbSymbolTableRecord
100
AcDbTextStyleTableRecord
  2
OpenSans-Bold
 70
0
 40
0.0
 41
1.0
 50
0.0
 71
0
 42
2.5
  3
OpenSans-Bold.ttf
  4

  0
STYLE
  5
48
330
5
100
AcDbSymbolTableRecord
100
AcDbTextStyleTableRecord
  2
OpenSans-BoldItalic
 70
0
 40
0.0
 41
1.0
 50
0.0
 71
0
 42
2.5
  3
OpenSans-BoldItalic.ttf
  4

  0
STYLE
  5
49
330
5
100
AcDbSymbolTableRecord
100
AcDbTextStyleTableRecord
  2
OpenSans-ExtraBold
 70
0
 40
0.0
 41
1.0
 50
0.0
 71
0
 42
2.5
  3
OpenSans-ExtraBold.ttf
  4

  0
STYLE
  5
4A
330
5
100
AcDbSymbolTableRecord
100
AcDbTextStyleTableRecord
  2
OpenSans-ExtraBoldItalic
 70
0
 40
0.0
 41
1.0
 50
0.0
 71
0
 42
2.5
  3
OpenSans-ExtraBoldItalic.ttf
  4

  0
STYLE
  5
4B
330
5
100
AcDbSymbolTableRecord
100
AcDbTextStyleTableRecord
  2
OpenSansCondensed-Bold
 70
0
 40
0.0
 41
1.0
 50
0.0
 71
0
 42
2.5
  3
OpenSansCondensed-Bold.ttf
  4

  0
STYLE
  5
4C
330
5
100
AcDbSymbolTableRecord
100
AcDbTextStyleTableRecord
  2
OpenSansCondensed-Light
 70
0
 40
0.0
 41
1.0
 50
0.0
 71
0
 42
2.5
  3
OpenSansCondensed-Light.ttf
  4

  0
STYLE
  5
4D
330
5
100
AcDbSymbolTableRecord
100
AcDbTextStyleTableRecord
  2
OpenSansCondensed-Italic
 70
0
 40
0.0
 41
1.0
 50
0.0
 71
0
 42
2.5
  3
OpenSansCondensed-LightItalic.ttf
  4

  0
STYLE
  5
4E
330
5
100
AcDbSymbolTableRecord
100
AcDbTextStyleTableRecord
  2
LiberationSans
 70
0
 40
0.0
 41
1.0
 50
0.0
 71
0
 42
2.5
  3
LiberationSans-Regular.ttf
  4

  0
STYLE
  5
4F
330
5
100
AcDbSymbolTableRecord
100
AcDbTextStyleTableRecord
  2
LiberationSans-Bold
 70
0
 40
0.0
 41
1.0
 50
0.0
 71
0
 42
2.5
  3
LiberationSans-Bold.ttf
  4

  0
STYLE
  5
50
330
5
100
AcDbSymbolTableRecord
100
AcDbTextStyleTableRecord
  2
LiberationSans-BoldItalic
 70
0
 40
0.0
 41
1.0
 50
0.0
 71
0
 42
2.5
  3
LiberationSans-BoldItalic.ttf
  4

  0
STYLE
  5
51
330
5
100
AcDbSymbolTableRecord
100
AcDbTextStyleTableRecord
  2
LiberationSans-Italic
 70
0
 40
0.0
 41
1.0
 50
0.0
 71
0
 42
2.5
  3
LiberationSans-Italic.ttf
  4

  0
STYLE
  5
52
330
5
100
AcDbSymbolTableRecord
100
AcDbTextStyleTableRecord
  2
LiberationSerif
 70
0
 40
0.0
 41
1.0
 50
0.0
 71
0
 42
2.5
  3
LiberationSerif-Regular.ttf
  4

  0
STYLE
  5
53
330
5
100
AcDbSymbolTableRecord
100
AcDbTextStyleTableRecord
  2
LiberationSerif-Bold
 70
0
 40
0.0
 41
1.0
 50
0.0
 71
0
 42
2.5
  3
LiberationSerif-Bold.ttf
  4

  0
STYLE
  5
54
330
5
100
AcDbSymbolTableRecord
100
AcDbTextStyleTableRecord
  2
LiberationSerif-BoldItalic
 70
0
 40
0.0
 41
1.0
 50
0.0
 71
0
 42
2.5
  3
LiberationSerif-BoldItalic.ttf
  4

  0
STYLE
  5
55
330
5
100
AcDbSymbolTableRecord
100
AcDbTextStyleTableRecord
  2
LiberationSerif-Italic
 70
0
 40
0.0
 41
1.0
 50
0.0
 71
0
 42
2.5
  3
LiberationSerif-Italic.ttf
  4

  0
STYLE
  5
56
330
5
100
AcDbSymbolTableRecord
100
AcDbTextStyleTableRecord
  2
LiberationMono
 70
0
 40
0.0
 41
1.0
 50
0.0
 71
0
 42
2.5
  3
LiberationMono-Regular.ttf
  4

  0
STYLE
  5
57
330
5
100
AcDbSymbolTableRecord
100
AcDbTextStyleTableRecord
  2
LiberationMono-Bold
 70
0
 40
0.0
 41
1.0
 50
0.0
 71
0
 42
2.5
  3
LiberationMono-Bold.ttf
  4

  0
STYLE
  5
58
330
5
100
AcDbSymbolTableRecord
100
AcDbTextStyleTableRecord
  2
LiberationMono-BoldItalic
 70
0
 40
0.0
 41
1.0
 50
0.0
 71
0
 42
2.5
  3
LiberationMono-BoldItalic.ttf
  4

  0
STYLE
  5
59
330
5
100
AcDbSymbolTableRecord
100
AcDbTextStyleTableRecord
  2
LiberationMono-Italic
 70
0
 40
0.0
 41
1.0
 50
0.0
 71
0
 42
2.5
  3
LiberationMono-Italic.ttf
  4

  0
ENDTAB
  0
TABLE
  2
VIEW
  5
7
330
0
100
AcDbSymbolTable
 70
0
  0
ENDTAB
  0
TABLE
  2
UCS
  5
6
330
0
100
AcDbSymbolTable
 70
0
  0
ENDTAB
  0
TABLE
  2
APPID
  5
3
330
0
100
AcDbSymbolTable
 70
3
  0
APPID
  5
2A
330
3
100
AcDbSymbolTableRecord
100
AcDbRegAppTableRecord
  2
ACAD
 70
0
  0
APPID
  5
20B
330
3
100
AcDbSymbolTableRecord
100
AcDbRegAppTableRecord
  2
HATCHBACKGROUNDCOLOR
 70
0
  0
APPID
  5
20C
330
3
100
AcDbSymbolTableRecord
100
AcDbRegAppTableRecord
  2
EZDXF
 70
0
  0
ENDTAB
  0
TABLE
  2
DIMSTYLE
  5
4
330
0
100
AcDbSymbolTable
 70
12
100
AcDbDimStyleTable
  0
DIMSTYLE
105
2B
330
4
100
AcDbSymbolTableRecord
100
AcDbDimStyleTableRecord
  2
Standard
 70
0
 40
1.0
 41
2.5
 42
0.625
 43
3.75
 44
1.25
 45
0.0
 46
0.0
 47
0.0
 48
0.0
 49
2.5
140
2.5
141
2.5
142
0.0
143
0.03937007874
144
1.0
145
0.0
146
1.0
147
0.625
148
0.0
 69
0
 70
0
 71
0
 72
0
 73
0
 74
0
 75
0
 76
0
 77
1
 78
8
 79
3
170
0
171
3
172
1
173
0
174
0
175
0
176
0
177
0
178
0
179
2
271
2
272
2
273
2
274
3
275
0
276
0
277
2
278
44
279
0
280
0
281
0
282
0
283
0
284
8
285
0
286
0
288
0
289
3
290
0
371
-2
372
-2
  0
DIMSTYLE
105
73
330
4
100
AcDbSymbolTableRecord
100
AcDbDimStyleTableRecord
  2
EZDXF
 70
0
 40
1.0
 41
0.175
 42
0.125
 43
3.75
 44
0.375
 45
0.0
 46
0.0
 47
0.0
 48
0.0
 49
2.5
140
0.25
141
2.5
142
0.0
143
0.03937007874
144
100.0
145
0.0
146
0.5
147
0.1
148
0.0
 69
0
 70
0
 71
0
 72
0
 73
0
 74
0
 75
0
 76
0
 77
1
 78
12
 79
3
170
0
171
3
172
1
173
0
174
0
175
0
176
0
177
0
178
0
179
2
271
2
272
2
273
2
274
3
275
0
276
0
277
2
278
46
279
2
280
0
281
0
282
0
283
0
284
8
285
0
286
0
288
1
289
3
290
0
340
4C
342
74
371
-2
372
-2
  0
DIMSTYLE
105
7C
330
4
100
AcDbSymbolTableRecord
100
AcDbDimStyleTableRecord
  2
EZ_M_100_H25_CM
 70
0
 40
1.0
 41
0.25
 42
0.125
 43
3.75
 44
0.375
 45
0.0
 46
0.0
 47
0.0
 48
0.0
 49
2.5
140
0.25
141
2.5
142
0.125
143
0.03937007874
144
100.0
145
0.0
146
0.5
147
0.1
148
0.0
 69
0
 70
0
 71
0
 72
0
 73
0
 74
0
 75
0
 76
0
 77
1
 78
12
 79
3
170
0
171
3
172
1
173
0
174
0
175
0
176
0
177
0
178
0
179
2
271
2
272
2
273
2
274
3
275
0
276
0
277
2
278
46
279
2
280
0
281
0
282
0
283
0
284
8
285
0
286
0
288
1
289
3
290
0
340
4C
371
-2
372
-2
  0
DIMSTYLE
105
7D
330
4
100
AcDbSymbolTableRecord
100
AcDbDimStyleTableRecord
  2
EZ_M_50_H25_CM
 70
0
 40
1.0
 41
0.125
 42
0.0625
 43
3.75
 44
0.1875
 45
0.0
 46
0.0
 47
0.0
 48
0.0
 49
2.5
140
0.125
141
2.5
142
0.0625
143
0.03937007874
144
100.0
145
0.0
146
0.5
147
0.05
148
0.0
 69
0
 70
0
 71
0
 72
0
 73
0
 74
0
 75
0
 76
0
 77
1
 78
12
 79
3
170
0
171
3
172
1
173
0
174
0
175
0
176
0
177
0
178
0
179
2
271
2
272
2
273
2
274
3
275
0
276
0
277
2
278
46
279
2
280
0
281
0
282
0
283
0
284
8
285
0
286
0
288
1
289
3
290
0
340
4C
371
-2
372
-2
  0
DIMSTYLE
105
7E
330
4
100
AcDbSymbolTableRecord
100
AcDbDimStyleTableRecord
  2
EZ_M_25_H25_CM
 70
0
 40
1.0
 41
0.0625
 42
0.03125
 43
3.75
 44
0.09375
 45
0.0
 46
0.0
 47
0.0
 48
0.0
 49
2.5
140
0.0625
141
2.5
142
0.03125
143
0.03937007874
144
100.0
145
0.0
146
0.5
147
0.025
148
0.0
 69
0
 70
0
 71
0
 72
0
 73
0
 74
0
 75
0
 76
0
 77
1
 78
12
 79
3
170
0
171
3
172
1
173
0
174
0
175
0
176
0
177
0
178
0
179
2
271
2
272
2
273
2
274
3
275
0
276
0
277
2
278
46
279
2
280
0
281
0
282
0
283
0
284
8
285
0
286
0
288
1
289
3
290
0
340
4C
371
-2
372
-2
  0
DIMSTYLE
105
7F
330
4
100
AcDbSymbolTableRecord
100
AcDbDimStyleTableRecord
  2
EZ_M_20_H25_CM
 70
0
 40
1.0
 41
0.05
 42
0.025
 43
3.75
 44
0.07500000000000001
 45
0.0
 46
0.0
 47
0.0
 48
0.0
 49
2.5
140
0.05
141
2.5
142
0.025
143
0.03937007874
144
100.0
145
0.0
146
0.5
147
0.020000000000000004
148
0.0
 69
0
 70
0
 71
0
 72
0
 73
0
 74
0
 75
0
 76
0
 77
1
 78
12
 79
3
170
0
171
3
172
1
173
0
174
0
175
0
176
0
177
0
178
0
179
2
271
2
272
2
273
2
274
3
275
0
276
0
277
2
278
46
279
2
280
0
281
0
282
0
283
0
284
8
285
0
286
0
288
1
289
3
290
0
340
4C
371
-2
372
-2
  0
DIMSTYLE
105
80
330
4
100
AcDbSymbolTableRecord
100
AcDbDimStyleTableRecord
  2
EZ_M_10_H25_CM
 70
0
 40
1.0
 41
0.025
 42
0.0125
 43
3.75
 44
0.037500000000000006
 45
0.0
 46
0.0
 47
0.0
 48
0.0
 49
2.5
140
0.025
141
2.5
142
0.0125
143
0.03937007874
144
100.0
145
0.0
146
0.5
147
0.010000000000000002
148
0.0
 69
0
 70
0
 71
0
 72
0
 73
0
 74
0
 75
0
 76
0
 77
1
 78
12
 79
3
170
0
171
3
172
1
173
0
174
0
175
0
176
0
177
0
178
0
179
2
271
2
272
2
273
2
274
3
275
0
276
0
277
2
278
46
279
2
280
0
281
0
282
0
283
0
284
8
285
0
286
0
288
1
289
3
290
0
340
4C
371
-2
372
-2
  0
DIMSTYLE
105
81
330
4
100
AcDbSymbolTableRecord
100
AcDbDimStyleTableRecord
  2
EZ_M_5_H25_CM
 70
0
 40
1.0
 41
0.0125
 42
0.00625
 43
3.75
 44
0.018750000000000003
 45
0.0
 46
0.0
 47
0.0
 48
0.0
 49
2.5
140
0.0125
141
2.5
142
0.00625
143
0.03937007874
144
100.0
145
0.0
146
0.5
147
0.005000000000000001
148
0.0
 69
0
 70
0
 71
0
 72
0
 73
0
 74
0
 75
0
 76
0
 77
1
 78
12
 79
3
170
0
171
3
172
1
173
0
174
0
175
0
176
0
177
0
178
0
179
2
271
2
272
2
273
2
274
3
275
0
276
0
277
2
278
46
279
2
280
0
281
0
282
0
283
0
284
8
285
0
286
0
288
1
289
3
290
0
340
4C
371
-2
372
-2
  0
DIMSTYLE
105
82
330
4
100
AcDbSymbolTableRecord
100
AcDbDimStyleTableRecord
  2
EZ_M_1_H25_CM
 70
0
 40
1.0
 41
0.0025
 42
0.00125
 43
3.75
 44
0.00375
 45
0.0
 46
0.0
 47
0.0
 48
0.0
 49
2.5
140
0.0025
141
2.5
142
0.00125
143
0.03937007874
144
100.0
145
0.0
146
0.5
147
0.001
148
0.0
 69
0
 70
0
 71
0
 72
0
 73
0
 74
0
 75
0
 76
0
 77
1
 78
12
 79
3
170
0
171
3
172
1
173
0
174
0
175
0
176
0
177
0
178
0
179
2
271
2
272
2
273
2
274
3
275
0
276
0
277
2
278
46
279
2
280
0
281
0
282
0
283
0
284
8
285
0
286
0
288
1
289
3
290
0
340
4C
371
-2
372
-2
  0
DIMSTYLE
105
83
330
4
100
AcDbSymbolTableRecord
100
AcDbDimStyleTableRecord
  2
EZ_RADIUS
 70
0
 40
1.0
 41
0.25
 42
0.125
 43
3.75
 44
0.375
 45
0.0
 46
0.0
 47
0.0
 48
0.0
 49
2.5
140
0.25
141
0.0
142
0.0
143
0.03937007874
144
100.0
145
0.0
146
0.5
147
0.1
148
0.0
 69
0
 70
0
 71
0
 72
0
 73
0
 74
0
 75
0
 76
0
 77
1
 78
12
 79
3
170
0
171
3
172
0
173
0
174
0
175
0
176
0
177
0
178
0
179
2
271
2
272
2
273
2
274
3
275
0
276
0
277
2
278
46
279
1
280
0
281
0
282
0
283
0
284
8
285
0
286
0
288
1
289
3
290
0
340
4C
342
84
371
-2
372
-2
  0
DIMSTYLE
105
88
330
4
100
AcDbSymbolTableRecord
100
AcDbDimStyleTableRecord
  2
EZ_RADIUS_INSIDE
 70
0
 40
1.0
 41
0.25
 42
0.125
 43
3.75
 44
0.375
 45
0.0
 46
0.0
 47
0.0
 48
0.0
 49
2.5
140
0.25
141
0.0
142
0.0
143
0.03937007874
144
100.0
145
0.0
146
0.5
147
0.1
148
0.0
 69
0
 70
0
 71
0
 72
0
 73
0
 74
0
 75
0
 76
0
 77
0
 78
12
 79
3
170
0
171
3
172
0
173
0
174
1
175
0
176
0
177
0
178
0
179
2
271
2
272
2
273
2
274
3
275
0
276
0
277
2
278
46
279
0
280
0
281
0
282
0
283
0
284
8
285
0
286
0
288
1
289
0
290
0
340
4C
342
84
371
-2
372
-2
  0
DIMSTYLE
105
89
330
4
100
AcDbSymbolTableRecord
100
AcDbDimStyleTableRecord
  2
EZ_CURVED
 70
0
 40
1.0
 41
0.25
 42
0.125
 43
3.75
 44
0.375
 45
0.0
 46
0.0
 47
0.0
 48
0.0
 49
2.5
140
0.25
141
2.5
142
0.0
143
0.03937007874
144
100.0
145
0.0
146
0.5
147
0.1
148
0.0
 69
0
 70
0
 71
0
 72
0
 73
0
 74
0
 75
0
 76
0
 77
1
 78
12
 79
2
 90
2
170
0
171
3
172
1
173
0
174
0
175
0
176
0
177
0
178
0
179
2
271
2
272
2
273
2
274
3
275
0
276
0
277
2
278
46
279
2
280
0
281
0
282
0
283
0
284
8
285
0
286
0
288
1
289
3
290
0
340
4C
371
-2
372
-2
  0
ENDTAB
  0
TABLE
  2
BLOCK_RECORD
  5
9
330
0
100
AcDbSymbolTable
 70
5
  0
BLOCK_RECORD
  5
17
330
9
100
AcDbSymbolTableRecord
100
AcDbBlockTableRecord
  2
*Model_Space
340
1A
 70
0
280
1
281
0
  0
BLOCK_RECORD
  5
1B
330
9
100
AcDbSymbolTableRecord
100
AcDbBlockTableRecord
  2
*Paper_Space
340
1E
 70
0
280
1
281
0
  0
BLOCK_RECORD
  5
74
330
9
100
AcDbSymbolTableRecord
100
AcDbBlockTableRecord
  2
_ARCHTICK
340
0
 70
0
280
1
281
0
  0
BLOCK_RECORD
  5
78
330
9
100
AcDbSymbolTableRecord
100
AcDbBlockTableRecord
  2
_CLOSEDFILLED
340
0
 70
0
280
1
281
0
  0
BLOCK_RECORD
  5
84
330
9
100
AcDbSymbolTableRecord
100
AcDbBlockTableRecord
  2
_CLOSEDBLANK
340
0
 70
0
280
1
281
0
  0
ENDTAB
  0
ENDSEC
  0
SECTION
  2
BLOCKS
  0
BLOCK
  5
18
330
17
100
AcDbEntity
  8
0
100
AcDbBlockBegin
  2
*Model_Space
 70
0
 10
0.0
 20
0.0
 30
0.0
  3
*Model_Space
  1

  0
ENDBLK
  5
19
330
17
100
AcDbEntity
  8
0
100
AcDbBlockEnd
  0
BLOCK
  5
1C
330
1B
100
AcDbEntity
  8
0
100
AcDbBlockBegin
  2
*Paper_Space
 70
0
 10
0.0
 20
0.0
 30
0.0
  3
*Paper_Space
  1

  0
ENDBLK
  5
1D
330
1B
100
AcDbEntity
  8
0
100
AcDbBlockEnd
  0
BLOCK
  5
75
330
74
100
AcDbEntity
  8
0
100
AcDbBlockBegin
  2
_ARCHTICK
 70
0
 10
0.0
 20
0.0
 30
0.0
  3
_ARCHTICK
  1

  0
LWPOLYLINE
  5
77
330
74
100
AcDbEntity
  8
0
  6
BYBLOCK
 62
0
100
AcDbPolyline
 90
2
 70
0
 43
0.15
 10
-0.5
 20
-0.5
 10
0.5
 20
0.5
  0
ENDBLK
  5
76
330
74
100
AcDbEntity
  8
0
100
AcDbBlockEnd
  0
BLOCK
  5
79
330
78
100
AcDbEntity
  8
0
100
AcDbBlockBegin
  2
_CLOSEDFILLED
 70
0
 10
0.0
 20
0.0
 30
0.0
  3
_CLOSEDFILLED
  1

  0
SOLID
  5
7B
330
78
100
AcDbEntity
  8
0
  6
BYBLOCK
 62
0
100
AcDbTrace
 10
-1.0
 20
0.16439898372402537
 30
0.0
 11
0.0
 21
0.0
 31
0.0
 12
-1.0
 22
-0.16439898372402537
 32
0.0
 13
-1.0
 23
-0.16439898372402537
 33
0.0
  0
ENDBLK
  5
7A
330
78
100
AcDbEntity
  8
0
100
AcDbBlockEnd
  0
BLOCK
  5
85
330
84
100
AcDbEntity
  8
0
100
AcDbBlockBegin
  2
_CLOSEDBLANK
 70
0
 10
0.0
 20
0.0
 30
0.0
  3
_CLOSEDBLANK
  1

  0
LWPOLYLINE
  5
87
330
84
100
AcDbEntity
  8
0
  6
BYBLOCK
 62
0
100
AcDbPolyline
 90
3
 70
1
 10
-1.0
 20
0.16439898372402537
 10
0.0
 20
0.0
 10
-1.0
 20
-0.16439898372402537
  0
ENDBLK
  5
86
330
84
100
AcDbEntity
  8
0
100
AcDbBlockEnd
  0
ENDSEC
  0
SECTION
  2
ENTITIES
  0
HATCH
  5
96
330
17
100
AcDbEntity
  8
CHM-RAYADOS
 62
7
420
13553358
100
AcDbHatch
 10
0.0
 20
0.0
 30
0.0
210
0.0
220
0.0
230
1.0
  2
SOLID
 70
1
 71
0
 91
1
 92
3
 72
0
 73
1
 93
6
 10
254.0
 20
1970.0
 10
2194.0
 20
1970.0
 10
2194.0
 20
1770.0
 10
454.0
 20
1770.0
 10
454.0
 20
40.0
 10
254.0
 20
40.0
 97
0
 75
1
 76
1
 98
0
  0
HATCH
  5
97
330
17
100
AcDbEntity
  8
CHM-RAYADOS
 62
7
420
7237230
100
AcDbHatch
 10
0.0
 20
0.0
 30
0.0
210
0.0
220
0.0
230
1.0
  2
ANSI31
 70
0
 71
0
 91
1
 92
3
 72
0
 73
1
 93
6
 10
254.0
 20
1970.0
 10
2194.0
 20
1970.0
 10
2194.0
 20
1770.0
 10
454.0
 20
1770.0
 10
454.0
 20
40.0
 10
254.0
 20
40.0
 97
0
 75
1
 76
1
 52
0.0
 41
14.0
 77
0
 78
1
 53
45.0
 43
0.0
 44
0.0
 45
-31.4308964242
 46
31.4308964242
 79
0
 98
0
  0
LWPOLYLINE
  5
98
330
17
100
AcDbEntity
  8
CHM-MURO
100
AcDbPolyline
 90
3
 70
0
 10
2194.0
 20
1970.0
 10
254.0
 20
1970.0
 10
254.0
 20
40.0
  0
LWPOLYLINE
  5
99
330
17
100
AcDbEntity
  8
CHM-MURO
100
AcDbPolyline
 90
3
 70
0
 10
2194.0
 20
1770.0
 10
454.0
 20
1770.0
 10
454.0
 20
40.0
  0
LWPOLYLINE
  5
9A
330
17
100
AcDbEntity
  8
CHM-MURO
100
AcDbPolyline
 90
10
 70
0
 10
2194.0
 20
1970.0
 10
2194.0
 20
1945.0
 10
2209.0
 20
1920.0
 10
2179.0
 20
1895.0
 10
2209.0
 20
1870.0
 10
2179.0
 20
1845.0
 10
2209.0
 20
1820.0
 10
2179.0
 20
1795.0
 10
2194.0
 20
1795.0
 10
2194.0
 20
1770.0
  0
LWPOLYLINE
  5
9B
330
17
100
AcDbEntity
  8
CHM-MURO
100
AcDbPolyline
 90
10
 70
0
 10
254.0
 20
40.0
 10
279.0
 20
40.0
 10
304.0
 20
55.0
 10
329.0
 20
25.0
 10
354.0
 20
55.0
 10
379.0
 20
25.0
 10
404.0
 20
55.0
 10
429.0
 20
25.0
 10
429.0
 20
40.0
 10
454.0
 20
40.0
  0
HATCH
  5
9C
330
17
100
AcDbEntity
  8
CHM-RAYADOS
 62
7
420
14999768
100
AcDbHatch
 10
0.0
 20
0.0
 30
0.0
210
0.0
220
0.0
230
1.0
  2
SOLID
 70
1
 71
0
 91
1
 92
3
 72
0
 73
1
 93
5
 10
454.0
 20
1770.0
 10
1834.0
 20
1770.0
 10
1834.0
 20
1270.0
 10
1114.0
 20
350.0
 10
454.0
 20
350.0
 97
0
 75
1
 76
1
 98
0
  0
HATCH
  5
9D
330
17
100
AcDbEntity
  8
CHM-MURO
 62
7
420
15235168
100
AcDbHatch
 10
0.0
 20
0.0
 30
0.0
210
0.0
220
0.0
230
1.0
  2
SOLID
 70
1
 71
0
 91
1
 92
3
 72
0
 73
1
 93
3
 10
454.0
 20
1770.0
 10
513.0
 20
350.0
 10
454.0
 20
350.0
 97
0
 75
1
 76
1
 98
0
  0
LWPOLYLINE
  5
9E
330
17
100
AcDbEntity
  8
CHM-MURO
  6
DASHED
370
25
420
13117480
100
AcDbPolyline
 90
2
 70
0
 10
454.0
 20
1770.0
 10
513.0
 20
350.0
  0
LWPOLYLINE
  5
9F
330
17
100
AcDbEntity
  8
CHM-EJES
  6
DASHED
370
13
420
9211020
100
AcDbPolyline
 90
3
 70
0
 10
1834.0
 20
1270.0
 10
1834.0
 20
350.0
 10
1114.0
 20
350.0
  0
LWPOLYLINE
  5
A0
330
17
100
AcDbEntity
  8
CHM-ZOCALO
  6
DASHED
100
AcDbPolyline
 90
5
 70
1
 10
454.0
 20
1770.0
 10
1809.0
 20
1770.0
 10
1809.0
 20
1278.6196718514175
 10
1101.8193872467168
 20
375.0
 10
454.0
 20
375.0
  0
LWPOLYLINE
  5
A1
330
17
100
AcDbEntity
  8
CHM-ANCLAJE
  6
DASHED
100
AcDbPolyline
 90
6
 70
1
 10
354.0
 20
1870.0
 10
1834.0
 20
1870.0
 10
1834.0
 20
1770.0
 10
454.0
 20
1770.0
 10
454.0
 20
350.0
 10
354.0
 20
350.0
  0
LWPOLYLINE
  5
A2
330
17
100
AcDbEntity
  8
CHM-PERFIL
100
AcDbPolyline
 90
5
 70
1
 10
454.0
 20
1770.0
 10
1834.0
 20
1770.0
 10
1834.0
 20
1270.0
 10
1114.0
 20
350.0
 10
454.0
 20
350.0
  0
LWPOLYLINE
  5
A3
330
17
100
AcDbEntity
  8
CHM-HOGAR
  6
DASHED
100
AcDbPolyline
 90
4
 70
1
 10
1212.068988795303
 20
475.31037457177604
 10
1735.931011204697
 20
1144.689625428224
 10
1381.5537607512833
 20
1422.0283431743737
 10
857.6917383418893
 20
752.6490923179258
  0
HATCH
  5
A4
330
17
100
AcDbEntity
  8
CHM-MARCO
 62
7
420
921102
100
AcDbHatch
 10
0.0
 20
0.0
 30
0.0
210
0.0
220
0.0
230
1.0
  2
SOLID
 70
1
 71
0
 91
1
 92
3
 72
0
 73
1
 93
4
 10
1212.068988795303
 20
475.31037457177604
 10
1224.3951540284652
 20
491.0604745919277
 10
1192.894953988162
 20
515.7128050582521
 10
1180.5687887549996
 20
499.96270503810047
 97
0
 75
1
 76
1
 98
0
  0
HATCH
  5
A5
330
17
100
AcDbEntity
  8
CHM-MARCO
 62
7
420
921102
100
AcDbHatch
 10
0.0
 20
0.0
 30
0.0
210
0.0
220
0.0
230
1.0
  2
SOLID
 70
1
 71
0
 91
1
 92
3
 72
0
 73
1
 93
4
 10
1723.6048459715348
 20
1128.9395254080723
 10
1735.931011204697
 20
1144.689625428224
 10
1704.4308111643934
 20
1169.3419558945484
 10
1692.1046459312313
 20
1153.5918558743967
 97
0
 75
1
 76
1
 98
0
  0
HATCH
  5
A6
330
17
100
AcDbEntity
  8
CHM-VIDRIO
 62
7
420
8702178
100
AcDbHatch
 10
0.0
 20
0.0
 30
0.0
210
0.0
220
0.0
230
1.0
  2
SOLID
 70
1
 71
0
 91
1
 92
3
 72
0
 73
1
 93
4
 10
1212.5825790133513
 20
500.30509851679926
 10
1711.7922709564211
 20
1138.184149332944
 10
1703.9172209463452
 20
1144.347231949525
 10
1204.7075290032756
 20
506.46818113338054
 97
0
 75
1
 76
1
 98
0
  0
LWPOLYLINE
  5
A7
330
17
100
AcDbEntity
  8
CHM-VIDRIO
100
AcDbPolyline
 90
4
 70
1
 10
1212.5825790133513
 20
500.30509851679926
 10
1711.7922709564211
 20
1138.184149332944
 10
1703.9172209463452
 20
1144.347231949525
 10
1204.7075290032756
 20
506.46818113338054
  0
LWPOLYLINE
  5
A8
330
17
100
AcDbEntity
  8
CHM-EJES
  6
CENTER
100
AcDbPolyline
 90
2
 70
0
 10
1670.8762502518964
 20
655.9229345854724
 10
1095.9975995163588
 20
1105.8279655958931
  0
HATCH
  5
A9
330
17
100
AcDbEntity
  8
CHM-EJES
 62
7
420
16777215
100
AcDbHatch
 10
0.0
 20
0.0
 30
0.0
210
0.0
220
0.0
230
1.0
  2
SOLID
 70
1
 71
0
 91
1
 92
1
 93
1
 72
2
 10
1706.313975297238
 20
628.1890628108574
 40
45.0
 50
0
 51
360
 73
1
 97
0
 75
1
 76
1
 98
0
  0
CIRCLE
  5
AA
330
17
100
AcDbEntity
  8
CHM-EJES
420
1973790
100
AcDbCircle
 10
1706.313975297238
 20
628.1890628108574
 30
0.0
 40
45.0
  0
TEXT
  5
AB
330
17
100
AcDbEntity
  8
CHM-TEXTO
100
AcDbText
 10
1706.313975297238
 20
628.1890628108574
 30
0.0
 40
50.0
  1
A
 72
1
 11
1706.313975297238
 21
628.1890628108574
 31
0.0
100
AcDbText
 73
2
  0
TEXT
  5
AC
330
17
100
AcDbEntity
  8
CHM-TEXTO
420
13117480
100
AcDbText
 10
1192.0389702914144
 20
814.7935087017853
 30
0.0
 40
52.5
  1
Hogar
 50
51.95295746817391
 72
1
 11
1192.0389702914144
 21
814.7935087017853
 31
0.0
100
AcDbText
 73
2
  0
LWPOLYLINE
  5
AD
330
17
100
AcDbEntity
  8
CHM-COTAS
100
AcDbPolyline
 90
2
 70
0
 10
1390.798384676155
 20
1433.8409181894876
 10
1438.5622749546585
 20
1494.8725557675755
  0
LWPOLYLINE
  5
AE
330
17
100
AcDbEntity
  8
CHM-COTAS
100
AcDbPolyline
 90
2
 70
0
 10
1779.0725895207647
 20
1199.8149754987548
 10
1424.6953390673511
 20
1477.1536932449048
  0
LWPOLYLINE
  5
AF
330
17
100
AcDbEntity
  8
CHM-COTAS
370
35
100
AcDbPolyline
 90
2
 70
0
 10
1799.9181529493258
 20
1202.3571173802868
 10
1758.2270260922037
 20
1197.2728336172231
  0
LWPOLYLINE
  5
B0
330
17
100
AcDbEntity
  8
CHM-COTAS
370
35
100
AcDbPolyline
 90
2
 70
0
 10
1445.5409024959122
 20
1479.6958351264366
 10
1403.84977563879
 20
1474.6115513633729
  0
TEXT
  5
B1
330
17
100
AcDbEntity
  8
CHM-COTAS
100
AcDbText
 10
1610.5122799572714
 20
1349.509404385936
 30
0.0
 40
50.0
  1
450
 50
-38.047042531826065
 72
1
 11
1610.5122799572714
 21
1349.509404385936
 31
0.0
100
AcDbText
 73
1
  0
LWPOLYLINE
  5
B2
330
17
100
AcDbEntity
  8
CHM-EJES
  6
CENTER
420
13117480
100
AcDbPolyline
 90
2
 70
0
 10
83.0
 20
1770.0
 10
2294.0
 20
1770.0
  0
HATCH
  5
B3
330
17
100
AcDbEntity
  8
CHM-EJES
 62
7
420
13117480
100
AcDbHatch
 10
0.0
 20
0.0
 30
0.0
210
0.0
220
0.0
230
1.0
  2
SOLID
 70
1
 71
0
 91
1
 92
3
 72
0
 73
1
 93
3
 10
2354.0
 20
1770.0
 10
2294.0
 20
1788.0
 10
2294.0
 20
1752.0
 97
0
 75
1
 76
1
 98
0
  0
LWPOLYLINE
  5
B4
330
17
100
AcDbEntity
  8
CHM-EJES
420
13117480
100
AcDbPolyline
 90
2
 70
0
 10
2294.0
 20
1770.0
 10
2314.0
 20
1770.0
  0
TEXT
  5
B5
330
17
100
AcDbEntity
  8
CHM-TEXTO
420
13117480
100
AcDbText
 10
2374.0
 20
1770.0
 30
0.0
 40
55.00000000000001
  1
X
 11
2374.0
 21
1770.0
 31
0.0
100
AcDbText
 73
2
  0
LWPOLYLINE
  5
B6
330
17
100
AcDbEntity
  8
CHM-EJES
  6
CENTER
420
2657340
100
AcDbPolyline
 90
2
 70
0
 10
454.0
 20
0.0
 10
454.0
 20
2280.0
  0
HATCH
  5
B7
330
17
100
AcDbEntity
  8
CHM-EJES
 62
7
420
2657340
100
AcDbHatch
 10
0.0
 20
0.0
 30
0.0
210
0.0
220
0.0
230
1.0
  2
SOLID
 70
1
 71
0
 91
1
 92
3
 72
0
 73
1
 93
3
 10
454.0
 20
2340.0
 10
436.0
 20
2280.0
 10
472.0
 20
2280.0
 97
0
 75
1
 76
1
 98
0
  0
TEXT
  5
B8
330
17
100
AcDbEntity
  8
CHM-TEXTO
420
2657340
100
AcDbText
 10
454.0
 20
2355.0
 30
0.0
 40
55.00000000000001
  1
Y
 72
1
 11
454.0
 21
2355.0
 31
0.0
100
AcDbText
 73
1
  0
HATCH
  5
B9
330
17
100
AcDbEntity
  8
CHM-EJES
 62
7
420
16777215
100
AcDbHatch
 10
0.0
 20
0.0
 30
0.0
210
0.0
220
0.0
230
1.0
  2
SOLID
 70
1
 71
0
 91
1
 92
1
 93
1
 72
2
 10
454.0
 20
1770.0
 40
16.0
 50
0
 51
360
 73
1
 97
0
 75
1
 76
1
 98
0
  0
CIRCLE
  5
BA
330
17
100
AcDbEntity
  8
CHM-EJES
420
1973790
100
AcDbCircle
 10
454.0
 20
1770.0
 30
0.0
 40
16.0
  0
TEXT
  5
BB
330
17
100
AcDbEntity
  8
CHM-TEXTO
100
AcDbText
 10
491.5
 20
1742.5
 30
0.0
 40
50.0
  1
O (0, 0)
 11
491.5
 21
1742.5
 31
0.0
100
AcDbText
 73
3
  0
LWPOLYLINE
  5
BC
330
17
100
AcDbEntity
  8
CHM-COTAS
100
AcDbPolyline
 90
2
 70
0
 10
454.0
 20
1785.0
 10
454.0
 20
2182.5
  0
LWPOLYLINE
  5
BD
330
17
100
AcDbEntity
  8
CHM-COTAS
100
AcDbPolyline
 90
2
 70
0
 10
1834.0
 20
1785.0
 10
1834.0
 20
2182.5
  0
LWPOLYLINE
  5
BE
330
17
100
AcDbEntity
  8
CHM-COTAS
100
AcDbPolyline
 90
2
 70
0
 10
454.0
 20
2160.0
 10
1834.0
 20
2160.0
  0
LWPOLYLINE
  5
BF
330
17
100
AcDbEntity
  8
CHM-COTAS
370
35
100
AcDbPolyline
 90
2
 70
0
 10
439.1507575950825
 20
2145.1507575950827
 10
468.8492424049175
 20
2174.8492424049173
  0
LWPOLYLINE
  5
C0
330
17
100
AcDbEntity
  8
CHM-COTAS
370
35
100
AcDbPolyline
 90
2
 70
0
 10
1819.1507575950825
 20
2145.1507575950827
 10
1848.8492424049175
 20
2174.8492424049173
  0
TEXT
  5
C1
330
17
100
AcDbEntity
  8
CHM-COTAS
100
AcDbText
 10
1144.0
 20
2174.0
 30
0.0
 40
50.0
  1
1380
 72
1
 11
1144.0
 21
2174.0
 31
0.0
100
AcDbText
 73
1
  0
LWPOLYLINE
  5
C2
330
17
100
AcDbEntity
  8
CHM-COTAS
100
AcDbPolyline
 90
2
 70
0
 10
439.0
 20
1770.0
 10
41.5
 20
1770.0
  0
LWPOLYLINE
  5
C3
330
17
100
AcDbEntity
  8
CHM-COTAS
100
AcDbPolyline
 90
2
 70
0
 10
439.0
 20
350.0
 10
41.5
 20
350.0
  0
LWPOLYLINE
  5
C4
330
17
100
AcDbEntity
  8
CHM-COTAS
100
AcDbPolyline
 90
2
 70
0
 10
64.0
 20
1770.0
 10
64.0
 20
350.0
  0
LWPOLYLINE
  5
C5
330
17
100
AcDbEntity
  8
CHM-COTAS
370
35
100
AcDbPolyline
 90
2
 70
0
 10
49.150757595082496
 20
1784.8492424049175
 10
78.8492424049175
 20
1755.1507575950825
  0
LWPOLYLINE
  5
C6
330
17
100
AcDbEntity
  8
CHM-COTAS
370
35
100
AcDbPolyline
 90
2
 70
0
 10
49.150757595082496
 20
364.8492424049175
 10
78.8492424049175
 20
335.1507575950825
  0
TEXT
  5
C7
330
17
100
AcDbEntity
  8
CHM-COTAS
100
AcDbText
 10
50.0
 20
1060.0
 30
0.0
 40
50.0
  1
1420
 50
90.0
 72
1
 11
50.0
 21
1060.0
 31
0.0
100
AcDbText
 73
1
  0
LWPOLYLINE
  5
C8
330
17
100
AcDbEntity
  8
CHM-COTAS
100
AcDbPolyline
 90
2
 70
0
 10
454.0
 20
335.0
 10
454.0
 20
137.5
  0
LWPOLYLINE
  5
C9
330
17
100
AcDbEntity
  8
CHM-COTAS
100
AcDbPolyline
 90
2
 70
0
 10
1114.0
 20
335.0
 10
1114.0
 20
137.5
  0
LWPOLYLINE
  5
CA
330
17
100
AcDbEntity
  8
CHM-COTAS
100
AcDbPolyline
 90
2
 70
0
 10
454.0
 20
160.0
 10
1114.0
 20
160.0
  0
LWPOLYLINE
  5
CB
330
17
100
AcDbEntity
  8
CHM-COTAS
370
35
100
AcDbPolyline
 90
2
 70
0
 10
439.1507575950825
 20
145.1507575950825
 10
468.8492424049175
 20
174.8492424049175
  0
LWPOLYLINE
  5
CC
330
17
100
AcDbEntity
  8
CHM-COTAS
370
35
100
AcDbPolyline
 90
2
 70
0
 10
1099.1507575950825
 20
145.1507575950825
 10
1128.8492424049175
 20
174.8492424049175
  0
TEXT
  5
CD
330
17
100
AcDbEntity
  8
CHM-COTAS
100
AcDbText
 10
784.0
 20
174.0
 30
0.0
 40
50.0
  1
660
 72
1
 11
784.0
 21
174.0
 31
0.0
100
AcDbText
 73
1
  0
LWPOLYLINE
  5
CE
330
17
100
AcDbEntity
  8
CHM-COTAS
100
AcDbPolyline
 90
2
 70
0
 10
1114.0
 20
335.0
 10
1114.0
 20
137.5
  0
LWPOLYLINE
  5
CF
330
17
100
AcDbEntity
  8
CHM-COTAS
100
AcDbPolyline
 90
2
 70
0
 10
1834.0
 20
335.0
 10
1834.0
 20
137.5
  0
LWPOLYLINE
  5
D0
330
17
100
AcDbEntity
  8
CHM-COTAS
100
AcDbPolyline
 90
2
 70
0
 10
1114.0
 20
160.0
 10
1834.0
 20
160.0
  0
LWPOLYLINE
  5
D1
330
17
100
AcDbEntity
  8
CHM-COTAS
370
35
100
AcDbPolyline
 90
2
 70
0
 10
1099.1507575950825
 20
145.1507575950825
 10
1128.8492424049175
 20
174.8492424049175
  0
LWPOLYLINE
  5
D2
330
17
100
AcDbEntity
  8
CHM-COTAS
370
35
100
AcDbPolyline
 90
2
 70
0
 10
1819.1507575950825
 20
145.1507575950825
 10
1848.8492424049175
 20
174.8492424049175
  0
TEXT
  5
D3
330
17
100
AcDbEntity
  8
CHM-COTAS
100
AcDbText
 10
1474.0
 20
174.0
 30
0.0
 40
50.0
  1
720
 72
1
 11
1474.0
 21
174.0
 31
0.0
100
AcDbText
 73
1
  0
LWPOLYLINE
  5
D4
330
17
100
AcDbEntity
  8
CHM-COTAS
100
AcDbPolyline
 90
2
 70
0
 10
1849.0
 20
1770.0
 10
2046.5
 20
1770.0
  0
LWPOLYLINE
  5
D5
330
17
100
AcDbEntity
  8
CHM-COTAS
100
AcDbPolyline
 90
2
 70
0
 10
1849.0
 20
1270.0
 10
2046.5
 20
1270.0
  0
LWPOLYLINE
  5
D6
330
17
100
AcDbEntity
  8
CHM-COTAS
100
AcDbPolyline
 90
2
 70
0
 10
2024.0
 20
1770.0
 10
2024.0
 20
1270.0
  0
LWPOLYLINE
  5
D7
330
17
100
AcDbEntity
  8
CHM-COTAS
370
35
100
AcDbPolyline
 90
2
 70
0
 10
2009.1507575950825
 20
1784.8492424049175
 10
2038.8492424049175
 20
1755.1507575950825
  0
LWPOLYLINE
  5
D8
330
17
100
AcDbEntity
  8
CHM-COTAS
370
35
100
AcDbPolyline
 90
2
 70
0
 10
2009.1507575950825
 20
1284.8492424049175
 10
2038.8492424049175
 20
1255.1507575950825
  0
TEXT
  5
D9
330
17
100
AcDbEntity
  8
CHM-COTAS
100
AcDbText
 10
2010.0
 20
1520.0
 30
0.0
 40
50.0
  1
500
 50
90.0
 72
1
 11
2010.0
 21
1520.0
 31
0.0
100
AcDbText
 73
1
  0
LWPOLYLINE
  5
DA
330
17
100
AcDbEntity
  8
CHM-COTAS
100
AcDbPolyline
 90
2
 70
0
 10
1849.0
 20
1270.0
 10
2046.5
 20
1270.0
  0
LWPOLYLINE
  5
DB
330
17
100
AcDbEntity
  8
CHM-COTAS
100
AcDbPolyline
 90
2
 70
0
 10
1849.0
 20
350.0
 10
2046.5
 20
350.0
  0
LWPOLYLINE
  5
DC
330
17
100
AcDbEntity
  8
CHM-COTAS
100
AcDbPolyline
 90
2
 70
0
 10
2024.0
 20
1270.0
 10
2024.0
 20
350.0
  0
LWPOLYLINE
  5
DD
330
17
100
AcDbEntity
  8
CHM-COTAS
370
35
100
AcDbPolyline
 90
2
 70
0
 10
2009.1507575950825
 20
1284.8492424049175
 10
2038.8492424049175
 20
1255.1507575950825
  0
LWPOLYLINE
  5
DE
330
17
100
AcDbEntity
  8
CHM-COTAS
370
35
100
AcDbPolyline
 90
2
 70
0
 10
2009.1507575950825
 20
364.8492424049175
 10
2038.8492424049175
 20
335.1507575950825
  0
TEXT
  5
DF
330
17
100
AcDbEntity
  8
CHM-COTAS
100
AcDbText
 10
2010.0
 20
810.0
 30
0.0
 40
50.0
  1
920
 50
90.0
 72
1
 11
2010.0
 21
810.0
 31
0.0
100
AcDbText
 73
1
  0
LWPOLYLINE
  5
E0
330
17
100
AcDbEntity
  8
CHM-COTAS
100
AcDbPolyline
 90
2
 70
0
 10
454.0
 20
335.0
 10
454.0
 20
232.5
  0
LWPOLYLINE
  5
E1
330
17
100
AcDbEntity
  8
CHM-COTAS
100
AcDbPolyline
 90
2
 70
0
 10
513.0
 20
335.0
 10
513.0
 20
232.5
  0
LWPOLYLINE
  5
E2
330
17
100
AcDbEntity
  8
CHM-COTAS
100
AcDbPolyline
 90
2
 70
0
 10
454.0
 20
255.0
 10
513.0
 20
255.0
  0
LWPOLYLINE
  5
E3
330
17
100
AcDbEntity
  8
CHM-COTAS
370
35
100
AcDbPolyline
 90
2
 70
0
 10
446.22182540694797
 20
247.22182540694803
 10
461.77817459305203
 20
262.778174593052
  0
LWPOLYLINE
  5
E4
330
17
100
AcDbEntity
  8
CHM-COTAS
370
35
100
AcDbPolyline
 90
2
 70
0
 10
505.22182540694797
 20
247.22182540694803
 10
520.778174593052
 20
262.778174593052
  0
TEXT
  5
E5
330
17
100
AcDbEntity
  8
CHM-COTAS
100
AcDbText
 10
700.2011173184358
 20
269.0
 30
0.0
 40
50.0
  1
59 (2,39°)
 72
1
 11
700.2011173184358
 21
269.0
 31
0.0
100
AcDbText
 73
1
  0
LWPOLYLINE
  5
E6
330
17
100
AcDbEntity
  8
CHM-COTAS
100
AcDbPolyline
 90
2
 70
0
 10
757.6
 20
350.0
 10
757.6
 20
375.0
  0
LWPOLYLINE
  5
E7
330
17
100
AcDbEntity
  8
CHM-COTAS
370
35
100
AcDbPolyline
 90
2
 70
0
 10
765.3781745930521
 20
342.221825406948
 10
749.8218254069479
 20
357.778174593052
  0
LWPOLYLINE
  5
E8
330
17
100
AcDbEntity
  8
CHM-COTAS
370
35
100
AcDbPolyline
 90
2
 70
0
 10
765.3781745930521
 20
367.221825406948
 10
749.8218254069479
 20
382.778174593052
  0
TEXT
  5
E9
330
17
100
AcDbEntity
  8
CHM-COTAS
100
AcDbText
 10
743.6
 20
447.3268156424581
 30
0.0
 40
50.0
  1
25
 50
90.0
 72
1
 11
743.6
 21
447.3268156424581
 31
0.0
100
AcDbText
 73
1
  0
ARC
  5
EA
330
17
100
AcDbEntity
  8
CHM-COTAS
100
AcDbCircle
 10
1114.0
 20
350.0
 30
0.0
 40
300.0
100
AcDbArc
 50
0.0
 51
51.95295746817391
  0
LWPOLYLINE
  5
EB
330
17
100
AcDbEntity
  8
CHM-COTAS
100
AcDbPolyline
 90
2
 70
0
 10
1394.0
 20
350.0
 10
1439.0
 20
350.0
  0
LWPOLYLINE
  5
EC
330
17
100
AcDbEntity
  8
CHM-COTAS
100
AcDbPolyline
 90
2
 70
0
 10
1286.566313264271
 20
570.501400282124
 10
1314.300185038886
 20
605.9391253274653
  0
TEXT
  5
ED
330
17
100
AcDbEntity
  8
CHM-COTAS
100
AcDbText
 10
1412.9088324664726
 20
495.6357094724033
 30
0.0
 40
50.0
  1
51,95°
 11
1412.9088324664726
 21
495.6357094724033
 31
0.0
100
AcDbText
 73
2
  0
LWPOLYLINE
  5
EE
330
17
100
AcDbEntity
  8
CHM-COTAS
100
AcDbPolyline
 90
2
 70
0
 10
1102.187424984886
 20
359.2446239248716
 10
674.9659619382709
 20
693.5918558743967
  0
LWPOLYLINE
  5
EF
330
17
100
AcDbEntity
  8
CHM-COTAS
100
AcDbPolyline
 90
2
 70
0
 10
845.8791633267756
 20
761.8937162427975
 10
773.0349507335739
 20
818.9022304461727
  0
LWPOLYLINE
  5
F0
330
17
100
AcDbEntity
  8
CHM-COTAS
100
AcDbPolyline
 90
2
 70
0
 10
692.6848244609416
 20
679.7249199870892
 10
790.7538132562445
 20
805.0352945588652
  0
LWPOLYLINE
  5
F1
330
17
100
AcDbEntity
  8
CHM-COTAS
370
35
100
AcDbPolyline
 90
2
 70
0
 10
695.2269663424734
 20
658.8793565585281
 10
690.1426825794097
 20
700.5704834156502
  0
LWPOLYLINE
  5
F2
330
17
100
AcDbEntity
  8
CHM-COTAS
370
35
100
AcDbPolyline
 90
2
 70
0
 10
793.2959551377764
 20
784.1897311303042
 10
788.2116713747128
 20
825.8808579874262
  0
TEXT
  5
F3
330
17
100
AcDbEntity
  8
CHM-COTAS
100
AcDbText
 10
730.6942488444869
 20
751.0084229361906
 30
0.0
 40
50.0
  1
159
 50
51.95295746817392
 72
1
 11
730.6942488444869
 21
751.0084229361906
 31
0.0
100
AcDbText
 73
1
  0
LWPOLYLINE
  5
F4
330
17
100
AcDbEntity
  8
CHM-COTAS
100
AcDbPolyline
 90
2
 70
0
 10
845.8791633267756
 20
761.8937162427975
 10
773.0349507335739
 20
818.9022304461727
  0
LWPOLYLINE
  5
F5
330
17
100
AcDbEntity
  8
CHM-COTAS
100
AcDbPolyline
 90
2
 70
0
 10
1369.7411857361694
 20
1431.2729670992453
 10
1296.896973142968
 20
1488.2814813026207
  0
LWPOLYLINE
  5
F6
330
17
100
AcDbEntity
  8
CHM-COTAS
100
AcDbPolyline
 90
2
 70
0
 10
790.7538132562445
 20
805.0352945588652
 10
1314.6158356656385
 20
1474.4145454153131
  0
LWPOLYLINE
  5
F7
330
17
100
AcDbEntity
  8
CHM-COTAS
370
35
100
AcDbPolyline
 90
2
 70
0
 10
793.2959551377764
 20
784.1897311303042
 10
788.2116713747128
 20
825.8808579874262
  0
LWPOLYLINE
  5
F8
330
17
100
AcDbEntity
  8
CHM-COTAS
370
35
100
AcDbPolyline
 90
2
 70
0
 10
1317.1579775471705
 20
1453.568981986752
 10
1312.0736937841066
 20
1495.2601088438741
  0
TEXT
  5
F9
330
17
100
AcDbEntity
  8
CHM-COTAS
100
AcDbText
 10
1041.6597544468354
 20
1148.3532356503028
 30
0.0
 40
50.0
  1
850
 50
51.95295746817391
 72
1
 11
1041.6597544468354
 21
1148.3532356503028
 31
0.0
100
AcDbText
 73
1
  0
LWPOLYLINE
  5
FA
330
17
100
AcDbEntity
  8
CHM-COTAS
100
AcDbPolyline
 90
2
 70
0
 10
1369.7411857361694
 20
1431.2729670992453
 10
1296.896973142968
 20
1488.2814813026207
  0
LWPOLYLINE
  5
FB
330
17
100
AcDbEntity
  8
CHM-COTAS
100
AcDbPolyline
 90
2
 70
0
 10
1822.1874249848863
 20
1279.2446239248716
 10
1394.965961938271
 20
1613.5918558743965
  0
LWPOLYLINE
  5
FC
330
17
100
AcDbEntity
  8
CHM-COTAS
100
AcDbPolyline
 90
2
 70
0
 10
1314.6158356656385
 20
1474.4145454153131
 10
1412.6848244609416
 20
1599.7249199870892
  0
LWPOLYLINE
  5
FD
330
17
100
AcDbEntity
  8
CHM-COTAS
370
35
100
AcDbPolyline
 90
2
 70
0
 10
1317.1579775471705
 20
1453.568981986752
 10
1312.0736937841066
 20
1495.2601088438741
  0
LWPOLYLINE
  5
FE
330
17
100
AcDbEntity
  8
CHM-COTAS
370
35
100
AcDbPolyline
 90
2
 70
0
 10
1415.2269663424736
 20
1578.8793565585281
 10
1410.1426825794097
 20
1620.5704834156502
  0
TEXT
  5
FF
330
17
100
AcDbEntity
  8
CHM-COTAS
100
AcDbText
 10
1352.625260049184
 20
1545.6980483644147
 30
0.0
 40
50.0
  1
159
 50
51.95295746817389
 72
1
 11
1352.625260049184
 21
1545.6980483644147
 31
0.0
100
AcDbText
 73
1
  0
LWPOLYLINE
  5
100
330
17
100
AcDbEntity
  8
CHM-COTAS
100
AcDbPolyline
 90
2
 70
0
 10
1102.187424984886
 20
359.2446239248716
 10
560.777736792171
 20
782.9565538148227
  0
LWPOLYLINE
  5
101
330
17
100
AcDbEntity
  8
CHM-COTAS
100
AcDbPolyline
 90
2
 70
0
 10
1822.1874249848863
 20
1279.2446239248716
 10
1280.777736792171
 20
1702.9565538148227
  0
LWPOLYLINE
  5
102
330
17
100
AcDbEntity
  8
CHM-COTAS
100
AcDbPolyline
 90
2
 70
0
 10
578.4965993148417
 20
769.0896179275152
 10
1298.4965993148417
 20
1689.089617927515
  0
LWPOLYLINE
  5
103
330
17
100
AcDbEntity
  8
CHM-COTAS
370
35
100
AcDbPolyline
 90
2
 70
0
 10
581.0387411963735
 20
748.2440544989541
 10
575.9544574333098
 20
789.9351813560762
  0
LWPOLYLINE
  5
104
330
17
100
AcDbEntity
  8
CHM-COTAS
370
35
100
AcDbPolyline
 90
2
 70
0
 10
1301.0387411963734
 20
1668.244054498954
 10
1295.95445743331
 20
1709.9351813560763
  0
TEXT
  5
105
330
17
100
AcDbEntity
  8
CHM-COTAS
100
AcDbText
 10
927.4715293007355
 20
1237.7179335907288
 30
0.0
 40
50.0
  1
1168,25
 50
51.95295746817391
 72
1
 11
927.4715293007355
 21
1237.7179335907288
 31
0.0
100
AcDbText
 73
1
  0
TEXT
  5
106
330
17
100
AcDbEntity
  8
CHM-TEXTO
100
AcDbText
 10
-7.105427357601002e-15
 20
-250.0
 30
0.0
 40
95.0
  1
PLANTA
 11
-7.105427357601002e-15
 21
-250.0
 31
0.0
100
AcDbText
 73
1
  0
TEXT
  5
107
330
17
100
AcDbEntity
  8
CHM-TEXTO
100
AcDbText
 10
-7.105427357601002e-15
 20
-370.0
 30
0.0
 40
42.5
  1
corte horizontal a 1200 mm sobre el nivel (Ref. Level); el hogar (400–1000) queda bajo el corte
 11
-7.105427357601002e-15
 21
-370.0
 31
0.0
100
AcDbText
 73
1
  0
HATCH
  5
108
330
17
100
AcDbEntity
  8
CHM-RAYADOS
 62
7
420
7237230
100
AcDbHatch
 10
0.0
 20
0.0
 30
0.0
210
0.0
220
0.0
230
1.0
  2
ANSI31
 70
0
 71
0
 91
1
 92
3
 72
0
 73
1
 93
4
 10
3646.091480446928
 20
337.5
 10
5114.338029767747
 20
337.5
 10
5114.338029767747
 20
392.5
 10
3646.091480446928
 20
392.5
 97
0
 75
1
 76
1
 52
0.0
 41
10.0
 77
0
 78
1
 53
45.0
 43
0.0
 44
0.0
 45
-22.450640303
 46
22.450640303
 79
0
 98
0
  0
HATCH
  5
109
330
17
100
AcDbEntity
  8
CHM-RAYADOS
 62
7
420
14999768
100
AcDbHatch
 10
0.0
 20
0.0
 30
0.0
210
0.0
220
0.0
230
1.0
  2
SOLID
 70
1
 71
0
 91
1
 92
3
 72
0
 73
1
 93
4
 10
3796.091480446928
 20
452.5
 10
4964.338029767747
 20
452.5
 10
4964.338029767747
 20
2992.5
 10
3796.091480446928
 20
2992.5
 97
0
 75
1
 76
1
 98
0
  0
HATCH
  5
10A
330
17
100
AcDbEntity
  8
CHM-ZOCALO
 62
7
420
9867914
100
AcDbHatch
 10
0.0
 20
0.0
 30
0.0
210
0.0
220
0.0
230
1.0
  2
SOLID
 70
1
 71
0
 91
1
 92
3
 72
0
 73
1
 93
4
 10
3808.272093200211
 20
392.5
 10
4955.718357916329
 20
392.5
 10
4955.718357916329
 20
452.5
 10
3808.272093200211
 20
452.5
 97
0
 75
1
 76
1
 98
0
  0
LWPOLYLINE
  5
10B
330
17
100
AcDbEntity
  8
CHM-ZOCALO
100
AcDbPolyline
 90
4
 70
1
 10
3808.272093200211
 20
392.5
 10
4955.718357916329
 20
392.5
 10
4955.718357916329
 20
452.5
 10
3808.272093200211
 20
452.5
  0
LWPOLYLINE
  5
10C
330
17
100
AcDbEntity
  8
CHM-PERFIL
100
AcDbPolyline
 90
4
 70
1
 10
3796.091480446928
 20
452.5
 10
4964.338029767747
 20
452.5
 10
4964.338029767747
 20
2992.5
 10
3796.091480446928
 20
2992.5
  0
LWPOLYLINE
  5
10D
330
17
100
AcDbEntity
  8
CHM-PERFIL
100
AcDbPolyline
 90
2
 70
0
 10
3646.091480446928
 20
392.5
 10
5114.338029767747
 20
392.5
  0
HATCH
  5
10E
330
17
100
AcDbEntity
  8
CHM-HOGAR
 62
7
420
3815996
100
AcDbHatch
 10
0.0
 20
0.0
 30
0.0
210
0.0
220
0.0
230
1.0
  2
SOLID
 70
1
 71
0
 91
1
 92
3
 72
0
 73
1
 93
4
 10
3975.2147551073376
 20
812.5
 10
4785.214755107338
 20
812.5
 10
4785.214755107338
 20
1372.5
 10
3975.2147551073376
 20
1372.5
 97
0
 75
1
 76
1
 98
0
  0
HATCH
  5
10F
330
17
100
AcDbEntity
  8
CHM-MARCO
 62
7
420
921102
100
AcDbHatch
 10
0.0
 20
0.0
 30
0.0
210
0.0
220
0.0
230
1.0
  2
SOLID
 70
1
 71
0
 91
2
 92
3
 72
0
 73
1
 93
4
 10
3955.2147551073376
 20
792.5
 10
4805.214755107338
 20
792.5
 10
4805.214755107338
 20
1392.5
 10
3955.2147551073376
 20
1392.5
 97
0
 92
18
 72
0
 73
1
 93
4
 10
3975.2147551073376
 20
812.5
 10
4785.214755107338
 20
812.5
 10
4785.214755107338
 20
1372.5
 10
3975.2147551073376
 20
1372.5
 97
0
 75
1
 76
1
 98
0
  0
LWPOLYLINE
  5
110
330
17
100
AcDbEntity
  8
CHM-HOGAR
100
AcDbPolyline
 90
4
 70
1
 10
3955.2147551073376
 20
792.5
 10
4805.214755107338
 20
792.5
 10
4805.214755107338
 20
1392.5
 10
3955.2147551073376
 20
1392.5
  0
LWPOLYLINE
  5
111
330
17
100
AcDbEntity
  8
CHM-VIDRIO
100
AcDbPolyline
 90
4
 70
1
 10
3975.2147551073376
 20
812.5
 10
4785.214755107338
 20
812.5
 10
4785.214755107338
 20
1372.5
 10
3975.2147551073376
 20
1372.5
  0
LWPOLYLINE
  5
112
330
17
100
AcDbEntity
  8
CHM-VIDRIO
370
18
100
AcDbPolyline
 90
2
 70
0
 10
4104.814755107337
 20
812.5
 10
4284.014755107338
 20
1372.5
  0
LWPOLYLINE
  5
113
330
17
100
AcDbEntity
  8
CHM-VIDRIO
370
18
100
AcDbPolyline
 90
2
 70
0
 10
4161.514755107338
 20
812.5
 10
4340.714755107338
 20
1372.5
  0
LWPOLYLINE
  5
114
330
17
100
AcDbEntity
  8
CHM-COTAS
100
AcDbPolyline
 90
2
 70
0
 10
3781.091480446928
 20
392.5
 10
3583.591480446928
 20
392.5
  0
LWPOLYLINE
  5
115
330
17
100
AcDbEntity
  8
CHM-COTAS
100
AcDbPolyline
 90
2
 70
0
 10
3940.2147551073376
 20
792.5
 10
3583.591480446928
 20
792.5
  0
LWPOLYLINE
  5
116
330
17
100
AcDbEntity
  8
CHM-COTAS
100
AcDbPolyline
 90
2
 70
0
 10
3606.091480446928
 20
392.5
 10
3606.091480446928
 20
792.5
  0
LWPOLYLINE
  5
117
330
17
100
AcDbEntity
  8
CHM-COTAS
370
35
100
AcDbPolyline
 90
2
 70
0
 10
3620.9407228518457
 20
377.6507575950825
 10
3591.2422380420103
 20
407.3492424049175
  0
LWPOLYLINE
  5
118
330
17
100
AcDbEntity
  8
CHM-COTAS
370
35
100
AcDbPolyline
 90
2
 70
0
 10
3620.9407228518457
 20
777.6507575950825
 10
3591.2422380420103
 20
807.3492424049175
  0
TEXT
  5
119
330
17
100
AcDbEntity
  8
CHM-COTAS
100
AcDbText
 10
3592.091480446928
 20
592.5
 30
0.0
 40
50.0
  1
400
 50
90.0
 72
1
 11
3592.091480446928
 21
592.5
 31
0.0
100
AcDbText
 73
1
  0
LWPOLYLINE
  5
11A
330
17
100
AcDbEntity
  8
CHM-COTAS
100
AcDbPolyline
 90
2
 70
0
 10
3940.2147551073376
 20
792.5
 10
3583.591480446928
 20
792.5
  0
LWPOLYLINE
  5
11B
330
17
100
AcDbEntity
  8
CHM-COTAS
100
AcDbPolyline
 90
2
 70
0
 10
3940.2147551073376
 20
1392.5
 10
3583.591480446928
 20
1392.5
  0
LWPOLYLINE
  5
11C
330
17
100
AcDbEntity
  8
CHM-COTAS
100
AcDbPolyline
 90
2
 70
0
 10
3606.091480446928
 20
792.5
 10
3606.091480446928
 20
1392.5
  0
LWPOLYLINE
  5
11D
330
17
100
AcDbEntity
  8
CHM-COTAS
370
35
100
AcDbPolyline
 90
2
 70
0
 10
3620.9407228518457
 20
777.6507575950825
 10
3591.2422380420103
 20
807.3492424049175
  0
LWPOLYLINE
  5
11E
330
17
100
AcDbEntity
  8
CHM-COTAS
370
35
100
AcDbPolyline
 90
2
 70
0
 10
3620.9407228518457
 20
1377.6507575950825
 10
3591.2422380420103
 20
1407.3492424049175
  0
TEXT
  5
11F
330
17
100
AcDbEntity
  8
CHM-COTAS
100
AcDbText
 10
3592.091480446928
 20
1092.5
 30
0.0
 40
50.0
  1
600
 50
90.0
 72
1
 11
3592.091480446928
 21
1092.5
 31
0.0
100
AcDbText
 73
1
  0
LWPOLYLINE
  5
120
330
17
100
AcDbEntity
  8
CHM-COTAS
100
AcDbPolyline
 90
2
 70
0
 10
3940.2147551073376
 20
1392.5
 10
3583.591480446928
 20
1392.5
  0
LWPOLYLINE
  5
121
330
17
100
AcDbEntity
  8
CHM-COTAS
100
AcDbPolyline
 90
2
 70
0
 10
3781.091480446928
 20
2992.5
 10
3583.591480446928
 20
2992.5
  0
LWPOLYLINE
  5
122
330
17
100
AcDbEntity
  8
CHM-COTAS
100
AcDbPolyline
 90
2
 70
0
 10
3606.091480446928
 20
1392.5
 10
3606.091480446928
 20
2992.5
  0
LWPOLYLINE
  5
123
330
17
100
AcDbEntity
  8
CHM-COTAS
370
35
100
AcDbPolyline
 90
2
 70
0
 10
3620.9407228518457
 20
1377.6507575950825
 10
3591.2422380420103
 20
1407.3492424049175
  0
LWPOLYLINE
  5
124
330
17
100
AcDbEntity
  8
CHM-COTAS
370
35
100
AcDbPolyline
 90
2
 70
0
 10
3620.9407228518457
 20
2977.6507575950827
 10
3591.2422380420103
 20
3007.3492424049173
  0
TEXT
  5
125
330
17
100
AcDbEntity
  8
CHM-COTAS
100
AcDbText
 10
3592.091480446928
 20
2192.5
 30
0.0
 40
50.0
  1
1600
 50
90.0
 72
1
 11
3592.091480446928
 21
2192.5
 31
0.0
100
AcDbText
 73
1
  0
LWPOLYLINE
  5
126
330
17
100
AcDbEntity
  8
CHM-COTAS
100
AcDbPolyline
 90
2
 70
0
 10
3781.091480446928
 20
392.5
 10
3403.591480446928
 20
392.5
  0
LWPOLYLINE
  5
127
330
17
100
AcDbEntity
  8
CHM-COTAS
100
AcDbPolyline
 90
2
 70
0
 10
3781.091480446928
 20
2992.5
 10
3403.591480446928
 20
2992.5
  0
LWPOLYLINE
  5
128
330
17
100
AcDbEntity
  8
CHM-COTAS
100
AcDbPolyline
 90
2
 70
0
 10
3426.091480446928
 20
392.5
 10
3426.091480446928
 20
2992.5
  0
LWPOLYLINE
  5
129
330
17
100
AcDbEntity
  8
CHM-COTAS
370
35
100
AcDbPolyline
 90
2
 70
0
 10
3440.9407228518457
 20
377.6507575950825
 10
3411.2422380420103
 20
407.3492424049175
  0
LWPOLYLINE
  5
12A
330
17
100
AcDbEntity
  8
CHM-COTAS
370
35
100
AcDbPolyline
 90
2
 70
0
 10
3440.9407228518457
 20
2977.6507575950827
 10
3411.2422380420103
 20
3007.3492424049173
  0
TEXT
  5
12B
330
17
100
AcDbEntity
  8
CHM-COTAS
100
AcDbText
 10
3412.091480446928
 20
1692.5
 30
0.0
 40
50.0
  1
2600
 50
90.0
 72
1
 11
3412.091480446928
 21
1692.5
 31
0.0
100
AcDbText
 73
1
  0
LWPOLYLINE
  5
12C
330
17
100
AcDbEntity
  8
CHM-COTAS
100
AcDbPolyline
 90
2
 70
0
 10
4979.338029767747
 20
392.5
 10
5176.838029767747
 20
392.5
  0
LWPOLYLINE
  5
12D
330
17
100
AcDbEntity
  8
CHM-COTAS
100
AcDbPolyline
 90
2
 70
0
 10
4979.338029767747
 20
452.5
 10
5176.838029767747
 20
452.5
  0
LWPOLYLINE
  5
12E
330
17
100
AcDbEntity
  8
CHM-COTAS
100
AcDbPolyline
 90
2
 70
0
 10
5154.338029767747
 20
392.5
 10
5154.338029767747
 20
452.5
  0
LWPOLYLINE
  5
12F
330
17
100
AcDbEntity
  8
CHM-COTAS
370
35
100
AcDbPolyline
 90
2
 70
0
 10
5162.116204360798
 20
384.72182540694797
 10
5146.559855174695
 20
400.27817459305203
  0
LWPOLYLINE
  5
130
330
17
100
AcDbEntity
  8
CHM-COTAS
370
35
100
AcDbPolyline
 90
2
 70
0
 10
5162.116204360798
 20
444.72182540694797
 10
5146.559855174695
 20
460.27817459305203
  0
TEXT
  5
131
330
17
100
AcDbEntity
  8
CHM-COTAS
100
AcDbText
 10
5140.338029767747
 20
320.1731843575419
 30
0.0
 40
50.0
  1
60
 50
90.0
 72
1
 11
5140.338029767747
 21
320.1731843575419
 31
0.0
100
AcDbText
 73
1
  0
LWPOLYLINE
  5
132
330
17
100
AcDbEntity
  8
CHM-COTAS
100
AcDbPolyline
 90
2
 70
0
 10
4979.338029767747
 20
452.5
 10
5176.838029767747
 20
452.5
  0
LWPOLYLINE
  5
133
330
17
100
AcDbEntity
  8
CHM-COTAS
100
AcDbPolyline
 90
2
 70
0
 10
4979.338029767747
 20
2992.5
 10
5176.838029767747
 20
2992.5
  0
LWPOLYLINE
  5
134
330
17
100
AcDbEntity
  8
CHM-COTAS
100
AcDbPolyline
 90
2
 70
0
 10
5154.338029767747
 20
452.5
 10
5154.338029767747
 20
2992.5
  0
LWPOLYLINE
  5
135
330
17
100
AcDbEntity
  8
CHM-COTAS
370
35
100
AcDbPolyline
 90
2
 70
0
 10
5169.187272172664
 20
437.6507575950825
 10
5139.4887873628295
 20
467.3492424049175
  0
LWPOLYLINE
  5
136
330
17
100
AcDbEntity
  8
CHM-COTAS
370
35
100
AcDbPolyline
 90
2
 70
0
 10
5169.187272172664
 20
2977.6507575950827
 10
5139.4887873628295
 20
3007.3492424049173
  0
TEXT
  5
137
330
17
100
AcDbEntity
  8
CHM-COTAS
100
AcDbText
 10
5140.338029767747
 20
1722.5
 30
0.0
 40
50.0
  1
2540
 50
90.0
 72
1
 11
5140.338029767747
 21
1722.5
 31
0.0
100
AcDbText
 73
1
  0
LWPOLYLINE
  5
138
330
17
100
AcDbEntity
  8
CHM-COTAS
100
AcDbPolyline
 90
2
 70
0
 10
3796.091480446928
 20
437.5
 10
3796.091480446928
 20
180.0
  0
LWPOLYLINE
  5
139
330
17
100
AcDbEntity
  8
CHM-COTAS
100
AcDbPolyline
 90
2
 70
0
 10
3955.2147551073376
 20
777.5
 10
3955.2147551073376
 20
180.0
  0
LWPOLYLINE
  5
13A
330
17
100
AcDbEntity
  8
CHM-COTAS
100
AcDbPolyline
 90
2
 70
0
 10
3796.091480446928
 20
202.5
 10
3955.2147551073376
 20
202.5
  0
LWPOLYLINE
  5
13B
330
17
100
AcDbEntity
  8
CHM-COTAS
370
35
100
AcDbPolyline
 90
2
 70
0
 10
3781.2422380420107
 20
187.6507575950825
 10
3810.9407228518453
 20
217.3492424049175
  0
LWPOLYLINE
  5
13C
330
17
100
AcDbEntity
  8
CHM-COTAS
370
35
100
AcDbPolyline
 90
2
 70
0
 10
3940.36551270242
 20
187.6507575950825
 10
3970.063997512255
 20
217.3492424049175
  0
TEXT
  5
13D
330
17
100
AcDbEntity
  8
CHM-COTAS
100
AcDbText
 10
3875.6531177771326
 20
216.5
 30
0.0
 40
50.0
  1
159
 72
1
 11
3875.6531177771326
 21
216.5
 31
0.0
100
AcDbText
 73
1
  0
LWPOLYLINE
  5
13E
330
17
100
AcDbEntity
  8
CHM-COTAS
100
AcDbPolyline
 90
2
 70
0
 10
3955.2147551073376
 20
777.5
 10
3955.2147551073376
 20
180.0
  0
LWPOLYLINE
  5
13F
330
17
100
AcDbEntity
  8
CHM-COTAS
100
AcDbPolyline
 90
2
 70
0
 10
4805.214755107338
 20
777.5
 10
4805.214755107338
 20
180.0
  0
LWPOLYLINE
  5
140
330
17
100
AcDbEntity
  8
CHM-COTAS
100
AcDbPolyline
 90
2
 70
0
 10
3955.2147551073376
 20
202.5
 10
4805.214755107338
 20
202.5
  0
LWPOLYLINE
  5
141
330
17
100
AcDbEntity
  8
CHM-COTAS
370
35
100
AcDbPolyline
 90
2
 70
0
 10
3940.36551270242
 20
187.6507575950825
 10
3970.063997512255
 20
217.3492424049175
  0
LWPOLYLINE
  5
142
330
17
100
AcDbEntity
  8
CHM-COTAS
370
35
100
AcDbPolyline
 90
2
 70
0
 10
4790.365512702419
 20
187.6507575950825
 10
4820.063997512255
 20
217.3492424049175
  0
TEXT
  5
143
330
17
100
AcDbEntity
  8
CHM-COTAS
100
AcDbText
 10
4380.214755107338
 20
216.5
 30
0.0
 40
50.0
  1
850
 72
1
 11
4380.214755107338
 21
216.5
 31
0.0
100
AcDbText
 73
1
  0
LWPOLYLINE
  5
144
330
17
100
AcDbEntity
  8
CHM-COTAS
100
AcDbPolyline
 90
2
 70
0
 10
4805.214755107338
 20
777.5
 10
4805.214755107338
 20
180.0
  0
LWPOLYLINE
  5
145
330
17
100
AcDbEntity
  8
CHM-COTAS
100
AcDbPolyline
 90
2
 70
0
 10
4964.338029767747
 20
437.5
 10
4964.338029767747
 20
180.0
  0
LWPOLYLINE
  5
146
330
17
100
AcDbEntity
  8
CHM-COTAS
100
AcDbPolyline
 90
2
 70
0
 10
4805.214755107338
 20
202.5
 10
4964.338029767747
 20
202.5
  0
LWPOLYLINE
  5
147
330
17
100
AcDbEntity
  8
CHM-COTAS
370
35
100
AcDbPolyline
 90
2
 70
0
 10
4790.365512702419
 20
187.6507575950825
 10
4820.063997512255
 20
217.3492424049175
  0
LWPOLYLINE
  5
148
330
17
100
AcDbEntity
  8
CHM-COTAS
370
35
100
AcDbPolyline
 90
2
 70
0
 10
4949.4887873628295
 20
187.6507575950825
 10
4979.187272172664
 20
217.3492424049175
  0
TEXT
  5
149
330
17
100
AcDbEntity
  8
CHM-COTAS
100
AcDbText
 10
4884.776392437542
 20
216.5
 30
0.0
 40
50.0
  1
159
 72
1
 11
4884.776392437542
 21
216.5
 31
0.0
100
AcDbText
 73
1
  0
LWPOLYLINE
  5
14A
330
17
100
AcDbEntity
  8
CHM-COTAS
100
AcDbPolyline
 90
2
 70
0
 10
3796.091480446928
 20
437.5
 10
3796.091480446928
 20
0.0
  0
LWPOLYLINE
  5
14B
330
17
100
AcDbEntity
  8
CHM-COTAS
100
AcDbPolyline
 90
2
 70
0
 10
4964.338029767747
 20
437.5
 10
4964.338029767747
 20
0.0
  0
LWPOLYLINE
  5
14C
330
17
100
AcDbEntity
  8
CHM-COTAS
100
AcDbPolyline
 90
2
 70
0
 10
3796.091480446928
 20
22.5
 10
4964.338029767747
 20
22.5
  0
LWPOLYLINE
  5
14D
330
17
100
AcDbEntity
  8
CHM-COTAS
370
35
100
AcDbPolyline
 90
2
 70
0
 10
3781.2422380420107
 20
7.650757595082496
 10
3810.9407228518453
 20
37.349242404917504
  0
LWPOLYLINE
  5
14E
330
17
100
AcDbEntity
  8
CHM-COTAS
370
35
100
AcDbPolyline
 90
2
 70
0
 10
4949.4887873628295
 20
7.650757595082496
 10
4979.187272172664
 20
37.349242404917504
  0
TEXT
  5
14F
330
17
100
AcDbEntity
  8
CHM-COTAS
100
AcDbText
 10
4380.214755107338
 20
36.5
 30
0.0
 40
50.0
  1
1168,25
 72
1
 11
4380.214755107338
 21
36.5
 31
0.0
100
AcDbText
 73
1
  0
LWPOLYLINE
  5
150
330
17
100
AcDbEntity
  8
CHM-COTAS
100
AcDbPolyline
 90
2
 70
0
 10
3955.2147551073376
 20
1407.5
 10
3955.2147551073376
 20
1525.0
  0
LWPOLYLINE
  5
151
330
17
100
AcDbEntity
  8
CHM-COTAS
100
AcDbPolyline
 90
2
 70
0
 10
3975.2147551073376
 20
1407.5
 10
3975.2147551073376
 20
1525.0
  0
LWPOLYLINE
  5
152
330
17
100
AcDbEntity
  8
CHM-COTAS
100
AcDbPolyline
 90
2
 70
0
 10
3955.2147551073376
 20
1502.5
 10
3975.2147551073376
 20
1502.5
  0
LWPOLYLINE
  5
153
330
17
100
AcDbEntity
  8
CHM-COTAS
370
35
100
AcDbPolyline
 90
2
 70
0
 10
3948.143687295472
 20
1495.4289321881345
 10
3962.285822919203
 20
1509.5710678118655
  0
LWPOLYLINE
  5
154
330
17
100
AcDbEntity
  8
CHM-COTAS
370
35
100
AcDbPolyline
 90
2
 70
0
 10
3968.143687295472
 20
1495.4289321881345
 10
3982.285822919203
 20
1509.5710678118655
  0
TEXT
  5
155
330
17
100
AcDbEntity
  8
CHM-COTAS
100
AcDbText
 10
3883.8879394648793
 20
1516.5
 30
0.0
 40
50.0
  1
20
 72
1
 11
3883.8879394648793
 21
1516.5
 31
0.0
100
AcDbText
 73
1
  0
TEXT
  5
156
330
17
100
AcDbEntity
  8
CHM-TEXTO
100
AcDbText
 10
4380.214755107338
 20
1622.5
 30
0.0
 40
50.0
  1
Marco 20×40
 72
1
 11
4380.214755107338
 21
1622.5
 31
0.0
100
AcDbText
 73
1
  0
LWPOLYLINE
  5
157
330
17
100
AcDbEntity
  8
CHM-TEXTO
100
AcDbPolyline
 90
2
 70
0
 10
4380.214755107338
 20
1610.0
 10
4380.214755107338
 20
1382.5
  0
TEXT
  5
158
330
17
100
AcDbEntity
  8
CHM-TEXTO
100
AcDbText
 10
4635.214755107338
 20
1727.5
 30
0.0
 40
50.0
  1
Vidrio 10
 72
1
 11
4635.214755107338
 21
1727.5
 31
0.0
100
AcDbText
 73
1
  0
LWPOLYLINE
  5
159
330
17
100
AcDbEntity
  8
CHM-TEXTO
100
AcDbPolyline
 90
2
 70
0
 10
4635.214755107338
 20
1715.0
 10
4635.214755107338
 20
1260.5
  0
TEXT
  5
15A
330
17
100
AcDbEntity
  8
CHM-TEXTO
100
AcDbText
 10
4380.214755107338
 20
682.5
 30
0.0
 40
50.0
  1
Junta de sombra
 72
1
 11
4380.214755107338
 21
682.5
 31
0.0
100
AcDbText
 73
1
  0
TEXT
  5
15B
330
17
100
AcDbEntity
  8
CHM-TEXTO
100
AcDbText
 10
4380.214755107338
 20
612.5
 30
0.0
 40
50.0
  1
Zócalo 60, retr. 25
 72
1
 11
4380.214755107338
 21
612.5
 31
0.0
100
AcDbText
 73
1
  0
LWPOLYLINE
  5
15C
330
17
100
AcDbEntity
  8
CHM-TEXTO
100
AcDbPolyline
 90
2
 70
0
 10
4380.214755107338
 20
602.5
 10
4380.214755107338
 20
422.5
  0
TEXT
  5
15D
330
17
100
AcDbEntity
  8
CHM-TEXTO
100
AcDbText
 10
3362.091480446928
 20
-250.0
 30
0.0
 40
95.0
  1
ALZADO DE LA CARA DIAGONAL
 11
3362.091480446928
 21
-250.0
 31
0.0
100
AcDbText
 73
1
  0
TEXT
  5
15E
330
17
100
AcDbEntity
  8
CHM-TEXTO
100
AcDbText
 10
3362.091480446928
 20
-370.0
 30
0.0
 40
42.5
  1
visto de frente, perpendicular al chaflán; u de Dv a C, z hacia arriba
 11
3362.091480446928
 21
-370.0
 31
0.0
100
AcDbText
 73
1
  0
HATCH
  5
15F
330
17
100
AcDbEntity
  8
CHM-RAYADOS
 62
7
420
7237230
100
AcDbHatch
 10
0.0
 20
0.0
 30
0.0
210
0.0
220
0.0
230
1.0
  2
ANSI31
 70
0
 71
0
 91
1
 92
3
 72
0
 73
1
 93
4
 10
6360.838029767747
 20
157.5
 10
8210.034540823615
 20
157.5
 10
8210.034540823615
 20
212.5
 10
6360.838029767747
 20
212.5
 97
0
 75
1
 76
1
 52
0.0
 41
10.0
 77
0
 78
1
 53
45.0
 43
0.0
 44
0.0
 45
-22.450640303
 46
22.450640303
 79
0
 98
0
  0
HATCH
  5
160
330
17
100
AcDbEntity
  8
CHM-RAYADOS
 62
7
420
13553358
100
AcDbHatch
 10
0.0
 20
0.0
 30
0.0
210
0.0
220
0.0
230
1.0
  2
SOLID
 70
1
 71
0
 91
1
 92
3
 72
0
 73
1
 93
4
 10
7806.067899666916
 20
212.5
 10
8060.034540823615
 20
212.5
 10
8060.034540823615
 20
2962.5
 10
7806.067899666916
 20
2962.5
 97
0
 75
1
 76
1
 98
0
  0
HATCH
  5
161
330
17
100
AcDbEntity
  8
CHM-RAYADOS
 62
7
420
7237230
100
AcDbHatch
 10
0.0
 20
0.0
 30
0.0
210
0.0
220
0.0
230
1.0
  2
ANSI31
 70
0
 71
0
 91
1
 92
3
 72
0
 73
1
 93
4
 10
7806.067899666916
 20
212.5
 10
8060.034540823615
 20
212.5
 10
8060.034540823615
 20
2962.5
 10
7806.067899666916
 20
2962.5
 97
0
 75
1
 76
1
 52
0.0
 41
14.0
 77
0
 78
1
 53
45.0
 43
0.0
 44
0.0
 45
-31.4308964242
 46
31.4308964242
 79
0
 98
0
  0
LWPOLYLINE
  5
162
330
17
100
AcDbEntity
  8
CHM-MURO
100
AcDbPolyline
 90
2
 70
0
 10
7806.067899666916
 20
212.5
 10
7806.067899666916
 20
2962.5
  0
LWPOLYLINE
  5
163
330
17
100
AcDbEntity
  8
CHM-MURO
100
AcDbPolyline
 90
2
 70
0
 10
8060.034540823615
 20
212.5
 10
8060.034540823615
 20
2962.5
  0
LWPOLYLINE
  5
164
330
17
100
AcDbEntity
  8
CHM-MURO
100
AcDbPolyline
 90
10
 70
0
 10
7806.067899666916
 20
2962.5
 10
7837.8137298115025
 20
2962.5
 10
7869.55955995609
 20
2977.5
 10
7901.305390100678
 20
2947.5
 10
7933.051220245265
 20
2977.5
 10
7964.797050389852
 20
2947.5
 10
7996.54288053444
 20
2977.5
 10
8028.288710679028
 20
2947.5
 10
8028.288710679028
 20
2962.5
 10
8060.034540823615
 20
2962.5
  0
LWPOLYLINE
  5
165
330
17
100
AcDbEntity
  8
CHM-EJES
  6
DASHED
370
13
420
9211020
100
AcDbPolyline
 90
2
 70
0
 10
7905.749061987271
 20
212.5
 10
7905.749061987271
 20
2832.5
  0
HATCH
  5
166
330
17
100
AcDbEntity
  8
CHM-RAYADOS
 62
7
420
14999768
100
AcDbHatch
 10
0.0
 20
0.0
 30
0.0
210
0.0
220
0.0
230
1.0
  2
SOLID
 70
1
 71
0
 91
1
 92
3
 72
0
 73
1
 93
8
 10
6510.838029767747
 20
272.5
 10
7806.067899666916
 20
272.5
 10
7806.067899666916
 20
2812.5
 10
6510.838029767747
 20
2812.5
 10
6510.838029767747
 20
1212.5
 10
6960.838029767747
 20
1212.5
 10
6960.838029767747
 20
612.5
 10
6510.838029767747
 20
612.5
 97
0
 75
1
 76
1
 98
0
  0
HATCH
  5
167
330
17
100
AcDbEntity
  8
CHM-RAYADOS
 62
7
420
9867914
100
AcDbHatch
 10
0.0
 20
0.0
 30
0.0
210
0.0
220
0.0
230
1.0
  2
ANSI37
 70
0
 71
0
 91
1
 92
3
 72
0
 73
1
 93
8
 10
6510.838029767747
 20
272.5
 10
7806.067899666916
 20
272.5
 10
7806.067899666916
 20
2812.5
 10
6510.838029767747
 20
2812.5
 10
6510.838029767747
 20
1212.5
 10
6960.838029767747
 20
1212.5
 10
6960.838029767747
 20
612.5
 10
6510.838029767747
 20
612.5
 97
0
 75
1
 76
1
 52
0.0
 41
9.0
 77
0
 78
2
 53
45.0
 43
0.0
 44
0.0
 45
-20.2055762727
 46
20.2055762727
 79
0
 53
135.0
 43
0.0
 44
0.0
 45
-20.2055762727
 46
-20.2055762727
 79
0
 98
0
  0
HATCH
  5
168
330
17
100
AcDbEntity
  8
CHM-ZOCALO
 62
7
420
9867914
100
AcDbHatch
 10
0.0
 20
0.0
 30
0.0
210
0.0
220
0.0
230
1.0
  2
SOLID
 70
1
 71
0
 91
1
 92
3
 72
0
 73
1
 93
4
 10
6535.838029767747
 20
212.5
 10
7806.067899666916
 20
212.5
 10
7806.067899666916
 20
272.5
 10
6535.838029767747
 20
272.5
 97
0
 75
1
 76
1
 98
0
  0
LWPOLYLINE
  5
169
330
17
100
AcDbEntity
  8
CHM-ZOCALO
100
AcDbPolyline
 90
4
 70
1
 10
6535.838029767747
 20
212.5
 10
7806.067899666916
 20
212.5
 10
7806.067899666916
 20
272.5
 10
6535.838029767747
 20
272.5
  0
LWPOLYLINE
  5
16A
330
17
100
AcDbEntity
  8
CHM-PERFIL
100
AcDbPolyline
 90
8
 70
1
 10
6510.838029767747
 20
272.5
 10
7806.067899666916
 20
272.5
 10
7806.067899666916
 20
2812.5
 10
6510.838029767747
 20
2812.5
 10
6510.838029767747
 20
1212.5
 10
6960.838029767747
 20
1212.5
 10
6960.838029767747
 20
612.5
 10
6510.838029767747
 20
612.5
  0
LWPOLYLINE
  5
16B
330
17
100
AcDbEntity
  8
CHM-PERFIL
100
AcDbPolyline
 90
2
 70
0
 10
6360.838029767747
 20
212.5
 10
8210.034540823615
 20
212.5
  0
HATCH
  5
16C
330
17
100
AcDbEntity
  8
CHM-HOGAR
 62
7
420
3815996
100
AcDbHatch
 10
0.0
 20
0.0
 30
0.0
210
0.0
220
0.0
230
1.0
  2
SOLID
 70
1
 71
0
 91
1
 92
3
 72
0
 73
1
 93
4
 10
6510.838029767747
 20
612.5
 10
6960.838029767747
 20
612.5
 10
6960.838029767747
 20
1212.5
 10
6510.838029767747
 20
1212.5
 97
0
 75
1
 76
1
 98
0
  0
LWPOLYLINE
  5
16D
330
17
100
AcDbEntity
  8
CHM-HOGAR
100
AcDbPolyline
 90
4
 70
1
 10
6510.838029767747
 20
612.5
 10
6960.838029767747
 20
612.5
 10
6960.838029767747
 20
1212.5
 10
6510.838029767747
 20
1212.5
  0
HATCH
  5
16E
330
17
100
AcDbEntity
  8
CHM-MARCO
 62
7
420
921102
100
AcDbHatch
 10
0.0
 20
0.0
 30
0.0
210
0.0
220
0.0
230
1.0
  2
SOLID
 70
1
 71
0
 91
1
 92
3
 72
0
 73
1
 93
4
 10
6510.838029767747
 20
612.5
 10
6550.838029767747
 20
612.5
 10
6550.838029767747
 20
632.5
 10
6510.838029767747
 20
632.5
 97
0
 75
1
 76
1
 98
0
  0
LWPOLYLINE
  5
16F
330
17
100
AcDbEntity
  8
CHM-MARCO
100
AcDbPolyline
 90
4
 70
1
 10
6510.838029767747
 20
612.5
 10
6550.838029767747
 20
612.5
 10
6550.838029767747
 20
632.5
 10
6510.838029767747
 20
632.5
  0
HATCH
  5
170
330
17
100
AcDbEntity
  8
CHM-MARCO
 62
7
420
921102
100
AcDbHatch
 10
0.0
 20
0.0
 30
0.0
210
0.0
220
0.0
230
1.0
  2
SOLID
 70
1
 71
0
 91
1
 92
3
 72
0
 73
1
 93
4
 10
6510.838029767747
 20
1192.5
 10
6550.838029767747
 20
1192.5
 10
6550.838029767747
 20
1212.5
 10
6510.838029767747
 20
1212.5
 97
0
 75
1
 76
1
 98
0
  0
LWPOLYLINE
  5
171
330
17
100
AcDbEntity
  8
CHM-MARCO
100
AcDbPolyline
 90
4
 70
1
 10
6510.838029767747
 20
1192.5
 10
6550.838029767747
 20
1192.5
 10
6550.838029767747
 20
1212.5
 10
6510.838029767747
 20
1212.5
  0
HATCH
  5
172
330
17
100
AcDbEntity
  8
CHM-VIDRIO
 62
7
420
8702178
100
AcDbHatch
 10
0.0
 20
0.0
 30
0.0
210
0.0
220
0.0
230
1.0
  2
SOLID
 70
1
 71
0
 91
1
 92
3
 72
0
 73
1
 93
4
 10
6525.838029767747
 20
632.5
 10
6535.838029767747
 20
632.5
 10
6535.838029767747
 20
1192.5
 10
6525.838029767747
 20
1192.5
 97
0
 75
1
 76
1
 98
0
  0
LWPOLYLINE
  5
173
330
17
100
AcDbEntity
  8
CHM-VIDRIO
100
AcDbPolyline
 90
4
 70
1
 10
6525.838029767747
 20
632.5
 10
6535.838029767747
 20
632.5
 10
6535.838029767747
 20
1192.5
 10
6525.838029767747
 20
1192.5
  0
TEXT
  5
174
330
17
100
AcDbEntity
  8
CHM-TEXTO
420
15461355
100
AcDbText
 10
6753.838029767747
 20
912.5
 30
0.0
 40
50.0
  1
HOGAR
 50
90.0
 72
1
 11
6753.838029767747
 21
912.5
 31
0.0
100
AcDbText
 73
2
  0
TEXT
  5
175
330
17
100
AcDbEntity
  8
CHM-TEXTO
420
4605510
100
AcDbText
 10
7933.051220245265
 20
1512.5
 30
0.0
 40
50.0
  1
MURO IZQ.
 50
90.0
 72
1
 11
7933.051220245265
 21
1512.5
 31
0.0
100
AcDbText
 73
2
  0
LWPOLYLINE
  5
176
330
17
100
AcDbEntity
  8
CHM-COTAS
100
AcDbPolyline
 90
2
 70
0
 10
6495.838029767747
 20
212.5
 10
6298.338029767747
 20
212.5
  0
LWPOLYLINE
  5
177
330
17
100
AcDbEntity
  8
CHM-COTAS
100
AcDbPolyline
 90
2
 70
0
 10
6495.838029767747
 20
612.5
 10
6298.338029767747
 20
612.5
  0
LWPOLYLINE
  5
178
330
17
100
AcDbEntity
  8
CHM-COTAS
100
AcDbPolyline
 90
2
 70
0
 10
6320.838029767747
 20
212.5
 10
6320.838029767747
 20
612.5
  0
LWPOLYLINE
  5
179
330
17
100
AcDbEntity
  8
CHM-COTAS
370
35
100
AcDbPolyline
 90
2
 70
0
 10
6335.687272172664
 20
197.6507575950825
 10
6305.9887873628295
 20
227.3492424049175
  0
LWPOLYLINE
  5
17A
330
17
100
AcDbEntity
  8
CHM-COTAS
370
35
100
AcDbPolyline
 90
2
 70
0
 10
6335.687272172664
 20
597.6507575950825
 10
6305.9887873628295
 20
627.3492424049175
  0
TEXT
  5
17B
330
17
100
AcDbEntity
  8
CHM-COTAS
100
AcDbText
 10
6306.838029767747
 20
412.5
 30
0.0
 40
50.0
  1
400
 50
90.0
 72
1
 11
6306.838029767747
 21
412.5
 31
0.0
100
AcDbText
 73
1
  0
LWPOLYLINE
  5
17C
330
17
100
AcDbEntity
  8
CHM-COTAS
100
AcDbPolyline
 90
2
 70
0
 10
6495.838029767747
 20
612.5
 10
6298.338029767747
 20
612.5
  0
LWPOLYLINE
  5
17D
330
17
100
AcDbEntity
  8
CHM-COTAS
100
AcDbPolyline
 90
2
 70
0
 10
6495.838029767747
 20
1212.5
 10
6298.338029767747
 20
1212.5
  0
LWPOLYLINE
  5
17E
330
17
100
AcDbEntity
  8
CHM-COTAS
100
AcDbPolyline
 90
2
 70
0
 10
6320.838029767747
 20
612.5
 10
6320.838029767747
 20
1212.5
  0
LWPOLYLINE
  5
17F
330
17
100
AcDbEntity
  8
CHM-COTAS
370
35
100
AcDbPolyline
 90
2
 70
0
 10
6335.687272172664
 20
597.6507575950825
 10
6305.9887873628295
 20
627.3492424049175
  0
LWPOLYLINE
  5
180
330
17
100
AcDbEntity
  8
CHM-COTAS
370
35
100
AcDbPolyline
 90
2
 70
0
 10
6335.687272172664
 20
1197.6507575950825
 10
6305.9887873628295
 20
1227.3492424049175
  0
TEXT
  5
181
330
17
100
AcDbEntity
  8
CHM-COTAS
100
AcDbText
 10
6306.838029767747
 20
912.5
 30
0.0
 40
50.0
  1
600
 50
90.0
 72
1
 11
6306.838029767747
 21
912.5
 31
0.0
100
AcDbText
 73
1
  0
LWPOLYLINE
  5
182
330
17
100
AcDbEntity
  8
CHM-COTAS
100
AcDbPolyline
 90
2
 70
0
 10
6495.838029767747
 20
1212.5
 10
6298.338029767747
 20
1212.5
  0
LWPOLYLINE
  5
183
330
17
100
AcDbEntity
  8
CHM-COTAS
100
AcDbPolyline
 90
2
 70
0
 10
6495.838029767747
 20
2812.5
 10
6298.338029767747
 20
2812.5
  0
LWPOLYLINE
  5
184
330
17
100
AcDbEntity
  8
CHM-COTAS
100
AcDbPolyline
 90
2
 70
0
 10
6320.838029767747
 20
1212.5
 10
6320.838029767747
 20
2812.5
  0
LWPOLYLINE
  5
185
330
17
100
AcDbEntity
  8
CHM-COTAS
370
35
100
AcDbPolyline
 90
2
 70
0
 10
6335.687272172664
 20
1197.6507575950825
 10
6305.9887873628295
 20
1227.3492424049175
  0
LWPOLYLINE
  5
186
330
17
100
AcDbEntity
  8
CHM-COTAS
370
35
100
AcDbPolyline
 90
2
 70
0
 10
6335.687272172664
 20
2797.6507575950827
 10
6305.9887873628295
 20
2827.3492424049173
  0
TEXT
  5
187
330
17
100
AcDbEntity
  8
CHM-COTAS
100
AcDbText
 10
6306.838029767747
 20
2012.5
 30
0.0
 40
50.0
  1
1600
 50
90.0
 72
1
 11
6306.838029767747
 21
2012.5
 31
0.0
100
AcDbText
 73
1
  0
LWPOLYLINE
  5
188
330
17
100
AcDbEntity
  8
CHM-COTAS
100
AcDbPolyline
 90
2
 70
0
 10
6495.838029767747
 20
212.5
 10
6118.338029767747
 20
212.5
  0
LWPOLYLINE
  5
189
330
17
100
AcDbEntity
  8
CHM-COTAS
100
AcDbPolyline
 90
2
 70
0
 10
6495.838029767747
 20
2812.5
 10
6118.338029767747
 20
2812.5
  0
LWPOLYLINE
  5
18A
330
17
100
AcDbEntity
  8
CHM-COTAS
100
AcDbPolyline
 90
2
 70
0
 10
6140.838029767747
 20
212.5
 10
6140.838029767747
 20
2812.5
  0
LWPOLYLINE
  5
18B
330
17
100
AcDbEntity
  8
CHM-COTAS
370
35
100
AcDbPolyline
 90
2
 70
0
 10
6155.687272172664
 20
197.6507575950825
 10
6125.9887873628295
 20
227.3492424049175
  0
LWPOLYLINE
  5
18C
330
17
100
AcDbEntity
  8
CHM-COTAS
370
35
100
AcDbPolyline
 90
2
 70
0
 10
6155.687272172664
 20
2797.6507575950827
 10
6125.9887873628295
 20
2827.3492424049173
  0
TEXT
  5
18D
330
17
100
AcDbEntity
  8
CHM-COTAS
100
AcDbText
 10
6126.838029767747
 20
1512.5
 30
0.0
 40
50.0
  1
2600
 50
90.0
 72
1
 11
6126.838029767747
 21
1512.5
 31
0.0
100
AcDbText
 73
1
  0
LWPOLYLINE
  5
18E
330
17
100
AcDbEntity
  8
CHM-COTAS
100
AcDbPolyline
 90
2
 70
0
 10
8075.034540823615
 20
212.5
 10
8272.534540823615
 20
212.5
  0
LWPOLYLINE
  5
18F
330
17
100
AcDbEntity
  8
CHM-COTAS
100
AcDbPolyline
 90
2
 70
0
 10
8075.034540823615
 20
272.5
 10
8272.534540823615
 20
272.5
  0
LWPOLYLINE
  5
190
330
17
100
AcDbEntity
  8
CHM-COTAS
100
AcDbPolyline
 90
2
 70
0
 10
8250.034540823615
 20
212.5
 10
8250.034540823615
 20
272.5
  0
LWPOLYLINE
  5
191
330
17
100
AcDbEntity
  8
CHM-COTAS
370
35
100
AcDbPolyline
 90
2
 70
0
 10
8257.812715416667
 20
204.72182540694797
 10
8242.256366230564
 20
220.27817459305203
  0
LWPOLYLINE
  5
192
330
17
100
AcDbEntity
  8
CHM-COTAS
370
35
100
AcDbPolyline
 90
2
 70
0
 10
8257.812715416667
 20
264.72182540694797
 10
8242.256366230564
 20
280.27817459305203
  0
TEXT
  5
193
330
17
100
AcDbEntity
  8
CHM-COTAS
100
AcDbText
 10
8236.034540823615
 20
140.17318435754188
 30
0.0
 40
50.0
  1
60
 50
90.0
 72
1
 11
8236.034540823615
 21
140.17318435754188
 31
0.0
100
AcDbText
 73
1
  0
LWPOLYLINE
  5
194
330
17
100
AcDbEntity
  8
CHM-COTAS
100
AcDbPolyline
 90
2
 70
0
 10
8075.034540823615
 20
272.5
 10
8272.534540823615
 20
272.5
  0
LWPOLYLINE
  5
195
330
17
100
AcDbEntity
  8
CHM-COTAS
100
AcDbPolyline
 90
2
 70
0
 10
8075.034540823615
 20
2812.5
 10
8272.534540823615
 20
2812.5
  0
LWPOLYLINE
  5
196
330
17
100
AcDbEntity
  8
CHM-COTAS
100
AcDbPolyline
 90
2
 70
0
 10
8250.034540823615
 20
272.5
 10
8250.034540823615
 20
2812.5
  0
LWPOLYLINE
  5
197
330
17
100
AcDbEntity
  8
CHM-COTAS
370
35
100
AcDbPolyline
 90
2
 70
0
 10
8264.883783228532
 20
257.6507575950825
 10
8235.185298418697
 20
287.3492424049175
  0
LWPOLYLINE
  5
198
330
17
100
AcDbEntity
  8
CHM-COTAS
370
35
100
AcDbPolyline
 90
2
 70
0
 10
8264.883783228532
 20
2797.6507575950827
 10
8235.185298418697
 20
2827.3492424049173
  0
TEXT
  5
199
330
17
100
AcDbEntity
  8
CHM-COTAS
100
AcDbText
 10
8236.034540823615
 20
1542.5
 30
0.0
 40
50.0
  1
2540
 50
90.0
 72
1
 11
8236.034540823615
 21
1542.5
 31
0.0
100
AcDbText
 73
1
  0
LWPOLYLINE
  5
19A
330
17
100
AcDbEntity
  8
CHM-COTAS
100
AcDbPolyline
 90
2
 70
0
 10
6510.838029767747
 20
1227.5
 10
6510.838029767747
 20
1355.0
  0
LWPOLYLINE
  5
19B
330
17
100
AcDbEntity
  8
CHM-COTAS
100
AcDbPolyline
 90
2
 70
0
 10
6960.838029767747
 20
1227.5
 10
6960.838029767747
 20
1355.0
  0
LWPOLYLINE
  5
19C
330
17
100
AcDbEntity
  8
CHM-COTAS
100
AcDbPolyline
 90
2
 70
0
 10
6510.838029767747
 20
1332.5
 10
6960.838029767747
 20
1332.5
  0
LWPOLYLINE
  5
19D
330
17
100
AcDbEntity
  8
CHM-COTAS
370
35
100
AcDbPolyline
 90
2
 70
0
 10
6495.9887873628295
 20
1317.6507575950825
 10
6525.687272172664
 20
1347.3492424049175
  0
LWPOLYLINE
  5
19E
330
17
100
AcDbEntity
  8
CHM-COTAS
370
35
100
AcDbPolyline
 90
2
 70
0
 10
6945.9887873628295
 20
1317.6507575950825
 10
6975.687272172664
 20
1347.3492424049175
  0
TEXT
  5
19F
330
17
100
AcDbEntity
  8
CHM-COTAS
100
AcDbText
 10
6735.838029767747
 20
1346.5
 30
0.0
 40
50.0
  1
450
 72
1
 11
6735.838029767747
 21
1346.5
 31
0.0
100
AcDbText
 73
1
  0
LWPOLYLINE
  5
1A0
330
17
100
AcDbEntity
  8
CHM-COTAS
100
AcDbPolyline
 90
2
 70
0
 10
6510.838029767747
 20
2827.5
 10
6510.838029767747
 20
3025.0
  0
LWPOLYLINE
  5
1A1
330
17
100
AcDbEntity
  8
CHM-COTAS
100
AcDbPolyline
 90
2
 70
0
 10
7806.067899666916
 20
2827.5
 10
7806.067899666916
 20
3025.0
  0
LWPOLYLINE
  5
1A2
330
17
100
AcDbEntity
  8
CHM-COTAS
100
AcDbPolyline
 90
2
 70
0
 10
6510.838029767747
 20
3002.5
 10
7806.067899666916
 20
3002.5
  0
LWPOLYLINE
  5
1A3
330
17
100
AcDbEntity
  8
CHM-COTAS
370
35
100
AcDbPolyline
 90
2
 70
0
 10
6495.9887873628295
 20
2987.6507575950827
 10
6525.687272172664
 20
3017.3492424049173
  0
LWPOLYLINE
  5
1A4
330
17
100
AcDbEntity
  8
CHM-COTAS
370
35
100
AcDbPolyline
 90
2
 70
0
 10
7791.218657261998
 20
2987.6507575950827
 10
7820.917142071833
 20
3017.3492424049173
  0
TEXT
  5
1A5
330
17
100
AcDbEntity
  8
CHM-COTAS
100
AcDbText
 10
7158.452964717331
 20
3016.5
 30
0.0
 40
50.0
  1
1295,2 (hasta el muro izq.)
 72
1
 11
7158.452964717331
 21
3016.5
 31
0.0
100
AcDbText
 73
1
  0
LWPOLYLINE
  5
1A6
330
17
100
AcDbEntity
  8
CHM-COTAS
100
AcDbPolyline
 90
2
 70
0
 10
6510.838029767747
 20
2827.5
 10
6510.838029767747
 20
3205.0
  0
LWPOLYLINE
  5
1A7
330
17
100
AcDbEntity
  8
CHM-COTAS
100
AcDbPolyline
 90
2
 70
0
 10
7905.749061987271
 20
2827.5
 10
7905.749061987271
 20
3205.0
  0
LWPOLYLINE
  5
1A8
330
17
100
AcDbEntity
  8
CHM-COTAS
100
AcDbPolyline
 90
2
 70
0
 10
6510.838029767747
 20
3182.5
 10
7905.749061987271
 20
3182.5
  0
LWPOLYLINE
  5
1A9
330
17
100
AcDbEntity
  8
CHM-COTAS
370
35
100
AcDbPolyline
 90
2
 70
0
 10
6495.9887873628295
 20
3167.6507575950827
 10
6525.687272172664
 20
3197.3492424049173
  0
LWPOLYLINE
  5
1AA
330
17
100
AcDbEntity
  8
CHM-COTAS
370
35
100
AcDbPolyline
 90
2
 70
0
 10
7890.899819582353
 20
3167.6507575950827
 10
7920.598304392188
 20
3197.3492424049173
  0
TEXT
  5
1AB
330
17
100
AcDbEntity
  8
CHM-COTAS
100
AcDbText
 10
7208.293545877508
 20
3196.5
 30
0.0
 40
50.0
  1
1394,9 (hasta la esquina O)
 72
1
 11
7208.293545877508
 21
3196.5
 31
0.0
100
AcDbText
 73
1
  0
LWPOLYLINE
  5
1AC
330
17
100
AcDbEntity
  8
CHM-COTAS
100
AcDbPolyline
 90
2
 70
0
 10
6510.838029767747
 20
257.5
 10
6510.838029767747
 20
0.0
  0
LWPOLYLINE
  5
1AD
330
17
100
AcDbEntity
  8
CHM-COTAS
100
AcDbPolyline
 90
2
 70
0
 10
6535.838029767747
 20
197.5
 10
6535.838029767747
 20
0.0
  0
LWPOLYLINE
  5
1AE
330
17
100
AcDbEntity
  8
CHM-COTAS
100
AcDbPolyline
 90
2
 70
0
 10
6510.838029767747
 20
22.5
 10
6535.838029767747
 20
22.5
  0
LWPOLYLINE
  5
1AF
330
17
100
AcDbEntity
  8
CHM-COTAS
370
35
100
AcDbPolyline
 90
2
 70
0
 10
6503.059855174694
 20
14.721825406947971
 10
6518.616204360799
 20
30.27817459305203
  0
LWPOLYLINE
  5
1B0
330
17
100
AcDbEntity
  8
CHM-COTAS
370
35
100
AcDbPolyline
 90
2
 70
0
 10
6528.059855174694
 20
14.721825406947971
 10
6543.616204360799
 20
30.27817459305203
  0
TEXT
  5
1B1
330
17
100
AcDbEntity
  8
CHM-COTAS
100
AcDbText
 10
6438.5112141252885
 20
36.5
 30
0.0
 40
50.0
  1
25
 72
1
 11
6438.5112141252885
 21
36.5
 31
0.0
100
AcDbText
 73
1
  0
CIRCLE
  5
1B2
330
17
100
AcDbEntity
  8
CHM-COTAS
420
748381
100
AcDbCircle
 10
6530.838029767747
 20
622.5
 30
0.0
 40
45.0
  0
TEXT
  5
1B3
330
17
100
AcDbEntity
  8
CHM-COTAS
100
AcDbText
 10
6585.838029767747
 20
527.5
 30
0.0
 40
55.00000000000001
  1
A
 11
6585.838029767747
 21
527.5
 31
0.0
100
AcDbText
 73
1
  0
HATCH
  5
1B4
330
17
100
AcDbEntity
  8
CHM-RAYADOS
 62
7
420
14999768
100
AcDbHatch
 10
0.0
 20
0.0
 30
0.0
210
0.0
220
0.0
230
1.0
  2
SOLID
 70
1
 71
0
 91
1
 92
3
 72
0
 73
1
 93
4
 10
8625.034540823615
 20
462.5
 10
9725.034540823615
 20
462.5
 10
9725.034540823615
 20
782.5
 10
8625.034540823615
 20
782.5
 97
0
 75
1
 76
1
 98
0
  0
HATCH
  5
1B5
330
17
100
AcDbEntity
  8
CHM-RAYADOS
 62
7
420
9867914
100
AcDbHatch
 10
0.0
 20
0.0
 30
0.0
210
0.0
220
0.0
230
1.0
  2
ANSI37
 70
0
 71
0
 91
1
 92
3
 72
0
 73
1
 93
4
 10
8625.034540823615
 20
462.5
 10
9725.034540823615
 20
462.5
 10
9725.034540823615
 20
782.5
 10
8625.034540823615
 20
782.5
 97
0
 75
1
 76
1
 52
0.0
 41
16.0
 77
0
 78
2
 53
45.0
 43
0.0
 44
0.0
 45
-35.9210244848
 46
35.9210244848
 79
0
 53
135.0
 43
0.0
 44
0.0
 45
-35.9210244848
 46
-35.9210244848
 79
0
 98
0
  0
LWPOLYLINE
  5
1B6
330
17
100
AcDbEntity
  8
CHM-PERFIL
100
AcDbPolyline
 90
3
 70
0
 10
8625.034540823615
 20
462.5
 10
8625.034540823615
 20
782.5
 10
9025.034540823615
 20
782.5
  0
LWPOLYLINE
  5
1B7
330
17
100
AcDbEntity
  8
CHM-HOGAR
100
AcDbPolyline
 90
2
 70
0
 10
9025.034540823615
 20
782.5
 10
9725.034540823615
 20
782.5
  0
HATCH
  5
1B8
330
17
100
AcDbEntity
  8
CHM-MARCO
 62
7
420
921102
100
AcDbHatch
 10
0.0
 20
0.0
 30
0.0
210
0.0
220
0.0
230
1.0
  2
SOLID
 70
1
 71
0
 91
1
 92
3
 72
0
 73
1
 93
4
 10
8625.034540823615
 20
782.5
 10
9025.034540823615
 20
782.5
 10
9025.034540823615
 20
982.5
 10
8625.034540823615
 20
982.5
 97
0
 75
1
 76
1
 98
0
  0
LWPOLYLINE
  5
1B9
330
17
100
AcDbEntity
  8
CHM-MARCO
100
AcDbPolyline
 90
4
 70
1
 10
8625.034540823615
 20
782.5
 10
9025.034540823615
 20
782.5
 10
9025.034540823615
 20
982.5
 10
8625.034540823615
 20
982.5
  0
HATCH
  5
1BA
330
17
100
AcDbEntity
  8
CHM-VIDRIO
 62
7
420
8702178
100
AcDbHatch
 10
0.0
 20
0.0
 30
0.0
210
0.0
220
0.0
230
1.0
  2
SOLID
 70
1
 71
0
 91
1
 92
3
 72
0
 73
1
 93
4
 10
8775.034540823615
 20
982.5
 10
8875.034540823615
 20
982.5
 10
8875.034540823615
 20
2382.5
 10
8775.034540823615
 20
2382.5
 97
0
 75
1
 76
1
 98
0
  0
LWPOLYLINE
  5
1BB
330
17
100
AcDbEntity
  8
CHM-VIDRIO
100
AcDbPolyline
 90
4
 70
1
 10
8775.034540823615
 20
982.5
 10
8875.034540823615
 20
982.5
 10
8875.034540823615
 20
2382.5
 10
8775.034540823615
 20
2382.5
  0
LWPOLYLINE
  5
1BC
330
17
100
AcDbEntity
  8
CHM-VIDRIO
100
AcDbPolyline
 90
8
 70
0
 10
8745.034540823615
 20
2382.5
 10
8771.701207490281
 20
2382.5
 10
8798.36787415695
 20
2395.0
 10
8825.034540823615
 20
2370.0
 10
8851.701207490281
 20
2395.0
 10
8878.36787415695
 20
2370.0
 10
8878.36787415695
 20
2382.5
 10
8905.034540823615
 20
2382.5
  0
LWPOLYLINE
  5
1BD
330
17
100
AcDbEntity
  8
CHM-COTAS
100
AcDbPolyline
 90
2
 70
0
 10
8625.034540823615
 20
997.5
 10
8625.034540823615
 20
2535.0
  0
LWPOLYLINE
  5
1BE
330
17
100
AcDbEntity
  8
CHM-COTAS
100
AcDbPolyline
 90
2
 70
0
 10
8775.034540823615
 20
2397.5
 10
8775.034540823615
 20
2535.0
  0
LWPOLYLINE
  5
1BF
330
17
100
AcDbEntity
  8
CHM-COTAS
100
AcDbPolyline
 90
2
 70
0
 10
8625.034540823615
 20
2512.5
 10
8775.034540823615
 20
2512.5
  0
LWPOLYLINE
  5
1C0
330
17
100
AcDbEntity
  8
CHM-COTAS
370
35
100
AcDbPolyline
 90
2
 70
0
 10
8614.427939105817
 20
2501.893398282202
 10
8635.641142541414
 20
2523.106601717798
  0
LWPOLYLINE
  5
1C1
330
17
100
AcDbEntity
  8
CHM-COTAS
370
35
100
AcDbPolyline
 90
2
 70
0
 10
8764.427939105817
 20
2501.893398282202
 10
8785.641142541414
 20
2523.106601717798
  0
TEXT
  5
1C2
330
17
100
AcDbEntity
  8
CHM-COTAS
100
AcDbText
 10
8700.034540823615
 20
2526.5
 30
0.0
 40
50.0
  1
15
 72
1
 11
8700.034540823615
 21
2526.5
 31
0.0
100
AcDbText
 73
1
  0
LWPOLYLINE
  5
1C3
330
17
100
AcDbEntity
  8
CHM-COTAS
100
AcDbPolyline
 90
2
 70
0
 10
8775.034540823615
 20
2397.5
 10
8775.034540823615
 20
2535.0
  0
LWPOLYLINE
  5
1C4
330
17
100
AcDbEntity
  8
CHM-COTAS
100
AcDbPolyline
 90
2
 70
0
 10
8875.034540823615
 20
2397.5
 10
8875.034540823615
 20
2535.0
  0
LWPOLYLINE
  5
1C5
330
17
100
AcDbEntity
  8
CHM-COTAS
100
AcDbPolyline
 90
2
 70
0
 10
8775.034540823615
 20
2512.5
 10
8875.034540823615
 20
2512.5
  0
LWPOLYLINE
  5
1C6
330
17
100
AcDbEntity
  8
CHM-COTAS
370
35
100
AcDbPolyline
 90
2
 70
0
 10
8764.427939105817
 20
2501.893398282202
 10
8785.641142541414
 20
2523.106601717798
  0
LWPOLYLINE
  5
1C7
330
17
100
AcDbEntity
  8
CHM-COTAS
370
35
100
AcDbPolyline
 90
2
 70
0
 10
8864.427939105817
 20
2501.893398282202
 10
8885.641142541414
 20
2523.106601717798
  0
TEXT
  5
1C8
330
17
100
AcDbEntity
  8
CHM-COTAS
100
AcDbText
 10
8825.034540823615
 20
2526.5
 30
0.0
 40
50.0
  1
10
 72
1
 11
8825.034540823615
 21
2526.5
 31
0.0
100
AcDbText
 73
1
  0
LWPOLYLINE
  5
1C9
330
17
100
AcDbEntity
  8
CHM-COTAS
100
AcDbPolyline
 90
2
 70
0
 10
8875.034540823615
 20
2397.5
 10
8875.034540823615
 20
2535.0
  0
LWPOLYLINE
  5
1CA
330
17
100
AcDbEntity
  8
CHM-COTAS
100
AcDbPolyline
 90
2
 70
0
 10
9025.034540823615
 20
997.5
 10
9025.034540823615
 20
2535.0
  0
LWPOLYLINE
  5
1CB
330
17
100
AcDbEntity
  8
CHM-COTAS
100
AcDbPolyline
 90
2
 70
0
 10
8875.034540823615
 20
2512.5
 10
9025.034540823615
 20
2512.5
  0
LWPOLYLINE
  5
1CC
330
17
100
AcDbEntity
  8
CHM-COTAS
370
35
100
AcDbPolyline
 90
2
 70
0
 10
8864.427939105817
 20
2501.893398282202
 10
8885.641142541414
 20
2523.106601717798
  0
LWPOLYLINE
  5
1CD
330
17
100
AcDbEntity
  8
CHM-COTAS
370
35
100
AcDbPolyline
 90
2
 70
0
 10
9014.427939105817
 20
2501.893398282202
 10
9035.641142541414
 20
2523.106601717798
  0
TEXT
  5
1CE
330
17
100
AcDbEntity
  8
CHM-COTAS
100
AcDbText
 10
8950.034540823615
 20
2526.5
 30
0.0
 40
50.0
  1
15
 72
1
 11
8950.034540823615
 21
2526.5
 31
0.0
100
AcDbText
 73
1
  0
LWPOLYLINE
  5
1CF
330
17
100
AcDbEntity
  8
CHM-COTAS
100
AcDbPolyline
 90
2
 70
0
 10
8625.034540823615
 20
997.5
 10
8625.034540823615
 20
2665.0
  0
LWPOLYLINE
  5
1D0
330
17
100
AcDbEntity
  8
CHM-COTAS
100
AcDbPolyline
 90
2
 70
0
 10
9025.034540823615
 20
997.5
 10
9025.034540823615
 20
2665.0
  0
LWPOLYLINE
  5
1D1
330
17
100
AcDbEntity
  8
CHM-COTAS
100
AcDbPolyline
 90
2
 70
0
 10
8625.034540823615
 20
2642.5
 10
9025.034540823615
 20
2642.5
  0
LWPOLYLINE
  5
1D2
330
17
100
AcDbEntity
  8
CHM-COTAS
370
35
100
AcDbPolyline
 90
2
 70
0
 10
8614.427939105817
 20
2631.893398282202
 10
8635.641142541414
 20
2653.106601717798
  0
LWPOLYLINE
  5
1D3
330
17
100
AcDbEntity
  8
CHM-COTAS
370
35
100
AcDbPolyline
 90
2
 70
0
 10
9014.427939105817
 20
2631.893398282202
 10
9035.641142541414
 20
2653.106601717798
  0
TEXT
  5
1D4
330
17
100
AcDbEntity
  8
CHM-COTAS
100
AcDbText
 10
8825.034540823615
 20
2656.5
 30
0.0
 40
50.0
  1
40
 72
1
 11
8825.034540823615
 21
2656.5
 31
0.0
100
AcDbText
 73
1
  0
LWPOLYLINE
  5
1D5
330
17
100
AcDbEntity
  8
CHM-COTAS
100
AcDbPolyline
 90
2
 70
0
 10
8610.034540823615
 20
782.5
 10
8442.534540823615
 20
782.5
  0
LWPOLYLINE
  5
1D6
330
17
100
AcDbEntity
  8
CHM-COTAS
100
AcDbPolyline
 90
2
 70
0
 10
8610.034540823615
 20
982.5
 10
8442.534540823615
 20
982.5
  0
LWPOLYLINE
  5
1D7
330
17
100
AcDbEntity
  8
CHM-COTAS
100
AcDbPolyline
 90
2
 70
0
 10
8465.034540823615
 20
782.5
 10
8465.034540823615
 20
982.5
  0
LWPOLYLINE
  5
1D8
330
17
100
AcDbEntity
  8
CHM-COTAS
370
35
100
AcDbPolyline
 90
2
 70
0
 10
8475.641142541414
 20
771.8933982822018
 10
8454.427939105817
 20
793.1066017177982
  0
LWPOLYLINE
  5
1D9
330
17
100
AcDbEntity
  8
CHM-COTAS
370
35
100
AcDbPolyline
 90
2
 70
0
 10
8475.641142541414
 20
971.8933982822018
 10
8454.427939105817
 20
993.1066017177982
  0
TEXT
  5
1DA
330
17
100
AcDbEntity
  8
CHM-COTAS
100
AcDbText
 10
8451.034540823615
 20
882.5
 30
0.0
 40
50.0
  1
20
 50
90.0
 72
1
 11
8451.034540823615
 21
882.5
 31
0.0
100
AcDbText
 73
1
  0
TEXT
  5
1DB
330
17
100
AcDbEntity
  8
CHM-TEXTO
100
AcDbText
 10
8825.034540823615
 20
302.5
 30
0.0
 40
52.5
  1
DETALLE A — marco y vidrio
 72
1
 11
8825.034540823615
 21
302.5
 31
0.0
100
AcDbText
 73
1
  0
TEXT
  5
1DC
330
17
100
AcDbEntity
  8
CHM-TEXTO
100
AcDbText
 10
8825.034540823615
 20
222.5
 30
0.0
 40
45.0
  1
ampliado ×10 (cotas reales)
 72
1
 11
8825.034540823615
 21
222.5
 31
0.0
100
AcDbText
 73
1
  0
TEXT
  5
1DD
330
17
100
AcDbEntity
  8
CHM-TEXTO
100
AcDbText
 10
6076.838029767747
 20
-250.0
 30
0.0
 40
95.0
  1
SECCIÓN A–A POR EL EJE DEL HOGAR
 11
6076.838029767747
 21
-250.0
 31
0.0
100
AcDbText
 73
1
  0
TEXT
  5
1DE
330
17
100
AcDbEntity
  8
CHM-TEXTO
100
AcDbText
 10
6076.838029767747
 20
-370.0
 30
0.0
 40
42.5
  1
perpendicular a la cara y a través de M; la sala queda a la izquierda
 11
6076.838029767747
 21
-370.0
 31
0.0
100
AcDbText
 73
1
  0
TEXT
  5
1DF
330
17
100
AcDbEntity
  8
CHM-TEXTO
100
AcDbText
 10
-7.105427357601002e-15
 20
-820.0
 30
0.0
 40
57.49999999999999
  1
LEYENDA
 11
-7.105427357601002e-15
 21
-820.0
 31
0.0
100
AcDbText
 73
1
  0
LWPOLYLINE
  5
1E0
330
17
100
AcDbEntity
  8
CHM-PERFIL
100
AcDbPolyline
 90
2
 70
0
 10
-7.105427357601002e-15
 20
-925.0
 10
250.0
 20
-925.0
  0
TEXT
  5
1E1
330
17
100
AcDbEntity
  8
CHM-TEXTO
100
AcDbText
 10
300.0
 20
-940.0
 30
0.0
 40
47.5
  1
Perfil visible del cuerpo (pentágono cortado a 1200)
 11
300.0
 21
-940.0
 31
0.0
100
AcDbText
 73
1
  0
LWPOLYLINE
  5
1E2
330
17
100
AcDbEntity
  8
CHM-ZOCALO
  6
DASHED
100
AcDbPolyline
 90
2
 70
0
 10
-7.105427357601002e-15
 20
-1025.0
 10
250.0
 20
-1025.0
  0
TEXT
  5
1E3
330
17
100
AcDbEntity
  8
CHM-TEXTO
100
AcDbText
 10
300.0
 20
-1040.0
 30
0.0
 40
47.5
  1
Zócalo retranqueado 25, bajo el cuerpo
 11
300.0
 21
-1040.0
 31
0.0
100
AcDbText
 73
1
  0
LWPOLYLINE
  5
1E4
330
17
100
AcDbEntity
  8
CHM-ANCLAJE
  6
DASHED
100
AcDbPolyline
 90
2
 70
0
 10
-7.105427357601002e-15
 20
-1125.0
 10
250.0
 20
-1125.0
  0
TEXT
  5
1E5
330
17
100
AcDbEntity
  8
CHM-TEXTO
100
AcDbText
 10
300.0
 20
-1140.0
 30
0.0
 40
47.5
  1
Anclaje oculto S = 100, dentro de los muros
 11
300.0
 21
-1140.0
 31
0.0
100
AcDbText
 73
1
  0
LWPOLYLINE
  5
1E6
330
17
100
AcDbEntity
  8
CHM-HOGAR
  6
DASHED
100
AcDbPolyline
 90
2
 70
0
 10
-7.105427357601002e-15
 20
-1225.0
 10
250.0
 20
-1225.0
  0
TEXT
  5
1E7
330
17
100
AcDbEntity
  8
CHM-TEXTO
100
AcDbText
 10
300.0
 20
-1240.0
 30
0.0
 40
47.5
  1
Hueco del hogar P1–P4, bajo el plano de corte
 11
300.0
 21
-1240.0
 31
0.0
100
AcDbText
 73
1
  0
LWPOLYLINE
  5
1E8
330
17
100
AcDbEntity
  8
CHM-EJES
  6
CENTER
100
AcDbPolyline
 90
2
 70
0
 10
-7.105427357601002e-15
 20
-1325.0
 10
250.0
 20
-1325.0
  0
TEXT
  5
1E9
330
17
100
AcDbEntity
  8
CHM-TEXTO
100
AcDbText
 10
300.0
 20
-1340.0
 30
0.0
 40
47.5
  1
Eje del hogar (traza de la sección A–A)
 11
300.0
 21
-1340.0
 31
0.0
100
AcDbText
 73
1
  0
HATCH
  5
1EA
330
17
100
AcDbEntity
  8
CHM-MARCO
 62
7
420
921102
100
AcDbHatch
 10
0.0
 20
0.0
 30
0.0
210
0.0
220
0.0
230
1.0
  2
SOLID
 70
1
 71
0
 91
1
 92
3
 72
0
 73
1
 93
4
 10
3150.0
 20
-940.0
 10
3400.0
 20
-940.0
 10
3400.0
 20
-905.0
 10
3150.0
 20
-905.0
 97
0
 75
1
 76
1
 98
0
  0
LWPOLYLINE
  5
1EB
330
17
100
AcDbEntity
  8
CHM-PERFIL
370
13
100
AcDbPolyline
 90
4
 70
1
 10
3150.0
 20
-940.0
 10
3400.0
 20
-940.0
 10
3400.0
 20
-905.0
 10
3150.0
 20
-905.0
  0
TEXT
  5
1EC
330
17
100
AcDbEntity
  8
CHM-TEXTO
100
AcDbText
 10
3450.0
 20
-940.0
 30
0.0
 40
47.5
  1
Marco de acero negro 20 × 40
 11
3450.0
 21
-940.0
 31
0.0
100
AcDbText
 73
1
  0
HATCH
  5
1ED
330
17
100
AcDbEntity
  8
CHM-VIDRIO
 62
7
420
8702178
100
AcDbHatch
 10
0.0
 20
0.0
 30
0.0
210
0.0
220
0.0
230
1.0
  2
SOLID
 70
1
 71
0
 91
1
 92
3
 72
0
 73
1
 93
4
 10
3150.0
 20
-1040.0
 10
3400.0
 20
-1040.0
 10
3400.0
 20
-1005.0
 10
3150.0
 20
-1005.0
 97
0
 75
1
 76
1
 98
0
  0
LWPOLYLINE
  5
1EE
330
17
100
AcDbEntity
  8
CHM-PERFIL
370
13
100
AcDbPolyline
 90
4
 70
1
 10
3150.0
 20
-1040.0
 10
3400.0
 20
-1040.0
 10
3400.0
 20
-1005.0
 10
3150.0
 20
-1005.0
  0
TEXT
  5
1EF
330
17
100
AcDbEntity
  8
CHM-TEXTO
100
AcDbText
 10
3450.0
 20
-1040.0
 30
0.0
 40
47.5
  1
Vidrio 10 (centrado en la profundidad del marco)
 11
3450.0
 21
-1040.0
 31
0.0
100
AcDbText
 73
1
  0
LWPOLYLINE
  5
1F0
330
17
100
AcDbEntity
  8
CHM-MURO
  6
DASHED
420
13117480
100
AcDbPolyline
 90
2
 70
0
 10
3150.0
 20
-1125.0
 10
3400.0
 20
-1125.0
  0
TEXT
  5
1F1
330
17
100
AcDbEntity
  8
CHM-TEXTO
100
AcDbText
 10
3450.0
 20
-1140.0
 30
0.0
 40
47.5
  1
Cara real del muro izquierdo (inclinada 2,39°)
 11
3450.0
 21
-1140.0
 31
0.0
100
AcDbText
 73
1
  0
HATCH
  5
1F2
330
17
100
AcDbEntity
  8
CHM-RAYADOS
 62
7
420
13553358
100
AcDbHatch
 10
0.0
 20
0.0
 30
0.0
210
0.0
220
0.0
230
1.0
  2
SOLID
 70
1
 71
0
 91
1
 92
3
 72
0
 73
1
 93
4
 10
3150.0
 20
-1245.0
 10
3400.0
 20
-1245.0
 10
3400.0
 20
-1200.0
 10
3150.0
 20
-1200.0
 97
0
 75
1
 76
1
 98
0
  0
HATCH
  5
1F3
330
17
100
AcDbEntity
  8
CHM-RAYADOS
 62
7
420
7237230
100
AcDbHatch
 10
0.0
 20
0.0
 30
0.0
210
0.0
220
0.0
230
1.0
  2
ANSI31
 70
0
 71
0
 91
1
 92
3
 72
0
 73
1
 93
4
 10
3150.0
 20
-1245.0
 10
3400.0
 20
-1245.0
 10
3400.0
 20
-1200.0
 10
3150.0
 20
-1200.0
 97
0
 75
1
 76
1
 52
0.0
 41
8.0
 77
0
 78
1
 53
45.0
 43
0.0
 44
0.0
 45
-17.9605122424
 46
17.9605122424
 79
0
 98
0
  0
TEXT
  5
1F4
330
17
100
AcDbEntity
  8
CHM-TEXTO
100
AcDbText
 10
3450.0
 20
-1240.0
 30
0.0
 40
47.5
  1
Muro (hachura simbólica)
 11
3450.0
 21
-1240.0
 31
0.0
100
AcDbText
 73
1
  0
HATCH
  5
1F5
330
17
100
AcDbEntity
  8
CHM-RAYADOS
 62
7
420
15235168
100
AcDbHatch
 10
0.0
 20
0.0
 30
0.0
210
0.0
220
0.0
230
1.0
  2
SOLID
 70
1
 71
0
 91
1
 92
3
 72
0
 73
1
 93
4
 10
3150.0
 20
-1340.0
 10
3400.0
 20
-1340.0
 10
3400.0
 20
-1305.0
 10
3150.0
 20
-1305.0
 97
0
 75
1
 76
1
 98
0
  0
LWPOLYLINE
  5
1F6
330
17
100
AcDbEntity
  8
CHM-PERFIL
370
13
100
AcDbPolyline
 90
4
 70
1
 10
3150.0
 20
-1340.0
 10
3400.0
 20
-1340.0
 10
3400.0
 20
-1305.0
 10
3150.0
 20
-1305.0
  0
TEXT
  5
1F7
330
17
100
AcDbEntity
  8
CHM-TEXTO
100
AcDbText
 10
3450.0
 20
-1340.0
 30
0.0
 40
47.5
  1
Cuña de desvío (59 mm) absorbida por el solape
 11
3450.0
 21
-1340.0
 31
0.0
100
AcDbText
 73
1
  0
TEXT
  5
1F8
330
17
100
AcDbEntity
  8
CHM-TEXTO
100
AcDbText
 10
6500.0
 20
-820.0
 30
0.0
 40
57.49999999999999
  1
NOTAS
 11
6500.0
 21
-820.0
 31
0.0
100
AcDbText
 73
1
  0
TEXT
  5
1F9
330
17
100
AcDbEntity
  8
CHM-TEXTO
100
AcDbText
 10
6500.0
 20
-940.0
 30
0.0
 40
47.5
  1
1. Cotas en mm. Origen O = esquina interior (caras interiores de ambos muros). +X a la
 11
6500.0
 21
-940.0
 31
0.0
100
AcDbText
 73
1
  0
TEXT
  5
1FA
330
17
100
AcDbEntity
  8
CHM-TEXTO
100
AcDbText
 10
6500.0
 20
-1030.0
 30
0.0
 40
47.5
  1
    derecha, +Y hacia el muro de fondo; el cuerpo ocupa X ≥ 0, Y ≤ 0. Z = 0 en el suelo.
 11
6500.0
 21
-1030.0
 31
0.0
100
AcDbText
 73
1
  0
TEXT
  5
1FB
330
17
100
AcDbEntity
  8
CHM-TEXTO
100
AcDbText
 10
6500.0
 20
-1120.0
 30
0.0
 40
47.5
  1
2. Desvío de 2,39° del muro izquierdo (59 mm en 1420): la cara real entra en la sala y
 11
6500.0
 21
-1120.0
 31
0.0
100
AcDbText
 73
1
  0
TEXT
  5
1FC
330
17
100
AcDbEntity
  8
CHM-TEXTO
100
AcDbText
 10
6500.0
 20
-1210.0
 30
0.0
 40
47.5
  1
    el cuerpo ortogonal la solapa por detrás (cuña roja). El anclaje oculto S = 100 cubre
 11
6500.0
 21
-1210.0
 31
0.0
100
AcDbText
 73
1
  0
TEXT
  5
1FD
330
17
100
AcDbEntity
  8
CHM-TEXTO
100
AcDbText
 10
6500.0
 20
-1300.0
 30
0.0
 40
47.5
  1
    además el caso contrario; no queda hueco visible.
 11
6500.0
 21
-1300.0
 31
0.0
100
AcDbText
 73
1
  0
TEXT
  5
1FE
330
17
100
AcDbEntity
  8
CHM-TEXTO
100
AcDbText
 10
6500.0
 20
-1390.0
 30
0.0
 40
47.5
  1
3. Chaflán por catetos CX = 720 y CY = 920: longitud 1168,25 y 51,95°. Hueco centrado.
 11
6500.0
 21
-1390.0
 31
0.0
100
AcDbText
 73
1
  0
TEXT
  5
1FF
330
17
100
AcDbEntity
  8
CHM-TEXTO
100
AcDbText
 10
6500.0
 20
-1480.0
 30
0.0
 40
47.5
  1
4. Sección A–A: corta por M, perpendicular a la cara; llega al muro izquierdo a 1295,2.
 11
6500.0
 21
-1480.0
 31
0.0
100
AcDbText
 73
1
  0
TEXT
  5
200
330
17
100
AcDbEntity
  8
CHM-TEXTO
100
AcDbText
 10
6500.0
 20
-1570.0
 30
0.0
 40
47.5
  1
    La profundidad máxima del cuerpo hasta la esquina O (perpendicular a la cara) es 1394,9.
 11
6500.0
 21
-1570.0
 31
0.0
100
AcDbText
 73
1
  0
TEXT
  5
201
330
17
100
AcDbEntity
  8
CHM-TEXTO
100
AcDbText
 10
6500.0
 20
-1660.0
 30
0.0
 40
47.5
  1
5. Planta cortada a 1200: hogar (400–1000), zócalo y anclaje quedan bajo el corte (discontinuos).
 11
6500.0
 21
-1660.0
 31
0.0
100
AcDbText
 73
1
  0
LWPOLYLINE
  5
202
330
17
100
AcDbEntity
  8
CHM-CAJETIN
100
AcDbPolyline
 90
4
 70
1
 10
-7.105427357601002e-15
 20
-2350.0
 10
9725.034540823615
 20
-2350.0
 10
9725.034540823615
 20
-1900.0
 10
-7.105427357601002e-15
 20
-1900.0
  0
LWPOLYLINE
  5
203
330
17
100
AcDbEntity
  8
CHM-CAJETIN
100
AcDbPolyline
 90
2
 70
0
 10
5825.034540823615
 20
-2350.0
 10
5825.034540823615
 20
-1900.0
  0
TEXT
  5
204
330
17
100
AcDbEntity
  8
CHM-TEXTO
100
AcDbText
 10
49.99999999999999
 20
-2050.0
 30
0.0
 40
97.49664887717454
  1
Chimenea de esquina minimalista — plantilla de calco para la familia de Revit
 11
49.99999999999999
 21
-2050.0
 31
0.0
100
AcDbText
 73
1
  0
TEXT
  5
205
330
17
100
AcDbEntity
  8
CHM-TEXTO
100
AcDbText
 10
49.99999999999999
 20
-2160.0
 30
0.0
 40
47.5
  1
Planta, alzado de la cara diagonal y sección por el eje del hogar — familia: Equipamiento especializado (plantilla Modelo genérico métrico)
 11
49.99999999999999
 21
-2160.0
 31
0.0
100
AcDbText
 73
1
  0
TEXT
  5
206
330
17
100
AcDbEntity
  8
CHM-TEXTO
420
13117480
100
AcDbText
 10
49.99999999999999
 20
-2270.0
 30
0.0
 40
50.0
  1
No es una familia paramétrica: sirve para comprobar posiciones sobre la familia construida
 11
49.99999999999999
 21
-2270.0
 31
0.0
100
AcDbText
 73
1
  0
TEXT
  5
207
330
17
100
AcDbEntity
  8
CHM-TEXTO
100
AcDbText
 10
5875.034540823615
 20
-2050.0
 30
0.0
 40
100.0
  1
ESCALA 1:20
 11
5875.034540823615
 21
-2050.0
 31
0.0
100
AcDbText
 73
1
  0
TEXT
  5
208
330
17
100
AcDbEntity
  8
CHM-TEXTO
100
AcDbText
 10
5875.034540823615
 20
-2160.0
 30
0.0
 40
47.5
  1
Unidades: mm — dibujo a escala real 1:1
 11
5875.034540823615
 21
-2160.0
 31
0.0
100
AcDbText
 73
1
  0
TEXT
  5
209
330
17
100
AcDbEntity
  8
CHM-TEXTO
100
AcDbText
 10
5875.034540823615
 20
-2270.0
 30
0.0
 40
47.5
  1
No se ha probado en Revit
 11
5875.034540823615
 21
-2270.0
 31
0.0
100
AcDbText
 73
1
  0
ENDSEC
  0
SECTION
  2
OBJECTS
  0
DICTIONARY
  5
A
330
0
100
AcDbDictionary
281
1
  3
ACAD_COLOR
350
B
  3
ACAD_GROUP
350
C
  3
ACAD_LAYOUT
350
D
  3
ACAD_MATERIAL
350
E
  3
ACAD_MLEADERSTYLE
350
F
  3
ACAD_MLINESTYLE
350
10
  3
ACAD_PLOTSETTINGS
350
11
  3
ACAD_PLOTSTYLENAME
350
12
  3
ACAD_SCALELIST
350
14
  3
ACAD_TABLESTYLE
350
15
  3
ACAD_VISUALSTYLE
350
16
  3
EZDXF_META
350
2D
  0
DICTIONARY
  5
B
330
A
100
AcDbDictionary
281
1
  0
DICTIONARY
  5
C
330
A
100
AcDbDictionary
281
1
  0
DICTIONARY
  5
D
330
A
100
AcDbDictionary
281
1
  3
Model
350
1A
  3
Layout1
350
1E
  0
DICTIONARY
  5
E
330
A
100
AcDbDictionary
281
1
  3
ByBlock
350
1F
  3
ByLayer
350
20
  3
Global
350
21
  0
DICTIONARY
  5
F
330
A
100
AcDbDictionary
281
1
  3
Standard
350
2C
  0
DICTIONARY
  5
10
330
A
100
AcDbDictionary
281
1
  3
Standard
350
22
  0
DICTIONARY
  5
11
330
A
100
AcDbDictionary
281
1
  0
ACDBDICTIONARYWDFLT
  5
12
330
A
100
AcDbDictionary
281
1
  3
Normal
350
13
100
AcDbDictionaryWithDefault
340
13
  0
ACDBPLACEHOLDER
  5
13
330
12
  0
DICTIONARY
  5
14
330
A
100
AcDbDictionary
281
1
  0
DICTIONARY
  5
15
330
A
100
AcDbDictionary
281
1
  0
DICTIONARY
  5
16
330
A
100
AcDbDictionary
281
1
  3
2dWireframe
350
5A
  3
Basic
350
5B
  3
Brighten
350
5C
  3
ColorChange
350
5D
  3
Conceptual
350
5E
  3
Dim
350
5F
  3
EdgeColorOff
350
60
  3
Facepattern
350
61
  3
Flat
350
62
  3
FlatWithEdges
350
63
  3
Gouraud
350
64
  3
GouraudWithEdges
350
65
  3
Hidden
350
66
  3
JitterOff
350
67
  3
Linepattern
350
68
  3
Modeling
350
69
  3
OverhangOff
350
6A
  3
Realistic
350
6B
  3
Shaded
350
6C
  3
Shaded with edges
350
6D
  3
Shades of Gray
350
6E
  3
Sketchy
350
6F
  3
Thicken
350
70
  3
Wireframe
350
71
  3
X-Ray
350
72
  0
LAYOUT
  5
1A
330
D
100
AcDbPlotSettings
  1

  4
A3
  6

 40
7.5
 41
20.0
 42
7.5
 43
20.0
 44
420.0
 45
297.0
 46
0.0
 47
0.0
 48
0.0
 49
0.0
140
0.0
141
0.0
142
1.0
143
1.0
 70
1024
 72
1
 73
0
 74
5
  7

 75
16
 76
0
 77
2
 78
300
147
1.0
148
0.0
149
0.0
100
AcDbLayout
  1
Model
 70
1
 71
0
 10
0.0
 20
0.0
 11
420.0
 21
297.0
 12
0.0
 22
0.0
 32
0.0
 14
1e+20
 24
1e+20
 34
1e+20
 15
-1e+20
 25
-1e+20
 35
-1e+20
146
0.0
 13
0.0
 23
0.0
 33
0.0
 16
1.0
 26
0.0
 36
0.0
 17
0.0
 27
1.0
 37
0.0
 76
1
330
17
  0
LAYOUT
  5
1E
330
D
100
AcDbPlotSettings
  1

  4
A3
  6

 40
7.5
 41
20.0
 42
7.5
 43
20.0
 44
420.0
 45
297.0
 46
0.0
 47
0.0
 48
0.0
 49
0.0
140
0.0
141
0.0
142
1.0
143
1.0
 70
0
 72
1
 73
0
 74
5
  7

 75
16
 76
0
 77
2
 78
300
147
1.0
148
0.0
149
0.0
100
AcDbLayout
  1
Layout1
 70
1
 71
1
 10
0.0
 20
0.0
 11
420.0
 21
297.0
 12
0.0
 22
0.0
 32
0.0
 14
1e+20
 24
1e+20
 34
1e+20
 15
-1e+20
 25
-1e+20
 35
-1e+20
146
0.0
 13
0.0
 23
0.0
 33
0.0
 16
1.0
 26
0.0
 36
0.0
 17
0.0
 27
1.0
 37
0.0
 76
1
330
1B
  0
MATERIAL
  5
1F
102
{ACAD_REACTORS
330
E
102
}
330
E
100
AcDbMaterial
  1
ByBlock
  2

 70
0
 40
1.0
 71
1
 41
1.0
 91
-1023410177
 42
1.0
 72
1
  3

 73
1
 74
1
 75
1
 44
0.5
 73
0
 45
1.0
 46
1.0
 77
1
  4

 78
1
 79
1
170
1
 48
1.0
171
1
  6

172
1
173
1
174
1
140
1.0
141
1.0
175
1
  7

176
1
177
1
178
1
143
1.0
179
1
  8

270
1
271
1
272
1
145
1.0
146
1.0
273
1
  9

274
1
275
1
276
1
 42
1.0
 72
1
  3

 73
1
 74
1
 75
1
 94
63
  0
MATERIAL
  5
20
102
{ACAD_REACTORS
330
E
102
}
330
E
100
AcDbMaterial
  1
ByLayer
  2

 70
0
 40
1.0
 71
1
 41
1.0
 91
-1023410177
 42
1.0
 72
1
  3

 73
1
 74
1
 75
1
 44
0.5
 73
0
 45
1.0
 46
1.0
 77
1
  4

 78
1
 79
1
170
1
 48
1.0
171
1
  6

172
1
173
1
174
1
140
1.0
141
1.0
175
1
  7

176
1
177
1
178
1
143
1.0
179
1
  8

270
1
271
1
272
1
145
1.0
146
1.0
273
1
  9

274
1
275
1
276
1
 42
1.0
 72
1
  3

 73
1
 74
1
 75
1
 94
63
  0
MATERIAL
  5
21
102
{ACAD_REACTORS
330
E
102
}
330
E
100
AcDbMaterial
  1
Global
  2

 70
0
 40
1.0
 71
1
 41
1.0
 91
-1023410177
 42
1.0
 72
1
  3

 73
1
 74
1
 75
1
 44
0.5
 73
0
 45
1.0
 46
1.0
 77
1
  4

 78
1
 79
1
170
1
 48
1.0
171
1
  6

172
1
173
1
174
1
140
1.0
141
1.0
175
1
  7

176
1
177
1
178
1
143
1.0
179
1
  8

270
1
271
1
272
1
145
1.0
146
1.0
273
1
  9

274
1
275
1
276
1
 42
1.0
 72
1
  3

 73
1
 74
1
 75
1
 94
63
  0
MLINESTYLE
  5
22
102
{ACAD_REACTORS
330
10
102
}
330
10
100
AcDbMlineStyle
  2
Standard
 70
0
  3

 62
256
 51
90.0
 52
90.0
 71
2
 49
0.5
 62
256
  6
BYLAYER
 49
-0.5
 62
256
  6
BYLAYER
  0
MLEADERSTYLE
  5
2C
102
{ACAD_REACTORS
330
F
102
}
330
F
100
AcDbMLeaderStyle
179
2
170
2
171
1
172
0
 90
2
 40
0.0
 41
0.0
173
1
 91
-1056964608
 92
-2
290
1
 42
2.0
291
1
 43
8.0
  3
Standard
 44
4.0
300

342
29
174
1
175
1
176
0
178
1
 93
-1056964608
 45
4.0
292
0
297
0
 46
4.0
 94
-1056964608
 47
1.0
 49
1.0
140
1.0
294
1
141
0.0
177
0
142
1.0
295
0
296
0
143
3.75
271
0
272
9
273
9
  0
DICTIONARY
  5
2D
330
A
100
AcDbDictionary
280
1
281
1
  3
CREATED_BY_EZDXF
350
2E
  3
WRITTEN_BY_EZDXF
350
20D
  0
DICTIONARYVAR
  5
2E
330
2D
100
DictionaryVariables
280
0
  1
1.4.4 @ 2026-10-07T16:47:15.474105+00:00
  0
VISUALSTYLE
  5
5A
102
{ACAD_REACTORS
330
16
102
}
330
16
100
AcDbVisualStyle
  2
2dWireframe
 70
4
177
3
291
0
 70
58
 90
2
176
1
 90
2
176
1
 90
0
176
1
 90
0
176
1
 40
0.6
176
1
 40
30.0
176
1
 62
7
420
16777215
176
1
 90
1
176
1
 90
4
176
1
 62
7
176
1
 62
257
176
1
 90
1
176
1
 90
1
176
1
 40
1.0
176
1
 90
8
176
1
 62
7
176
1
 40
1.0
176
1
 90
1
176
1
 90
6
176
1
 90
2
176
1
 62
7
176
1
 90
5
176
1
 90
0
176
1
 90
0
176
1
290
0
176
1
 90
1
176
1
 40
0.0
176
1
 90
0
176
1
290
1
176
1
290
1
176
1
290
0
176
1
290
0
176
1
290
0
176
1
290
0
176
1
290
0
176
1
290
0
176
1
290
0
176
1
 90
50
176
1
 40
0.0
176
1
 40
1.0
176
1
 90
0
176
1
 62
18
420
0
176
1
 90
50
176
1
 90
3
176
1
 62
5
420
255
176
1
290
0
176
1
 90
50
176
1
 90
50
176
1
 90
50
176
1
290
0
176
1
 90
50
176
1
 62
256
176
0
 40
1.0
176
0
 90
2
176
1
  1
strokes_ogs.tif
176
1
290
0
176
1
 40
1.0
176
1
 40
1.0
176
1
  0
VISUALSTYLE
  5
5B
102
{ACAD_REACTORS
330
16
102
}
330
16
100
AcDbVisualStyle
  2
Basic
 70
7
177
3
291
1
 70
58
 90
2
176
1
 90
2
176
1
 90
0
176
1
 90
1
176
1
 40
0.6
176
1
 40
30.0
176
1
 62
7
420
16777215
176
1
 90
1
176
1
 90
4
176
1
 62
7
176
1
 62
257
176
1
 90
1
176
1
 90
1
176
1
 40
1.0
176
1
 90
8
176
1
 62
7
176
1
 40
1.0
176
1
 90
1
176
1
 90
6
176
1
 90
2
176
1
 62
7
176
1
 90
5
176
1
 90
0
176
1
 90
0
176
1
290
0
176
1
 90
1
176
1
 40
0.0
176
1
 90
0
176
1
290
0
176
1
290
1
176
1
290
1
176
1
290
0
176
1
290
0
176
1
290
0
176
1
290
0
176
1
290
0
176
1
290
0
176
1
 90
50
176
1
 40
0.0
176
1
 40
1.0
176
1
 90
0
176
1
 62
18
420
0
176
1
 90
50
176
1
 90
3
176
1
 62
5
420
255
176
1
290
0
176
1
 90
50
176
1
 90
50
176
1
 90
50
176
1
290
0
176
1
 90
50
176
1
 62
256
176
0
 40
1.0
176
0
 90
2
176
1
  1
strokes_ogs.tif
176
1
290
0
176
1
 40
1.0
176
1
 40
1.0
176
1
  0
VISUALSTYLE
  5
5C
102
{ACAD_REACTORS
330
16
102
}
330
16
100
AcDbVisualStyle
  2
Brighten
 70
12
177
3
291
1
 70
58
 90
2
176
1
 90
2
176
1
 90
0
176
1
 90
2
176
1
 40
0.6
176
1
 40
30.0
176
1
 62
7
420
16777215
176
1
 90
1
176
1
 90
4
176
1
 62
7
176
1
 62
257
176
1
 90
1
176
1
 90
1
176
1
 40
1.0
176
1
 90
8
176
1
 62
7
176
1
 40
1.0
176
1
 90
1
176
1
 90
6
176
1
 90
2
176
1
 62
7
176
1
 90
5
176
1
 90
0
176
1
 90
0
176
1
290
0
176
1
 90
1
176
1
 40
0.0
176
1
 90
0
176
1
290
0
176
1
290
1
176
1
290
1
176
1
290
0
176
1
290
0
176
1
290
0
176
1
290
0
176
1
290
0
176
1
290
0
176
1
 90
50
176
1
 40
0.0
176
1
 40
1.0
176
1
 90
0
176
1
 62
18
420
0
176
1
 90
50
176
1
 90
3
176
1
 62
5
420
255
176
1
290
0
176
1
 90
50
176
1
 90
50
176
1
 90
50
176
1
290
0
176
1
 90
50
176
1
 62
256
176
0
 40
1.0
176
0
 90
2
176
1
  1
strokes_ogs.tif
176
1
290
0
176
1
 40
1.0
176
1
 40
1.0
176
1
  0
VISUALSTYLE
  5
5D
102
{ACAD_REACTORS
330
16
102
}
330
16
100
AcDbVisualStyle
  2
ColorChange
 70
16
177
3
291
1
 70
58
 90
2
176
1
 90
2
176
1
 90
0
176
1
 90
2
176
1
 40
0.6
176
1
 40
30.0
176
1
 62
7
420
16777215
176
1
 90
1
176
1
 90
4
176
1
 62
7
176
1
 62
257
176
1
 90
1
176
1
 90
1
176
1
 40
1.0
176
1
 90
8
176
1
 62
7
176
1
 40
1.0
176
1
 90
1
176
1
 90
6
176
1
 90
2
176
1
 62
7
176
1
 90
5
176
1
 90
0
176
1
 90
0
176
1
290
0
176
1
 90
1
176
1
 40
0.0
176
1
 90
0
176
1
290
0
176
1
290
1
176
1
290
1
176
1
290
0
176
1
290
0
176
1
290
0
176
1
290
0
176
1
290
0
176
1
290
0
176
1
 90
50
176
1
 40
0.0
176
1
 40
1.0
176
1
 90
0
176
1
 62
18
420
0
176
1
 90
50
176
1
 90
3
176
1
 62
5
420
255
176
1
290
0
176
1
 90
50
176
1
 90
50
176
1
 90
50
176
1
290
0
176
1
 90
50
176
1
 62
256
176
0
 40
1.0
176
0
 90
2
176
1
  1
strokes_ogs.tif
176
1
290
0
176
1
 40
1.0
176
1
 40
1.0
176
1
  0
VISUALSTYLE
  5
5E
102
{ACAD_REACTORS
330
16
102
}
330
16
100
AcDbVisualStyle
  2
Conceptual
 70
9
177
3
291
0
 70
58
 90
2
176
1
 90
2
176
1
 90
0
176
1
 90
3
176
1
 40
0.6
176
1
 40
30.0
176
1
 62
7
420
16777215
176
1
 90
1
176
1
 90
4
176
1
 62
7
176
1
 62
257
176
1
 90
1
176
1
 90
1
176
1
 40
1.0
176
1
 90
8
176
1
 62
7
176
1
 40
1.0
176
1
 90
1
176
1
 90
6
176
1
 90
2
176
1
 62
7
176
1
 90
5
176
1
 90
0
176
1
 90
0
176
1
290
0
176
1
 90
1
176
1
 40
0.0
176
1
 90
0
176
1
290
0
176
1
290
1
176
1
290
1
176
1
290
0
176
1
290
0
176
1
290
0
176
1
290
0
176
1
290
0
176
1
290
0
176
1
 90
50
176
1
 40
0.0
176
1
 40
1.0
176
1
 90
0
176
1
 62
18
420
0
176
1
 90
50
176
1
 90
3
176
1
 62
5
420
255
176
1
290
0
176
1
 90
50
176
1
 90
50
176
1
 90
50
176
1
290
0
176
1
 90
50
176
1
 62
256
176
0
 40
1.0
176
0
 90
2
176
1
  1
strokes_ogs.tif
176
1
290
0
176
1
 40
1.0
176
1
 40
1.0
176
1
  0
VISUALSTYLE
  5
5F
102
{ACAD_REACTORS
330
16
102
}
330
16
100
AcDbVisualStyle
  2
Dim
 70
11
177
3
291
1
 70
58
 90
2
176
1
 90
2
176
1
 90
0
176
1
 90
2
176
1
 40
0.6
176
1
 40
30.0
176
1
 62
7
420
16777215
176
1
 90
1
176
1
 90
4
176
1
 62
7
176
1
 62
257
176
1
 90
1
176
1
 90
1
176
1
 40
1.0
176
1
 90
8
176
1
 62
7
176
1
 40
1.0
176
1
 90
1
176
1
 90
6
176
1
 90
2
176
1
 62
7
176
1
 90
5
176
1
 90
0
176
1
 90
0
176
1
290
0
176
1
 90
1
176
1
 40
0.0
176
1
 90
0
176
1
290
0
176
1
290
1
176
1
290
1
176
1
290
0
176
1
290
0
176
1
290
0
176
1
290
0
176
1
290
0
176
1
290
0
176
1
 90
50
176
1
 40
0.0
176
1
 40
1.0
176
1
 90
0
176
1
 62
18
420
0
176
1
 90
50
176
1
 90
3
176
1
 62
5
420
255
176
1
290
0
176
1
 90
50
176
1
 90
50
176
1
 90
50
176
1
290
0
176
1
 90
50
176
1
 62
256
176
0
 40
1.0
176
0
 90
2
176
1
  1
strokes_ogs.tif
176
1
290
0
176
1
 40
1.0
176
1
 40
1.0
176
1
  0
VISUALSTYLE
  5
60
102
{ACAD_REACTORS
330
16
102
}
330
16
100
AcDbVisualStyle
  2
EdgeColorOff
 70
22
177
3
291
1
 70
58
 90
2
176
1
 90
2
176
1
 90
0
176
1
 90
2
176
1
 40
0.6
176
1
 40
30.0
176
1
 62
7
420
16777215
176
1
 90
1
176
1
 90
4
176
1
 62
7
176
1
 62
257
176
1
 90
1
176
1
 90
1
176
1
 40
1.0
176
1
 90
8
176
1
 62
7
176
1
 40
1.0
176
1
 90
1
176
1
 90
6
176
1
 90
2
176
1
 62
7
176
1
 90
5
176
1
 90
0
176
1
 90
0
176
1
290
0
176
1
 90
1
176
1
 40
0.0
176
1
 90
0
176
1
290
0
176
1
290
1
176
1
290
1
176
1
290
0
176
1
290
0
176
1
290
0
176
1
290
0
176
1
290
0
176
1
290
0
176
1
 90
50
176
1
 40
0.0
176
1
 40
1.0
176
1
 90
0
176
1
 62
18
420
0
176
1
 90
50
176
1
 90
3
176
1
 62
5
420
255
176
1
290
0
176
1
 90
50
176
1
 90
50
176
1
 90
50
176
1
290
0
176
1
 90
50
176
1
 62
256
176
0
 40
1.0
176
0
 90
2
176
1
  1
strokes_ogs.tif
176
1
290
0
176
1
 40
1.0
176
1
 40
1.0
176
1
  0
VISUALSTYLE
  5
61
102
{ACAD_REACTORS
330
16
102
}
330
16
100
AcDbVisualStyle
  2
Facepattern
 70
15
177
3
291
1
 70
58
 90
2
176
1
 90
2
176
1
 90
0
176
1
 90
2
176
1
 40
0.6
176
1
 40
30.0
176
1
 62
7
420
16777215
176
1
 90
1
176
1
 90
4
176
1
 62
7
176
1
 62
257
176
1
 90
1
176
1
 90
1
176
1
 40
1.0
176
1
 90
8
176
1
 62
7
176
1
 40
1.0
176
1
 90
1
176
1
 90
6
176
1
 90
2
176
1
 62
7
176
1
 90
5
176
1
 90
0
176
1
 90
0
176
1
290
0
176
1
 90
1
176
1
 40
0.0
176
1
 90
0
176
1
290
0
176
1
290
1
176
1
290
1
176
1
290
0
176
1
290
0
176
1
290
0
176
1
290
0
176
1
290
0
176
1
290
0
176
1
 90
50
176
1
 40
0.0
176
1
 40
1.0
176
1
 90
0
176
1
 62
18
420
0
176
1
 90
50
176
1
 90
3
176
1
 62
5
420
255
176
1
290
0
176
1
 90
50
176
1
 90
50
176
1
 90
50
176
1
290
0
176
1
 90
50
176
1
 62
256
176
0
 40
1.0
176
0
 90
2
176
1
  1
strokes_ogs.tif
176
1
290
0
176
1
 40
1.0
176
1
 40
1.0
176
1
  0
VISUALSTYLE
  5
62
102
{ACAD_REACTORS
330
16
102
}
330
16
100
AcDbVisualStyle
  2
Flat
 70
0
177
3
291
1
 70
58
 90
2
176
1
 90
2
176
1
 90
0
176
1
 90
2
176
1
 40
0.6
176
1
 40
30.0
176
1
 62
7
420
16777215
176
1
 90
1
176
1
 90
4
176
1
 62
7
176
1
 62
257
176
1
 90
1
176
1
 90
1
176
1
 40
1.0
176
1
 90
8
176
1
 62
7
176
1
 40
1.0
176
1
 90
1
176
1
 90
6
176
1
 90
2
176
1
 62
7
176
1
 90
5
176
1
 90
0
176
1
 90
0
176
1
290
0
176
1
 90
1
176
1
 40
0.0
176
1
 90
0
176
1
290
0
176
1
290
1
176
1
290
1
176
1
290
0
176
1
290
0
176
1
290
0
176
1
290
0
176
1
290
0
176
1
290
0
176
1
 90
50
176
1
 40
0.0
176
1
 40
1.0
176
1
 90
0
176
1
 62
18
420
0
176
1
 90
50
176
1
 90
3
176
1
 62
5
420
255
176
1
290
0
176
1
 90
50
176
1
 90
50
176
1
 90
50
176
1
290
0
176
1
 90
50
176
1
 62
256
176
0
 40
1.0
176
0
 90
2
176
1
  1
strokes_ogs.tif
176
1
290
0
176
1
 40
1.0
176
1
 40
1.0
176
1
  0
VISUALSTYLE
  5
63
102
{ACAD_REACTORS
330
16
102
}
330
16
100
AcDbVisualStyle
  2
FlatWithEdges
 70
1
177
3
291
1
 70
58
 90
2
176
1
 90
2
176
1
 90
0
176
1
 90
2
176
1
 40
0.6
176
1
 40
30.0
176
1
 62
7
420
16777215
176
1
 90
1
176
1
 90
4
176
1
 62
7
176
1
 62
257
176
1
 90
1
176
1
 90
1
176
1
 40
1.0
176
1
 90
8
176
1
 62
7
176
1
 40
1.0
176
1
 90
1
176
1
 90
6
176
1
 90
2
176
1
 62
7
176
1
 90
5
176
1
 90
0
176
1
 90
0
176
1
290
0
176
1
 90
1
176
1
 40
0.0
176
1
 90
0
176
1
290
0
176
1
290
1
176
1
290
1
176
1
290
0
176
1
290
0
176
1
290
0
176
1
290
0
176
1
290
0
176
1
290
0
176
1
 90
50
176
1
 40
0.0
176
1
 40
1.0
176
1
 90
0
176
1
 62
18
420
0
176
1
 90
50
176
1
 90
3
176
1
 62
5
420
255
176
1
290
0
176
1
 90
50
176
1
 90
50
176
1
 90
50
176
1
290
0
176
1
 90
50
176
1
 62
256
176
0
 40
1.0
176
0
 90
2
176
1
  1
strokes_ogs.tif
176
1
290
0
176
1
 40
1.0
176
1
 40
1.0
176
1
  0
VISUALSTYLE
  5
64
102
{ACAD_REACTORS
330
16
102
}
330
16
100
AcDbVisualStyle
  2
Gouraud
 70
2
177
3
291
1
 70
58
 90
2
176
1
 90
2
176
1
 90
0
176
1
 90
2
176
1
 40
0.6
176
1
 40
30.0
176
1
 62
7
420
16777215
176
1
 90
1
176
1
 90
4
176
1
 62
7
176
1
 62
257
176
1
 90
1
176
1
 90
1
176
1
 40
1.0
176
1
 90
8
176
1
 62
7
176
1
 40
1.0
176
1
 90
1
176
1
 90
6
176
1
 90
2
176
1
 62
7
176
1
 90
5
176
1
 90
0
176
1
 90
0
176
1
290
0
176
1
 90
1
176
1
 40
0.0
176
1
 90
0
176
1
290
0
176
1
290
1
176
1
290
1
176
1
290
0
176
1
290
0
176
1
290
0
176
1
290
0
176
1
290
0
176
1
290
0
176
1
 90
50
176
1
 40
0.0
176
1
 40
1.0
176
1
 90
0
176
1
 62
18
420
0
176
1
 90
50
176
1
 90
3
176
1
 62
5
420
255
176
1
290
0
176
1
 90
50
176
1
 90
50
176
1
 90
50
176
1
290
0
176
1
 90
50
176
1
 62
256
176
0
 40
1.0
176
0
 90
2
176
1
  1
strokes_ogs.tif
176
1
290
0
176
1
 40
1.0
176
1
 40
1.0
176
1
  0
VISUALSTYLE
  5
65
102
{ACAD_REACTORS
330
16
102
}
330
16
100
AcDbVisualStyle
  2
GouraudWithEdges
 70
3
177
3
291
1
 70
58
 90
2
176
1
 90
2
176
1
 90
0
176
1
 90
2
176
1
 40
0.6
176
1
 40
30.0
176
1
 62
7
420
16777215
176
1
 90
1
176
1
 90
4
176
1
 62
7
176
1
 62
257
176
1
 90
1
176
1
 90
1
176
1
 40
1.0
176
1
 90
8
176
1
 62
7
176
1
 40
1.0
176
1
 90
1
176
1
 90
6
176
1
 90
2
176
1
 62
7
176
1
 90
5
176
1
 90
0
176
1
 90
0
176
1
290
0
176
1
 90
1
176
1
 40
0.0
176
1
 90
0
176
1
290
0
176
1
290
1
176
1
290
1
176
1
290
0
176
1
290
0
176
1
290
0
176
1
290
0
176
1
290
0
176
1
290
0
176
1
 90
50
176
1
 40
0.0
176
1
 40
1.0
176
1
 90
0
176
1
 62
18
420
0
176
1
 90
50
176
1
 90
3
176
1
 62
5
420
255
176
1
290
0
176
1
 90
50
176
1
 90
50
176
1
 90
50
176
1
290
0
176
1
 90
50
176
1
 62
256
176
0
 40
1.0
176
0
 90
2
176
1
  1
strokes_ogs.tif
176
1
290
0
176
1
 40
1.0
176
1
 40
1.0
176
1
  0
VISUALSTYLE
  5
66
102
{ACAD_REACTORS
330
16
102
}
330
16
100
AcDbVisualStyle
  2
Hidden
 70
6
177
3
291
0
 70
58
 90
2
176
1
 90
2
176
1
 90
0
176
1
 90
1
176
1
 40
0.6
176
1
 40
30.0
176
1
 62
7
420
16777215
176
1
 90
1
176
1
 90
4
176
1
 62
7
176
1
 62
257
176
1
 90
1
176
1
 90
1
176
1
 40
1.0
176
1
 90
8
176
1
 62
7
176
1
 40
1.0
176
1
 90
1
176
1
 90
6
176
1
 90
2
176
1
 62
7
176
1
 90
5
176
1
 90
0
176
1
 90
0
176
1
290
0
176
1
 90
1
176
1
 40
0.0
176
1
 90
0
176
1
290
0
176
1
290
1
176
1
290
1
176
1
290
0
176
1
290
0
176
1
290
0
176
1
290
0
176
1
290
0
176
1
290
0
176
1
 90
50
176
1
 40
0.0
176
1
 40
1.0
176
1
 90
0
176
1
 62
18
420
0
176
1
 90
50
176
1
 90
3
176
1
 62
5
420
255
176
1
290
0
176
1
 90
50
176
1
 90
50
176
1
 90
50
176
1
290
0
176
1
 90
50
176
1
 62
256
176
0
 40
1.0
176
0
 90
2
176
1
  1
strokes_ogs.tif
176
1
290
0
176
1
 40
1.0
176
1
 40
1.0
176
1
  0
VISUALSTYLE
  5
67
102
{ACAD_REACTORS
330
16
102
}
330
16
100
AcDbVisualStyle
  2
JitterOff
 70
20
177
3
291
1
 70
58
 90
2
176
1
 90
2
176
1
 90
0
176
1
 90
2
176
1
 40
0.6
176
1
 40
30.0
176
1
 62
7
420
16777215
176
1
 90
1
176
1
 90
4
176
1
 62
7
176
1
 62
257
176
1
 90
1
176
1
 90
1
176
1
 40
1.0
176
1
 90
8
176
1
 62
7
176
1
 40
1.0
176
1
 90
1
176
1
 90
6
176
1
 90
2
176
1
 62
7
176
1
 90
5
176
1
 90
0
176
1
 90
0
176
1
290
0
176
1
 90
1
176
1
 40
0.0
176
1
 90
0
176
1
290
0
176
1
290
1
176
1
290
1
176
1
290
0
176
1
290
0
176
1
290
0
176
1
290
0
176
1
290
0
176
1
290
0
176
1
 90
50
176
1
 40
0.0
176
1
 40
1.0
176
1
 90
0
176
1
 62
18
420
0
176
1
 90
50
176
1
 90
3
176
1
 62
5
420
255
176
1
290
0
176
1
 90
50
176
1
 90
50
176
1
 90
50
176
1
290
0
176
1
 90
50
176
1
 62
256
176
0
 40
1.0
176
0
 90
2
176
1
  1
strokes_ogs.tif
176
1
290
0
176
1
 40
1.0
176
1
 40
1.0
176
1
  0
VISUALSTYLE
  5
68
102
{ACAD_REACTORS
330
16
102
}
330
16
100
AcDbVisualStyle
  2
Linepattern
 70
14
177
3
291
1
 70
58
 90
2
176
1
 90
2
176
1
 90
0
176
1
 90
2
176
1
 40
0.6
176
1
 40
30.0
176
1
 62
7
420
16777215
176
1
 90
1
176
1
 90
4
176
1
 62
7
176
1
 62
257
176
1
 90
1
176
1
 90
1
176
1
 40
1.0
176
1
 90
8
176
1
 62
7
176
1
 40
1.0
176
1
 90
1
176
1
 90
6
176
1
 90
2
176
1
 62
7
176
1
 90
5
176
1
 90
0
176
1
 90
0
176
1
290
0
176
1
 90
1
176
1
 40
0.0
176
1
 90
0
176
1
290
0
176
1
290
1
176
1
290
1
176
1
290
0
176
1
290
0
176
1
290
0
176
1
290
0
176
1
290
0
176
1
290
0
176
1
 90
50
176
1
 40
0.0
176
1
 40
1.0
176
1
 90
0
176
1
 62
18
420
0
176
1
 90
50
176
1
 90
3
176
1
 62
5
420
255
176
1
290
0
176
1
 90
50
176
1
 90
50
176
1
 90
50
176
1
290
0
176
1
 90
50
176
1
 62
256
176
0
 40
1.0
176
0
 90
2
176
1
  1
strokes_ogs.tif
176
1
290
0
176
1
 40
1.0
176
1
 40
1.0
176
1
  0
VISUALSTYLE
  5
69
102
{ACAD_REACTORS
330
16
102
}
330
16
100
AcDbVisualStyle
  2
Modeling
 70
10
177
3
291
0
 70
58
 90
2
176
1
 90
2
176
1
 90
0
176
1
 90
2
176
1
 40
0.6
176
1
 40
30.0
176
1
 62
7
420
16777215
176
1
 90
1
176
1
 90
4
176
1
 62
7
176
1
 62
257
176
1
 90
1
176
1
 90
1
176
1
 40
1.0
176
1
 90
8
176
1
 62
7
176
1
 40
1.0
176
1
 90
1
176
1
 90
6
176
1
 90
2
176
1
 62
7
176
1
 90
5
176
1
 90
0
176
1
 90
0
176
1
290
0
176
1
 90
1
176
1
 40
0.0
176
1
 90
0
176
1
290
0
176
1
290
1
176
1
290
1
176
1
290
0
176
1
290
0
176
1
290
0
176
1
290
0
176
1
290
0
176
1
290
0
176
1
 90
50
176
1
 40
0.0
176
1
 40
1.0
176
1
 90
0
176
1
 62
18
420
0
176
1
 90
50
176
1
 90
3
176
1
 62
5
420
255
176
1
290
0
176
1
 90
50
176
1
 90
50
176
1
 90
50
176
1
290
0
176
1
 90
50
176
1
 62
256
176
0
 40
1.0
176
0
 90
2
176
1
  1
strokes_ogs.tif
176
1
290
0
176
1
 40
1.0
176
1
 40
1.0
176
1
  0
VISUALSTYLE
  5
6A
102
{ACAD_REACTORS
330
16
102
}
330
16
100
AcDbVisualStyle
  2
OverhangOff
 70
21
177
3
291
1
 70
58
 90
2
176
1
 90
2
176
1
 90
0
176
1
 90
2
176
1
 40
0.6
176
1
 40
30.0
176
1
 62
7
420
16777215
176
1
 90
1
176
1
 90
4
176
1
 62
7
176
1
 62
257
176
1
 90
1
176
1
 90
1
176
1
 40
1.0
176
1
 90
8
176
1
 62
7
176
1
 40
1.0
176
1
 90
1
176
1
 90
6
176
1
 90
2
176
1
 62
7
176
1
 90
5
176
1
 90
0
176
1
 90
0
176
1
290
0
176
1
 90
1
176
1
 40
0.0
176
1
 90
0
176
1
290
0
176
1
290
1
176
1
290
1
176
1
290
0
176
1
290
0
176
1
290
0
176
1
290
0
176
1
290
0
176
1
290
0
176
1
 90
50
176
1
 40
0.0
176
1
 40
1.0
176
1
 90
0
176
1
 62
18
420
0
176
1
 90
50
176
1
 90
3
176
1
 62
5
420
255
176
1
290
0
176
1
 90
50
176
1
 90
50
176
1
 90
50
176
1
290
0
176
1
 90
50
176
1
 62
256
176
0
 40
1.0
176
0
 90
2
176
1
  1
strokes_ogs.tif
176
1
290
0
176
1
 40
1.0
176
1
 40
1.0
176
1
  0
VISUALSTYLE
  5
6B
102
{ACAD_REACTORS
330
16
102
}
330
16
100
AcDbVisualStyle
  2
Realistic
 70
8
177
3
291
0
 70
58
 90
2
176
1
 90
2
176
1
 90
0
176
1
 90
2
176
1
 40
0.6
176
1
 40
30.0
176
1
 62
7
420
16777215
176
1
 90
1
176
1
 90
4
176
1
 62
7
176
1
 62
257
176
1
 90
1
176
1
 90
1
176
1
 40
1.0
176
1
 90
8
176
1
 62
7
176
1
 40
1.0
176
1
 90
1
176
1
 90
6
176
1
 90
2
176
1
 62
7
176
1
 90
5
176
1
 90
0
176
1
 90
0
176
1
290
0
176
1
 90
1
176
1
 40
0.0
176
1
 90
0
176
1
290
0
176
1
290
1
176
1
290
1
176
1
290
0
176
1
290
0
176
1
290
0
176
1
290
0
176
1
290
0
176
1
290
0
176
1
 90
50
176
1
 40
0.0
176
1
 40
1.0
176
1
 90
0
176
1
 62
18
420
0
176
1
 90
50
176
1
 90
3
176
1
 62
5
420
255
176
1
290
0
176
1
 90
50
176
1
 90
50
176
1
 90
50
176
1
290
0
176
1
 90
50
176
1
 62
256
176
0
 40
1.0
176
0
 90
2
176
1
  1
strokes_ogs.tif
176
1
290
0
176
1
 40
1.0
176
1
 40
1.0
176
1
  0
VISUALSTYLE
  5
6C
102
{ACAD_REACTORS
330
16
102
}
330
16
100
AcDbVisualStyle
  2
Shaded
 70
27
177
3
291
0
 70
58
 90
2
176
1
 90
2
176
1
 90
0
176
1
 90
2
176
1
 40
0.6
176
1
 40
30.0
176
1
 62
7
420
16777215
176
1
 90
1
176
1
 90
4
176
1
 62
7
176
1
 62
257
176
1
 90
1
176
1
 90
1
176
1
 40
1.0
176
1
 90
8
176
1
 62
7
176
1
 40
1.0
176
1
 90
1
176
1
 90
6
176
1
 90
2
176
1
 62
7
176
1
 90
5
176
1
 90
0
176
1
 90
0
176
1
290
0
176
1
 90
1
176
1
 40
0.0
176
1
 90
0
176
1
290
0
176
1
290
1
176
1
290
1
176
1
290
0
176
1
290
0
176
1
290
0
176
1
290
0
176
1
290
0
176
1
290
0
176
1
 90
50
176
1
 40
0.0
176
1
 40
1.0
176
1
 90
0
176
1
 62
18
420
0
176
1
 90
50
176
1
 90
3
176
1
 62
5
420
255
176
1
290
0
176
1
 90
50
176
1
 90
50
176
1
 90
50
176
1
290
0
176
1
 90
50
176
1
 62
256
176
0
 40
1.0
176
0
 90
2
176
1
  1
strokes_ogs.tif
176
1
290
0
176
1
 40
1.0
176
1
 40
1.0
176
1
  0
VISUALSTYLE
  5
6D
102
{ACAD_REACTORS
330
16
102
}
330
16
100
AcDbVisualStyle
  2
Shaded with edges
 70
26
177
3
291
0
 70
58
 90
2
176
1
 90
2
176
1
 90
0
176
1
 90
2
176
1
 40
0.6
176
1
 40
30.0
176
1
 62
7
420
16777215
176
1
 90
1
176
1
 90
4
176
1
 62
7
176
1
 62
257
176
1
 90
1
176
1
 90
1
176
1
 40
1.0
176
1
 90
8
176
1
 62
7
176
1
 40
1.0
176
1
 90
1
176
1
 90
6
176
1
 90
2
176
1
 62
7
176
1
 90
5
176
1
 90
0
176
1
 90
0
176
1
290
0
176
1
 90
1
176
1
 40
0.0
176
1
 90
0
176
1
290
0
176
1
290
1
176
1
290
1
176
1
290
0
176
1
290
0
176
1
290
0
176
1
290
0
176
1
290
0
176
1
290
0
176
1
 90
50
176
1
 40
0.0
176
1
 40
1.0
176
1
 90
0
176
1
 62
18
420
0
176
1
 90
50
176
1
 90
3
176
1
 62
5
420
255
176
1
290
0
176
1
 90
50
176
1
 90
50
176
1
 90
50
176
1
290
0
176
1
 90
50
176
1
 62
256
176
0
 40
1.0
176
0
 90
2
176
1
  1
strokes_ogs.tif
176
1
290
0
176
1
 40
1.0
176
1
 40
1.0
176
1
  0
VISUALSTYLE
  5
6E
102
{ACAD_REACTORS
330
16
102
}
330
16
100
AcDbVisualStyle
  2
Shades of Gray
 70
23
177
3
291
0
 70
58
 90
2
176
1
 90
2
176
1
 90
0
176
1
 90
2
176
1
 40
0.6
176
1
 40
30.0
176
1
 62
7
420
16777215
176
1
 90
1
176
1
 90
4
176
1
 62
7
176
1
 62
257
176
1
 90
1
176
1
 90
1
176
1
 40
1.0
176
1
 90
8
176
1
 62
7
176
1
 40
1.0
176
1
 90
1
176
1
 90
6
176
1
 90
2
176
1
 62
7
176
1
 90
5
176
1
 90
0
176
1
 90
0
176
1
290
0
176
1
 90
1
176
1
 40
0.0
176
1
 90
0
176
1
290
0
176
1
290
1
176
1
290
1
176
1
290
0
176
1
290
0
176
1
290
0
176
1
290
0
176
1
290
0
176
1
290
0
176
1
 90
50
176
1
 40
0.0
176
1
 40
1.0
176
1
 90
0
176
1
 62
18
420
0
176
1
 90
50
176
1
 90
3
176
1
 62
5
420
255
176
1
290
0
176
1
 90
50
176
1
 90
50
176
1
 90
50
176
1
290
0
176
1
 90
50
176
1
 62
256
176
0
 40
1.0
176
0
 90
2
176
1
  1
strokes_ogs.tif
176
1
290
0
176
1
 40
1.0
176
1
 40
1.0
176
1
  0
VISUALSTYLE
  5
6F
102
{ACAD_REACTORS
330
16
102
}
330
16
100
AcDbVisualStyle
  2
Sketchy
 70
24
177
3
291
0
 70
58
 90
2
176
1
 90
2
176
1
 90
0
176
1
 90
1
176
1
 40
0.6
176
1
 40
30.0
176
1
 62
7
420
16777215
176
1
 90
1
176
1
 90
4
176
1
 62
7
176
1
 62
257
176
1
 90
1
176
1
 90
1
176
1
 40
1.0
176
1
 90
8
176
1
 62
7
176
1
 40
1.0
176
1
 90
1
176
1
 90
6
176
1
 90
2
176
1
 62
7
176
1
 90
5
176
1
 90
0
176
1
 90
0
176
1
290
0
176
1
 90
1
176
1
 40
0.0
176
1
 90
0
176
1
290
0
176
1
290
1
176
1
290
1
176
1
290
0
176
1
290
0
176
1
290
0
176
1
290
0
176
1
290
0
176
1
290
0
176
1
 90
50
176
1
 40
0.0
176
1
 40
1.0
176
1
 90
0
176
1
 62
18
420
0
176
1
 90
50
176
1
 90
3
176
1
 62
5
420
255
176
1
290
0
176
1
 90
50
176
1
 90
50
176
1
 90
50
176
1
290
0
176
1
 90
50
176
1
 62
256
176
0
 40
1.0
176
0
 90
2
176
1
  1
strokes_ogs.tif
176
1
290
0
176
1
 40
1.0
176
1
 40
1.0
176
1
  0
VISUALSTYLE
  5
70
102
{ACAD_REACTORS
330
16
102
}
330
16
100
AcDbVisualStyle
  2
Thicken
 70
13
177
3
291
1
 70
58
 90
2
176
1
 90
2
176
1
 90
0
176
1
 90
2
176
1
 40
0.6
176
1
 40
30.0
176
1
 62
7
420
16777215
176
1
 90
1
176
1
 90
4
176
1
 62
7
176
1
 62
257
176
1
 90
1
176
1
 90
1
176
1
 40
1.0
176
1
 90
8
176
1
 62
7
176
1
 40
1.0
176
1
 90
1
176
1
 90
6
176
1
 90
2
176
1
 62
7
176
1
 90
5
176
1
 90
0
176
1
 90
0
176
1
290
0
176
1
 90
1
176
1
 40
0.0
176
1
 90
0
176
1
290
0
176
1
290
1
176
1
290
1
176
1
290
0
176
1
290
0
176
1
290
0
176
1
290
0
176
1
290
0
176
1
290
0
176
1
 90
50
176
1
 40
0.0
176
1
 40
1.0
176
1
 90
0
176
1
 62
18
420
0
176
1
 90
50
176
1
 90
3
176
1
 62
5
420
255
176
1
290
0
176
1
 90
50
176
1
 90
50
176
1
 90
50
176
1
290
0
176
1
 90
50
176
1
 62
256
176
0
 40
1.0
176
0
 90
2
176
1
  1
strokes_ogs.tif
176
1
290
0
176
1
 40
1.0
176
1
 40
1.0
176
1
  0
VISUALSTYLE
  5
71
102
{ACAD_REACTORS
330
16
102
}
330
16
100
AcDbVisualStyle
  2
Wireframe
 70
5
177
3
291
0
 70
58
 90
2
176
1
 90
2
176
1
 90
0
176
1
 90
0
176
1
 40
0.6
176
1
 40
30.0
176
1
 62
7
420
16777215
176
1
 90
1
176
1
 90
4
176
1
 62
7
176
1
 62
257
176
1
 90
1
176
1
 90
1
176
1
 40
1.0
176
1
 90
8
176
1
 62
7
176
1
 40
1.0
176
1
 90
1
176
1
 90
6
176
1
 90
2
176
1
 62
7
176
1
 90
5
176
1
 90
0
176
1
 90
0
176
1
290
0
176
1
 90
1
176
1
 40
0.0
176
1
 90
0
176
1
290
0
176
1
290
1
176
1
290
1
176
1
290
0
176
1
290
0
176
1
290
0
176
1
290
0
176
1
290
0
176
1
290
0
176
1
 90
50
176
1
 40
0.0
176
1
 40
1.0
176
1
 90
0
176
1
 62
18
420
0
176
1
 90
50
176
1
 90
3
176
1
 62
5
420
255
176
1
290
0
176
1
 90
50
176
1
 90
50
176
1
 90
50
176
1
290
0
176
1
 90
50
176
1
 62
256
176
0
 40
1.0
176
0
 90
2
176
1
  1
strokes_ogs.tif
176
1
290
0
176
1
 40
1.0
176
1
 40
1.0
176
1
  0
VISUALSTYLE
  5
72
102
{ACAD_REACTORS
330
16
102
}
330
16
100
AcDbVisualStyle
  2
X-Ray
 70
25
177
3
291
0
 70
58
 90
2
176
1
 90
2
176
1
 90
0
176
1
 90
2
176
1
 40
0.5
176
1
 40
30.0
176
1
 62
7
420
16777215
176
1
 90
1
176
1
 90
4
176
1
 62
7
176
1
 62
257
176
1
 90
1
176
1
 90
1
176
1
 40
1.0
176
1
 90
8
176
1
 62
7
176
1
 40
1.0
176
1
 90
1
176
1
 90
6
176
1
 90
2
176
1
 62
7
176
1
 90
5
176
1
 90
0
176
1
 90
0
176
1
290
0
176
1
 90
1
176
1
 40
0.0
176
1
 90
0
176
1
290
0
176
1
290
1
176
1
290
1
176
1
290
0
176
1
290
0
176
1
290
0
176
1
290
0
176
1
290
0
176
1
290
0
176
1
 90
50
176
1
 40
0.0
176
1
 40
1.0
176
1
 90
0
176
1
 62
18
420
0
176
1
 90
50
176
1
 90
3
176
1
 62
5
420
255
176
1
290
0
176
1
 90
50
176
1
 90
50
176
1
 90
50
176
1
290
0
176
1
 90
50
176
1
 62
256
176
0
 40
1.0
176
0
 90
2
176
1
  1
strokes_ogs.tif
176
1
290
0
176
1
 40
1.0
176
1
 40
1.0
176
1
  0
DICTIONARYVAR
  5
20D
330
2D
100
DictionaryVariables
280
0
  1
1.4.4 @ 2026-10-07T16:47:15.655641+00:00
  0
ENDSEC
  0
EOF
